G04 #@! TF.GenerationSoftware,KiCad,Pcbnew,5.1.5+dfsg1-2build2*
G04 #@! TF.CreationDate,2022-01-17T18:31:12+07:00*
G04 #@! TF.ProjectId,AMPP_V0,414d5050-5f56-4302-9e6b-696361645f70,rev?*
G04 #@! TF.SameCoordinates,Original*
G04 #@! TF.FileFunction,Soldermask,Bot*
G04 #@! TF.FilePolarity,Negative*
%FSLAX46Y46*%
G04 Gerber Fmt 4.6, Leading zero omitted, Abs format (unit mm)*
G04 Created by KiCad (PCBNEW 5.1.5+dfsg1-2build2) date 2022-01-17 18:31:12*
%MOMM*%
%LPD*%
G04 APERTURE LIST*
%ADD10C,0.100000*%
G04 APERTURE END LIST*
D10*
G36*
X48006000Y-59006201D02*
G01*
X48008402Y-59030587D01*
X48015515Y-59054036D01*
X48027066Y-59075647D01*
X48042611Y-59094589D01*
X48061553Y-59110134D01*
X48083164Y-59121685D01*
X48106613Y-59128798D01*
X48130999Y-59131200D01*
X128907001Y-59131200D01*
X128931387Y-59128798D01*
X128954836Y-59121685D01*
X128976447Y-59110134D01*
X128995389Y-59094589D01*
X129010934Y-59075647D01*
X129022485Y-59054036D01*
X129029598Y-59030587D01*
X129032000Y-59006201D01*
X129032000Y-49987200D01*
X134366000Y-49987200D01*
X134366000Y-60909200D01*
X43688000Y-60909200D01*
X43688000Y-40081200D01*
X48006000Y-40081200D01*
X48006000Y-59006201D01*
G37*
G36*
X124425826Y-55578237D02*
G01*
X124595665Y-55629757D01*
X124595667Y-55629758D01*
X124752189Y-55713421D01*
X124889386Y-55826014D01*
X124948166Y-55897639D01*
X125001978Y-55963209D01*
X125085643Y-56119734D01*
X125137163Y-56289573D01*
X125150200Y-56421942D01*
X125150200Y-56760457D01*
X125137163Y-56892826D01*
X125085643Y-57062666D01*
X125001978Y-57219191D01*
X124972648Y-57254929D01*
X124889386Y-57356386D01*
X124794450Y-57434297D01*
X124752191Y-57468978D01*
X124595666Y-57552643D01*
X124425827Y-57604163D01*
X124249200Y-57621559D01*
X124072574Y-57604163D01*
X123902735Y-57552643D01*
X123746210Y-57468978D01*
X123609015Y-57356385D01*
X123496422Y-57219191D01*
X123412757Y-57062666D01*
X123361237Y-56892827D01*
X123348200Y-56760458D01*
X123348200Y-56421943D01*
X123361237Y-56289574D01*
X123412757Y-56119735D01*
X123496422Y-55963210D01*
X123496423Y-55963209D01*
X123609014Y-55826014D01*
X123710471Y-55742752D01*
X123746209Y-55713422D01*
X123902734Y-55629757D01*
X124072573Y-55578237D01*
X124249200Y-55560841D01*
X124425826Y-55578237D01*
G37*
G36*
X126925826Y-55578237D02*
G01*
X127095665Y-55629757D01*
X127095667Y-55629758D01*
X127252189Y-55713421D01*
X127389386Y-55826014D01*
X127448166Y-55897639D01*
X127501978Y-55963209D01*
X127585643Y-56119734D01*
X127637163Y-56289573D01*
X127650200Y-56421942D01*
X127650200Y-56760457D01*
X127637163Y-56892826D01*
X127585643Y-57062666D01*
X127501978Y-57219191D01*
X127472648Y-57254929D01*
X127389386Y-57356386D01*
X127294450Y-57434297D01*
X127252191Y-57468978D01*
X127095666Y-57552643D01*
X126925827Y-57604163D01*
X126749200Y-57621559D01*
X126572574Y-57604163D01*
X126402735Y-57552643D01*
X126246210Y-57468978D01*
X126109015Y-57356385D01*
X125996422Y-57219191D01*
X125912757Y-57062666D01*
X125861237Y-56892827D01*
X125848200Y-56760458D01*
X125848200Y-56421943D01*
X125861237Y-56289574D01*
X125912757Y-56119735D01*
X125996422Y-55963210D01*
X125996423Y-55963209D01*
X126109014Y-55826014D01*
X126210471Y-55742752D01*
X126246209Y-55713422D01*
X126402734Y-55629757D01*
X126572573Y-55578237D01*
X126749200Y-55560841D01*
X126925826Y-55578237D01*
G37*
G36*
X61731626Y-55578237D02*
G01*
X61901465Y-55629757D01*
X61901467Y-55629758D01*
X62057989Y-55713421D01*
X62195186Y-55826014D01*
X62253966Y-55897639D01*
X62307778Y-55963209D01*
X62391443Y-56119734D01*
X62442963Y-56289573D01*
X62456000Y-56421942D01*
X62456000Y-56760457D01*
X62442963Y-56892826D01*
X62391443Y-57062666D01*
X62307778Y-57219191D01*
X62278448Y-57254929D01*
X62195186Y-57356386D01*
X62100250Y-57434297D01*
X62057991Y-57468978D01*
X61901466Y-57552643D01*
X61731627Y-57604163D01*
X61555000Y-57621559D01*
X61378374Y-57604163D01*
X61208535Y-57552643D01*
X61052010Y-57468978D01*
X60914815Y-57356385D01*
X60802222Y-57219191D01*
X60718557Y-57062666D01*
X60667037Y-56892827D01*
X60654000Y-56760458D01*
X60654000Y-56421943D01*
X60667037Y-56289574D01*
X60718557Y-56119735D01*
X60802222Y-55963210D01*
X60802223Y-55963209D01*
X60914814Y-55826014D01*
X61016271Y-55742752D01*
X61052009Y-55713422D01*
X61208534Y-55629757D01*
X61378373Y-55578237D01*
X61555000Y-55560841D01*
X61731626Y-55578237D01*
G37*
G36*
X64231626Y-55578237D02*
G01*
X64401465Y-55629757D01*
X64401467Y-55629758D01*
X64557989Y-55713421D01*
X64695186Y-55826014D01*
X64753966Y-55897639D01*
X64807778Y-55963209D01*
X64891443Y-56119734D01*
X64942963Y-56289573D01*
X64956000Y-56421942D01*
X64956000Y-56760457D01*
X64942963Y-56892826D01*
X64891443Y-57062666D01*
X64807778Y-57219191D01*
X64778448Y-57254929D01*
X64695186Y-57356386D01*
X64600250Y-57434297D01*
X64557991Y-57468978D01*
X64401466Y-57552643D01*
X64231627Y-57604163D01*
X64055000Y-57621559D01*
X63878374Y-57604163D01*
X63708535Y-57552643D01*
X63552010Y-57468978D01*
X63414815Y-57356385D01*
X63302222Y-57219191D01*
X63218557Y-57062666D01*
X63167037Y-56892827D01*
X63154000Y-56760458D01*
X63154000Y-56421943D01*
X63167037Y-56289574D01*
X63218557Y-56119735D01*
X63302222Y-55963210D01*
X63302223Y-55963209D01*
X63414814Y-55826014D01*
X63516271Y-55742752D01*
X63552009Y-55713422D01*
X63708534Y-55629757D01*
X63878373Y-55578237D01*
X64055000Y-55560841D01*
X64231626Y-55578237D01*
G37*
G36*
X66731626Y-55578237D02*
G01*
X66901465Y-55629757D01*
X66901467Y-55629758D01*
X67057989Y-55713421D01*
X67195186Y-55826014D01*
X67253966Y-55897639D01*
X67307778Y-55963209D01*
X67391443Y-56119734D01*
X67442963Y-56289573D01*
X67456000Y-56421942D01*
X67456000Y-56760457D01*
X67442963Y-56892826D01*
X67391443Y-57062666D01*
X67307778Y-57219191D01*
X67278448Y-57254929D01*
X67195186Y-57356386D01*
X67100250Y-57434297D01*
X67057991Y-57468978D01*
X66901466Y-57552643D01*
X66731627Y-57604163D01*
X66555000Y-57621559D01*
X66378374Y-57604163D01*
X66208535Y-57552643D01*
X66052010Y-57468978D01*
X65914815Y-57356385D01*
X65802222Y-57219191D01*
X65718557Y-57062666D01*
X65667037Y-56892827D01*
X65654000Y-56760458D01*
X65654000Y-56421943D01*
X65667037Y-56289574D01*
X65718557Y-56119735D01*
X65802222Y-55963210D01*
X65802223Y-55963209D01*
X65914814Y-55826014D01*
X66016271Y-55742752D01*
X66052009Y-55713422D01*
X66208534Y-55629757D01*
X66378373Y-55578237D01*
X66555000Y-55560841D01*
X66731626Y-55578237D01*
G37*
G36*
X69231626Y-55578237D02*
G01*
X69401465Y-55629757D01*
X69401467Y-55629758D01*
X69557989Y-55713421D01*
X69695186Y-55826014D01*
X69753966Y-55897639D01*
X69807778Y-55963209D01*
X69891443Y-56119734D01*
X69942963Y-56289573D01*
X69956000Y-56421942D01*
X69956000Y-56760457D01*
X69942963Y-56892826D01*
X69891443Y-57062666D01*
X69807778Y-57219191D01*
X69778448Y-57254929D01*
X69695186Y-57356386D01*
X69600250Y-57434297D01*
X69557991Y-57468978D01*
X69401466Y-57552643D01*
X69231627Y-57604163D01*
X69055000Y-57621559D01*
X68878374Y-57604163D01*
X68708535Y-57552643D01*
X68552010Y-57468978D01*
X68414815Y-57356385D01*
X68302222Y-57219191D01*
X68218557Y-57062666D01*
X68167037Y-56892827D01*
X68154000Y-56760458D01*
X68154000Y-56421943D01*
X68167037Y-56289574D01*
X68218557Y-56119735D01*
X68302222Y-55963210D01*
X68302223Y-55963209D01*
X68414814Y-55826014D01*
X68516271Y-55742752D01*
X68552009Y-55713422D01*
X68708534Y-55629757D01*
X68878373Y-55578237D01*
X69055000Y-55560841D01*
X69231626Y-55578237D01*
G37*
G36*
X71731626Y-55578237D02*
G01*
X71901465Y-55629757D01*
X71901467Y-55629758D01*
X72057989Y-55713421D01*
X72195186Y-55826014D01*
X72253966Y-55897639D01*
X72307778Y-55963209D01*
X72391443Y-56119734D01*
X72442963Y-56289573D01*
X72456000Y-56421942D01*
X72456000Y-56760457D01*
X72442963Y-56892826D01*
X72391443Y-57062666D01*
X72307778Y-57219191D01*
X72278448Y-57254929D01*
X72195186Y-57356386D01*
X72100250Y-57434297D01*
X72057991Y-57468978D01*
X71901466Y-57552643D01*
X71731627Y-57604163D01*
X71555000Y-57621559D01*
X71378374Y-57604163D01*
X71208535Y-57552643D01*
X71052010Y-57468978D01*
X70914815Y-57356385D01*
X70802222Y-57219191D01*
X70718557Y-57062666D01*
X70667037Y-56892827D01*
X70654000Y-56760458D01*
X70654000Y-56421943D01*
X70667037Y-56289574D01*
X70718557Y-56119735D01*
X70802222Y-55963210D01*
X70802223Y-55963209D01*
X70914814Y-55826014D01*
X71016271Y-55742752D01*
X71052009Y-55713422D01*
X71208534Y-55629757D01*
X71378373Y-55578237D01*
X71555000Y-55560841D01*
X71731626Y-55578237D01*
G37*
G36*
X99069626Y-55578237D02*
G01*
X99239465Y-55629757D01*
X99239467Y-55629758D01*
X99395989Y-55713421D01*
X99533186Y-55826014D01*
X99591966Y-55897639D01*
X99645778Y-55963209D01*
X99729443Y-56119734D01*
X99780963Y-56289573D01*
X99794000Y-56421942D01*
X99794000Y-56760457D01*
X99780963Y-56892826D01*
X99729443Y-57062666D01*
X99645778Y-57219191D01*
X99616448Y-57254929D01*
X99533186Y-57356386D01*
X99438250Y-57434297D01*
X99395991Y-57468978D01*
X99239466Y-57552643D01*
X99069627Y-57604163D01*
X98893000Y-57621559D01*
X98716374Y-57604163D01*
X98546535Y-57552643D01*
X98390010Y-57468978D01*
X98252815Y-57356385D01*
X98140222Y-57219191D01*
X98056557Y-57062666D01*
X98005037Y-56892827D01*
X97992000Y-56760458D01*
X97992000Y-56421943D01*
X98005037Y-56289574D01*
X98056557Y-56119735D01*
X98140222Y-55963210D01*
X98140223Y-55963209D01*
X98252814Y-55826014D01*
X98354271Y-55742752D01*
X98390009Y-55713422D01*
X98546534Y-55629757D01*
X98716373Y-55578237D01*
X98893000Y-55560841D01*
X99069626Y-55578237D01*
G37*
G36*
X101569626Y-55578237D02*
G01*
X101739465Y-55629757D01*
X101739467Y-55629758D01*
X101895989Y-55713421D01*
X102033186Y-55826014D01*
X102091966Y-55897639D01*
X102145778Y-55963209D01*
X102229443Y-56119734D01*
X102280963Y-56289573D01*
X102294000Y-56421942D01*
X102294000Y-56760457D01*
X102280963Y-56892826D01*
X102229443Y-57062666D01*
X102145778Y-57219191D01*
X102116448Y-57254929D01*
X102033186Y-57356386D01*
X101938250Y-57434297D01*
X101895991Y-57468978D01*
X101739466Y-57552643D01*
X101569627Y-57604163D01*
X101393000Y-57621559D01*
X101216374Y-57604163D01*
X101046535Y-57552643D01*
X100890010Y-57468978D01*
X100752815Y-57356385D01*
X100640222Y-57219191D01*
X100556557Y-57062666D01*
X100505037Y-56892827D01*
X100492000Y-56760458D01*
X100492000Y-56421943D01*
X100505037Y-56289574D01*
X100556557Y-56119735D01*
X100640222Y-55963210D01*
X100640223Y-55963209D01*
X100752814Y-55826014D01*
X100854271Y-55742752D01*
X100890009Y-55713422D01*
X101046534Y-55629757D01*
X101216373Y-55578237D01*
X101393000Y-55560841D01*
X101569626Y-55578237D01*
G37*
G36*
X82900626Y-55578237D02*
G01*
X83070465Y-55629757D01*
X83070467Y-55629758D01*
X83226989Y-55713421D01*
X83364186Y-55826014D01*
X83422966Y-55897639D01*
X83476778Y-55963209D01*
X83560443Y-56119734D01*
X83611963Y-56289573D01*
X83625000Y-56421942D01*
X83625000Y-56760457D01*
X83611963Y-56892826D01*
X83560443Y-57062666D01*
X83476778Y-57219191D01*
X83447448Y-57254929D01*
X83364186Y-57356386D01*
X83269250Y-57434297D01*
X83226991Y-57468978D01*
X83070466Y-57552643D01*
X82900627Y-57604163D01*
X82724000Y-57621559D01*
X82547374Y-57604163D01*
X82377535Y-57552643D01*
X82221010Y-57468978D01*
X82083815Y-57356385D01*
X81971222Y-57219191D01*
X81887557Y-57062666D01*
X81836037Y-56892827D01*
X81823000Y-56760458D01*
X81823000Y-56421943D01*
X81836037Y-56289574D01*
X81887557Y-56119735D01*
X81971222Y-55963210D01*
X81971223Y-55963209D01*
X82083814Y-55826014D01*
X82185271Y-55742752D01*
X82221009Y-55713422D01*
X82377534Y-55629757D01*
X82547373Y-55578237D01*
X82724000Y-55560841D01*
X82900626Y-55578237D01*
G37*
G36*
X80400626Y-55578237D02*
G01*
X80570465Y-55629757D01*
X80570467Y-55629758D01*
X80726989Y-55713421D01*
X80864186Y-55826014D01*
X80922966Y-55897639D01*
X80976778Y-55963209D01*
X81060443Y-56119734D01*
X81111963Y-56289573D01*
X81125000Y-56421942D01*
X81125000Y-56760457D01*
X81111963Y-56892826D01*
X81060443Y-57062666D01*
X80976778Y-57219191D01*
X80947448Y-57254929D01*
X80864186Y-57356386D01*
X80769250Y-57434297D01*
X80726991Y-57468978D01*
X80570466Y-57552643D01*
X80400627Y-57604163D01*
X80224000Y-57621559D01*
X80047374Y-57604163D01*
X79877535Y-57552643D01*
X79721010Y-57468978D01*
X79583815Y-57356385D01*
X79471222Y-57219191D01*
X79387557Y-57062666D01*
X79336037Y-56892827D01*
X79323000Y-56760458D01*
X79323000Y-56421943D01*
X79336037Y-56289574D01*
X79387557Y-56119735D01*
X79471222Y-55963210D01*
X79471223Y-55963209D01*
X79583814Y-55826014D01*
X79685271Y-55742752D01*
X79721009Y-55713422D01*
X79877534Y-55629757D01*
X80047373Y-55578237D01*
X80224000Y-55560841D01*
X80400626Y-55578237D01*
G37*
G36*
X121925826Y-55578237D02*
G01*
X122095665Y-55629757D01*
X122095667Y-55629758D01*
X122252189Y-55713421D01*
X122389386Y-55826014D01*
X122448166Y-55897639D01*
X122501978Y-55963209D01*
X122585643Y-56119734D01*
X122637163Y-56289573D01*
X122650200Y-56421942D01*
X122650200Y-56760457D01*
X122637163Y-56892826D01*
X122585643Y-57062666D01*
X122501978Y-57219191D01*
X122472648Y-57254929D01*
X122389386Y-57356386D01*
X122294450Y-57434297D01*
X122252191Y-57468978D01*
X122095666Y-57552643D01*
X121925827Y-57604163D01*
X121749200Y-57621559D01*
X121572574Y-57604163D01*
X121402735Y-57552643D01*
X121246210Y-57468978D01*
X121109015Y-57356385D01*
X120996422Y-57219191D01*
X120912757Y-57062666D01*
X120861237Y-56892827D01*
X120848200Y-56760458D01*
X120848200Y-56421943D01*
X120861237Y-56289574D01*
X120912757Y-56119735D01*
X120996422Y-55963210D01*
X120996423Y-55963209D01*
X121109014Y-55826014D01*
X121210471Y-55742752D01*
X121246209Y-55713422D01*
X121402734Y-55629757D01*
X121572573Y-55578237D01*
X121749200Y-55560841D01*
X121925826Y-55578237D01*
G37*
G36*
X119425826Y-55578237D02*
G01*
X119595665Y-55629757D01*
X119595667Y-55629758D01*
X119752189Y-55713421D01*
X119889386Y-55826014D01*
X119948166Y-55897639D01*
X120001978Y-55963209D01*
X120085643Y-56119734D01*
X120137163Y-56289573D01*
X120150200Y-56421942D01*
X120150200Y-56760457D01*
X120137163Y-56892826D01*
X120085643Y-57062666D01*
X120001978Y-57219191D01*
X119972648Y-57254929D01*
X119889386Y-57356386D01*
X119794450Y-57434297D01*
X119752191Y-57468978D01*
X119595666Y-57552643D01*
X119425827Y-57604163D01*
X119249200Y-57621559D01*
X119072574Y-57604163D01*
X118902735Y-57552643D01*
X118746210Y-57468978D01*
X118609015Y-57356385D01*
X118496422Y-57219191D01*
X118412757Y-57062666D01*
X118361237Y-56892827D01*
X118348200Y-56760458D01*
X118348200Y-56421943D01*
X118361237Y-56289574D01*
X118412757Y-56119735D01*
X118496422Y-55963210D01*
X118496423Y-55963209D01*
X118609014Y-55826014D01*
X118710471Y-55742752D01*
X118746209Y-55713422D01*
X118902734Y-55629757D01*
X119072573Y-55578237D01*
X119249200Y-55560841D01*
X119425826Y-55578237D01*
G37*
G36*
X116925826Y-55578237D02*
G01*
X117095665Y-55629757D01*
X117095667Y-55629758D01*
X117252189Y-55713421D01*
X117389386Y-55826014D01*
X117448166Y-55897639D01*
X117501978Y-55963209D01*
X117585643Y-56119734D01*
X117637163Y-56289573D01*
X117650200Y-56421942D01*
X117650200Y-56760457D01*
X117637163Y-56892826D01*
X117585643Y-57062666D01*
X117501978Y-57219191D01*
X117472648Y-57254929D01*
X117389386Y-57356386D01*
X117294450Y-57434297D01*
X117252191Y-57468978D01*
X117095666Y-57552643D01*
X116925827Y-57604163D01*
X116749200Y-57621559D01*
X116572574Y-57604163D01*
X116402735Y-57552643D01*
X116246210Y-57468978D01*
X116109015Y-57356385D01*
X115996422Y-57219191D01*
X115912757Y-57062666D01*
X115861237Y-56892827D01*
X115848200Y-56760458D01*
X115848200Y-56421943D01*
X115861237Y-56289574D01*
X115912757Y-56119735D01*
X115996422Y-55963210D01*
X115996423Y-55963209D01*
X116109014Y-55826014D01*
X116210471Y-55742752D01*
X116246209Y-55713422D01*
X116402734Y-55629757D01*
X116572573Y-55578237D01*
X116749200Y-55560841D01*
X116925826Y-55578237D01*
G37*
G36*
X90400626Y-55578237D02*
G01*
X90570465Y-55629757D01*
X90570467Y-55629758D01*
X90726989Y-55713421D01*
X90864186Y-55826014D01*
X90922966Y-55897639D01*
X90976778Y-55963209D01*
X91060443Y-56119734D01*
X91111963Y-56289573D01*
X91125000Y-56421942D01*
X91125000Y-56760457D01*
X91111963Y-56892826D01*
X91060443Y-57062666D01*
X90976778Y-57219191D01*
X90947448Y-57254929D01*
X90864186Y-57356386D01*
X90769250Y-57434297D01*
X90726991Y-57468978D01*
X90570466Y-57552643D01*
X90400627Y-57604163D01*
X90224000Y-57621559D01*
X90047374Y-57604163D01*
X89877535Y-57552643D01*
X89721010Y-57468978D01*
X89583815Y-57356385D01*
X89471222Y-57219191D01*
X89387557Y-57062666D01*
X89336037Y-56892827D01*
X89323000Y-56760458D01*
X89323000Y-56421943D01*
X89336037Y-56289574D01*
X89387557Y-56119735D01*
X89471222Y-55963210D01*
X89471223Y-55963209D01*
X89583814Y-55826014D01*
X89685271Y-55742752D01*
X89721009Y-55713422D01*
X89877534Y-55629757D01*
X90047373Y-55578237D01*
X90224000Y-55560841D01*
X90400626Y-55578237D01*
G37*
G36*
X87900626Y-55578237D02*
G01*
X88070465Y-55629757D01*
X88070467Y-55629758D01*
X88226989Y-55713421D01*
X88364186Y-55826014D01*
X88422966Y-55897639D01*
X88476778Y-55963209D01*
X88560443Y-56119734D01*
X88611963Y-56289573D01*
X88625000Y-56421942D01*
X88625000Y-56760457D01*
X88611963Y-56892826D01*
X88560443Y-57062666D01*
X88476778Y-57219191D01*
X88447448Y-57254929D01*
X88364186Y-57356386D01*
X88269250Y-57434297D01*
X88226991Y-57468978D01*
X88070466Y-57552643D01*
X87900627Y-57604163D01*
X87724000Y-57621559D01*
X87547374Y-57604163D01*
X87377535Y-57552643D01*
X87221010Y-57468978D01*
X87083815Y-57356385D01*
X86971222Y-57219191D01*
X86887557Y-57062666D01*
X86836037Y-56892827D01*
X86823000Y-56760458D01*
X86823000Y-56421943D01*
X86836037Y-56289574D01*
X86887557Y-56119735D01*
X86971222Y-55963210D01*
X86971223Y-55963209D01*
X87083814Y-55826014D01*
X87185271Y-55742752D01*
X87221009Y-55713422D01*
X87377534Y-55629757D01*
X87547373Y-55578237D01*
X87724000Y-55560841D01*
X87900626Y-55578237D01*
G37*
G36*
X85400626Y-55578237D02*
G01*
X85570465Y-55629757D01*
X85570467Y-55629758D01*
X85726989Y-55713421D01*
X85864186Y-55826014D01*
X85922966Y-55897639D01*
X85976778Y-55963209D01*
X86060443Y-56119734D01*
X86111963Y-56289573D01*
X86125000Y-56421942D01*
X86125000Y-56760457D01*
X86111963Y-56892826D01*
X86060443Y-57062666D01*
X85976778Y-57219191D01*
X85947448Y-57254929D01*
X85864186Y-57356386D01*
X85769250Y-57434297D01*
X85726991Y-57468978D01*
X85570466Y-57552643D01*
X85400627Y-57604163D01*
X85224000Y-57621559D01*
X85047374Y-57604163D01*
X84877535Y-57552643D01*
X84721010Y-57468978D01*
X84583815Y-57356385D01*
X84471222Y-57219191D01*
X84387557Y-57062666D01*
X84336037Y-56892827D01*
X84323000Y-56760458D01*
X84323000Y-56421943D01*
X84336037Y-56289574D01*
X84387557Y-56119735D01*
X84471222Y-55963210D01*
X84471223Y-55963209D01*
X84583814Y-55826014D01*
X84685271Y-55742752D01*
X84721009Y-55713422D01*
X84877534Y-55629757D01*
X85047373Y-55578237D01*
X85224000Y-55560841D01*
X85400626Y-55578237D01*
G37*
G36*
X78482600Y-55569189D02*
G01*
X78515652Y-55579215D01*
X78546103Y-55595492D01*
X78572799Y-55617401D01*
X78594708Y-55644097D01*
X78610985Y-55674548D01*
X78621011Y-55707600D01*
X78625000Y-55748103D01*
X78625000Y-57434297D01*
X78621011Y-57474800D01*
X78610985Y-57507852D01*
X78594708Y-57538303D01*
X78572799Y-57564999D01*
X78546103Y-57586908D01*
X78515652Y-57603185D01*
X78482600Y-57613211D01*
X78442097Y-57617200D01*
X77005903Y-57617200D01*
X76965400Y-57613211D01*
X76932348Y-57603185D01*
X76901897Y-57586908D01*
X76875201Y-57564999D01*
X76853292Y-57538303D01*
X76837015Y-57507852D01*
X76826989Y-57474800D01*
X76823000Y-57434297D01*
X76823000Y-55748103D01*
X76826989Y-55707600D01*
X76837015Y-55674548D01*
X76853292Y-55644097D01*
X76875201Y-55617401D01*
X76901897Y-55595492D01*
X76932348Y-55579215D01*
X76965400Y-55569189D01*
X77005903Y-55565200D01*
X78442097Y-55565200D01*
X78482600Y-55569189D01*
G37*
G36*
X115007800Y-55569189D02*
G01*
X115040852Y-55579215D01*
X115071303Y-55595492D01*
X115097999Y-55617401D01*
X115119908Y-55644097D01*
X115136185Y-55674548D01*
X115146211Y-55707600D01*
X115150200Y-55748103D01*
X115150200Y-57434297D01*
X115146211Y-57474800D01*
X115136185Y-57507852D01*
X115119908Y-57538303D01*
X115097999Y-57564999D01*
X115071303Y-57586908D01*
X115040852Y-57603185D01*
X115007800Y-57613211D01*
X114967297Y-57617200D01*
X113531103Y-57617200D01*
X113490600Y-57613211D01*
X113457548Y-57603185D01*
X113427097Y-57586908D01*
X113400401Y-57564999D01*
X113378492Y-57538303D01*
X113362215Y-57507852D01*
X113352189Y-57474800D01*
X113348200Y-57434297D01*
X113348200Y-55748103D01*
X113352189Y-55707600D01*
X113362215Y-55674548D01*
X113378492Y-55644097D01*
X113400401Y-55617401D01*
X113427097Y-55595492D01*
X113457548Y-55579215D01*
X113490600Y-55569189D01*
X113531103Y-55565200D01*
X114967297Y-55565200D01*
X115007800Y-55569189D01*
G37*
G36*
X97151600Y-55569189D02*
G01*
X97184652Y-55579215D01*
X97215103Y-55595492D01*
X97241799Y-55617401D01*
X97263708Y-55644097D01*
X97279985Y-55674548D01*
X97290011Y-55707600D01*
X97294000Y-55748103D01*
X97294000Y-57434297D01*
X97290011Y-57474800D01*
X97279985Y-57507852D01*
X97263708Y-57538303D01*
X97241799Y-57564999D01*
X97215103Y-57586908D01*
X97184652Y-57603185D01*
X97151600Y-57613211D01*
X97111097Y-57617200D01*
X95674903Y-57617200D01*
X95634400Y-57613211D01*
X95601348Y-57603185D01*
X95570897Y-57586908D01*
X95544201Y-57564999D01*
X95522292Y-57538303D01*
X95506015Y-57507852D01*
X95495989Y-57474800D01*
X95492000Y-57434297D01*
X95492000Y-55748103D01*
X95495989Y-55707600D01*
X95506015Y-55674548D01*
X95522292Y-55644097D01*
X95544201Y-55617401D01*
X95570897Y-55595492D01*
X95601348Y-55579215D01*
X95634400Y-55569189D01*
X95674903Y-55565200D01*
X97111097Y-55565200D01*
X97151600Y-55569189D01*
G37*
G36*
X59813600Y-55569189D02*
G01*
X59846652Y-55579215D01*
X59877103Y-55595492D01*
X59903799Y-55617401D01*
X59925708Y-55644097D01*
X59941985Y-55674548D01*
X59952011Y-55707600D01*
X59956000Y-55748103D01*
X59956000Y-57434297D01*
X59952011Y-57474800D01*
X59941985Y-57507852D01*
X59925708Y-57538303D01*
X59903799Y-57564999D01*
X59877103Y-57586908D01*
X59846652Y-57603185D01*
X59813600Y-57613211D01*
X59773097Y-57617200D01*
X58336903Y-57617200D01*
X58296400Y-57613211D01*
X58263348Y-57603185D01*
X58232897Y-57586908D01*
X58206201Y-57564999D01*
X58184292Y-57538303D01*
X58168015Y-57507852D01*
X58157989Y-57474800D01*
X58154000Y-57434297D01*
X58154000Y-55748103D01*
X58157989Y-55707600D01*
X58168015Y-55674548D01*
X58184292Y-55644097D01*
X58206201Y-55617401D01*
X58232897Y-55595492D01*
X58263348Y-55579215D01*
X58296400Y-55569189D01*
X58336903Y-55565200D01*
X59773097Y-55565200D01*
X59813600Y-55569189D01*
G37*
G36*
X15443572Y-53958618D02*
G01*
X15670488Y-54052609D01*
X15689439Y-54060459D01*
X15739771Y-54094090D01*
X15910711Y-54208309D01*
X16098891Y-54396489D01*
X16246742Y-54617763D01*
X16348582Y-54863628D01*
X16400500Y-55124637D01*
X16400500Y-55390763D01*
X16361790Y-55585372D01*
X16348582Y-55651772D01*
X16246741Y-55897639D01*
X16098890Y-56118912D01*
X15910712Y-56307090D01*
X15689439Y-56454941D01*
X15689438Y-56454942D01*
X15689437Y-56454942D01*
X15443572Y-56556782D01*
X15182563Y-56608700D01*
X14916437Y-56608700D01*
X14655428Y-56556782D01*
X14409563Y-56454942D01*
X14409562Y-56454942D01*
X14409561Y-56454941D01*
X14188288Y-56307090D01*
X14000110Y-56118912D01*
X13852259Y-55897639D01*
X13750418Y-55651772D01*
X13737210Y-55585372D01*
X13698500Y-55390763D01*
X13698500Y-55124637D01*
X13750418Y-54863628D01*
X13852258Y-54617763D01*
X14000109Y-54396489D01*
X14188289Y-54208309D01*
X14359229Y-54094090D01*
X14409561Y-54060459D01*
X14428513Y-54052609D01*
X14655428Y-53958618D01*
X14916437Y-53906700D01*
X15182563Y-53906700D01*
X15443572Y-53958618D01*
G37*
G36*
X11320500Y-56608700D02*
G01*
X8618500Y-56608700D01*
X8618500Y-53906700D01*
X11320500Y-53906700D01*
X11320500Y-56608700D01*
G37*
G36*
X138849594Y-52667980D02*
G01*
X139111383Y-52776417D01*
X139111385Y-52776418D01*
X139346990Y-52933844D01*
X139547356Y-53134210D01*
X139678479Y-53330450D01*
X139704783Y-53369817D01*
X139813220Y-53631606D01*
X139868500Y-53909519D01*
X139868500Y-54192881D01*
X139813220Y-54470794D01*
X139752344Y-54617761D01*
X139704782Y-54732585D01*
X139547356Y-54968190D01*
X139346990Y-55168556D01*
X139111385Y-55325982D01*
X139111384Y-55325983D01*
X139111383Y-55325983D01*
X138849594Y-55434420D01*
X138571681Y-55489700D01*
X138288319Y-55489700D01*
X138010406Y-55434420D01*
X137748617Y-55325983D01*
X137748616Y-55325983D01*
X137748615Y-55325982D01*
X137513010Y-55168556D01*
X137312644Y-54968190D01*
X137155218Y-54732585D01*
X137107656Y-54617761D01*
X137046780Y-54470794D01*
X136991500Y-54192881D01*
X136991500Y-53909519D01*
X137046780Y-53631606D01*
X137155217Y-53369817D01*
X137181521Y-53330450D01*
X137312644Y-53134210D01*
X137513010Y-52933844D01*
X137748615Y-52776418D01*
X137748617Y-52776417D01*
X138010406Y-52667980D01*
X138288319Y-52612700D01*
X138571681Y-52612700D01*
X138849594Y-52667980D01*
G37*
G36*
X63588091Y-53910285D02*
G01*
X63622069Y-53920593D01*
X63653390Y-53937334D01*
X63680839Y-53959861D01*
X63703366Y-53987310D01*
X63720107Y-54018631D01*
X63730415Y-54052609D01*
X63734500Y-54094090D01*
X63734500Y-54770310D01*
X63730415Y-54811791D01*
X63720107Y-54845769D01*
X63703366Y-54877090D01*
X63680839Y-54904539D01*
X63653390Y-54927066D01*
X63622069Y-54943807D01*
X63588091Y-54954115D01*
X63546610Y-54958200D01*
X62945390Y-54958200D01*
X62903909Y-54954115D01*
X62869931Y-54943807D01*
X62838610Y-54927066D01*
X62811161Y-54904539D01*
X62788634Y-54877090D01*
X62771893Y-54845769D01*
X62761585Y-54811791D01*
X62757500Y-54770310D01*
X62757500Y-54094090D01*
X62761585Y-54052609D01*
X62771893Y-54018631D01*
X62788634Y-53987310D01*
X62811161Y-53959861D01*
X62838610Y-53937334D01*
X62869931Y-53920593D01*
X62903909Y-53910285D01*
X62945390Y-53906200D01*
X63546610Y-53906200D01*
X63588091Y-53910285D01*
G37*
G36*
X65163091Y-53910285D02*
G01*
X65197069Y-53920593D01*
X65228390Y-53937334D01*
X65255839Y-53959861D01*
X65278366Y-53987310D01*
X65295107Y-54018631D01*
X65305415Y-54052609D01*
X65309500Y-54094090D01*
X65309500Y-54770310D01*
X65305415Y-54811791D01*
X65295107Y-54845769D01*
X65278366Y-54877090D01*
X65255839Y-54904539D01*
X65228390Y-54927066D01*
X65197069Y-54943807D01*
X65163091Y-54954115D01*
X65121610Y-54958200D01*
X64520390Y-54958200D01*
X64478909Y-54954115D01*
X64444931Y-54943807D01*
X64413610Y-54927066D01*
X64386161Y-54904539D01*
X64363634Y-54877090D01*
X64346893Y-54845769D01*
X64336585Y-54811791D01*
X64332500Y-54770310D01*
X64332500Y-54094090D01*
X64336585Y-54052609D01*
X64346893Y-54018631D01*
X64363634Y-53987310D01*
X64386161Y-53959861D01*
X64413610Y-53937334D01*
X64444931Y-53920593D01*
X64478909Y-53910285D01*
X64520390Y-53906200D01*
X65121610Y-53906200D01*
X65163091Y-53910285D01*
G37*
G36*
X60540091Y-53910285D02*
G01*
X60574069Y-53920593D01*
X60605390Y-53937334D01*
X60632839Y-53959861D01*
X60655366Y-53987310D01*
X60672107Y-54018631D01*
X60682415Y-54052609D01*
X60686500Y-54094090D01*
X60686500Y-54770310D01*
X60682415Y-54811791D01*
X60672107Y-54845769D01*
X60655366Y-54877090D01*
X60632839Y-54904539D01*
X60605390Y-54927066D01*
X60574069Y-54943807D01*
X60540091Y-54954115D01*
X60498610Y-54958200D01*
X59897390Y-54958200D01*
X59855909Y-54954115D01*
X59821931Y-54943807D01*
X59790610Y-54927066D01*
X59763161Y-54904539D01*
X59740634Y-54877090D01*
X59723893Y-54845769D01*
X59713585Y-54811791D01*
X59709500Y-54770310D01*
X59709500Y-54094090D01*
X59713585Y-54052609D01*
X59723893Y-54018631D01*
X59740634Y-53987310D01*
X59763161Y-53959861D01*
X59790610Y-53937334D01*
X59821931Y-53920593D01*
X59855909Y-53910285D01*
X59897390Y-53906200D01*
X60498610Y-53906200D01*
X60540091Y-53910285D01*
G37*
G36*
X62115091Y-53910285D02*
G01*
X62149069Y-53920593D01*
X62180390Y-53937334D01*
X62207839Y-53959861D01*
X62230366Y-53987310D01*
X62247107Y-54018631D01*
X62257415Y-54052609D01*
X62261500Y-54094090D01*
X62261500Y-54770310D01*
X62257415Y-54811791D01*
X62247107Y-54845769D01*
X62230366Y-54877090D01*
X62207839Y-54904539D01*
X62180390Y-54927066D01*
X62149069Y-54943807D01*
X62115091Y-54954115D01*
X62073610Y-54958200D01*
X61472390Y-54958200D01*
X61430909Y-54954115D01*
X61396931Y-54943807D01*
X61365610Y-54927066D01*
X61338161Y-54904539D01*
X61315634Y-54877090D01*
X61298893Y-54845769D01*
X61288585Y-54811791D01*
X61284500Y-54770310D01*
X61284500Y-54094090D01*
X61288585Y-54052609D01*
X61298893Y-54018631D01*
X61315634Y-53987310D01*
X61338161Y-53959861D01*
X61365610Y-53937334D01*
X61396931Y-53920593D01*
X61430909Y-53910285D01*
X61472390Y-53906200D01*
X62073610Y-53906200D01*
X62115091Y-53910285D01*
G37*
G36*
X71233591Y-53910285D02*
G01*
X71267569Y-53920593D01*
X71298890Y-53937334D01*
X71326339Y-53959861D01*
X71348866Y-53987310D01*
X71365607Y-54018631D01*
X71375915Y-54052609D01*
X71380000Y-54094090D01*
X71380000Y-54770310D01*
X71375915Y-54811791D01*
X71365607Y-54845769D01*
X71348866Y-54877090D01*
X71326339Y-54904539D01*
X71298890Y-54927066D01*
X71267569Y-54943807D01*
X71233591Y-54954115D01*
X71192110Y-54958200D01*
X70590890Y-54958200D01*
X70549409Y-54954115D01*
X70515431Y-54943807D01*
X70484110Y-54927066D01*
X70456661Y-54904539D01*
X70434134Y-54877090D01*
X70417393Y-54845769D01*
X70407085Y-54811791D01*
X70403000Y-54770310D01*
X70403000Y-54094090D01*
X70407085Y-54052609D01*
X70417393Y-54018631D01*
X70434134Y-53987310D01*
X70456661Y-53959861D01*
X70484110Y-53937334D01*
X70515431Y-53920593D01*
X70549409Y-53910285D01*
X70590890Y-53906200D01*
X71192110Y-53906200D01*
X71233591Y-53910285D01*
G37*
G36*
X68185591Y-53910285D02*
G01*
X68219569Y-53920593D01*
X68250890Y-53937334D01*
X68278339Y-53959861D01*
X68300866Y-53987310D01*
X68317607Y-54018631D01*
X68327915Y-54052609D01*
X68332000Y-54094090D01*
X68332000Y-54770310D01*
X68327915Y-54811791D01*
X68317607Y-54845769D01*
X68300866Y-54877090D01*
X68278339Y-54904539D01*
X68250890Y-54927066D01*
X68219569Y-54943807D01*
X68185591Y-54954115D01*
X68144110Y-54958200D01*
X67542890Y-54958200D01*
X67501409Y-54954115D01*
X67467431Y-54943807D01*
X67436110Y-54927066D01*
X67408661Y-54904539D01*
X67386134Y-54877090D01*
X67369393Y-54845769D01*
X67359085Y-54811791D01*
X67355000Y-54770310D01*
X67355000Y-54094090D01*
X67359085Y-54052609D01*
X67369393Y-54018631D01*
X67386134Y-53987310D01*
X67408661Y-53959861D01*
X67436110Y-53937334D01*
X67467431Y-53920593D01*
X67501409Y-53910285D01*
X67542890Y-53906200D01*
X68144110Y-53906200D01*
X68185591Y-53910285D01*
G37*
G36*
X66610591Y-53910285D02*
G01*
X66644569Y-53920593D01*
X66675890Y-53937334D01*
X66703339Y-53959861D01*
X66725866Y-53987310D01*
X66742607Y-54018631D01*
X66752915Y-54052609D01*
X66757000Y-54094090D01*
X66757000Y-54770310D01*
X66752915Y-54811791D01*
X66742607Y-54845769D01*
X66725866Y-54877090D01*
X66703339Y-54904539D01*
X66675890Y-54927066D01*
X66644569Y-54943807D01*
X66610591Y-54954115D01*
X66569110Y-54958200D01*
X65967890Y-54958200D01*
X65926409Y-54954115D01*
X65892431Y-54943807D01*
X65861110Y-54927066D01*
X65833661Y-54904539D01*
X65811134Y-54877090D01*
X65794393Y-54845769D01*
X65784085Y-54811791D01*
X65780000Y-54770310D01*
X65780000Y-54094090D01*
X65784085Y-54052609D01*
X65794393Y-54018631D01*
X65811134Y-53987310D01*
X65833661Y-53959861D01*
X65861110Y-53937334D01*
X65892431Y-53920593D01*
X65926409Y-53910285D01*
X65967890Y-53906200D01*
X66569110Y-53906200D01*
X66610591Y-53910285D01*
G37*
G36*
X69658591Y-53910285D02*
G01*
X69692569Y-53920593D01*
X69723890Y-53937334D01*
X69751339Y-53959861D01*
X69773866Y-53987310D01*
X69790607Y-54018631D01*
X69800915Y-54052609D01*
X69805000Y-54094090D01*
X69805000Y-54770310D01*
X69800915Y-54811791D01*
X69790607Y-54845769D01*
X69773866Y-54877090D01*
X69751339Y-54904539D01*
X69723890Y-54927066D01*
X69692569Y-54943807D01*
X69658591Y-54954115D01*
X69617110Y-54958200D01*
X69015890Y-54958200D01*
X68974409Y-54954115D01*
X68940431Y-54943807D01*
X68909110Y-54927066D01*
X68881661Y-54904539D01*
X68859134Y-54877090D01*
X68842393Y-54845769D01*
X68832085Y-54811791D01*
X68828000Y-54770310D01*
X68828000Y-54094090D01*
X68832085Y-54052609D01*
X68842393Y-54018631D01*
X68859134Y-53987310D01*
X68881661Y-53959861D01*
X68909110Y-53937334D01*
X68940431Y-53920593D01*
X68974409Y-53910285D01*
X69015890Y-53906200D01*
X69617110Y-53906200D01*
X69658591Y-53910285D01*
G37*
G36*
X43014091Y-52767285D02*
G01*
X43048069Y-52777593D01*
X43079390Y-52794334D01*
X43106839Y-52816861D01*
X43129366Y-52844310D01*
X43146107Y-52875631D01*
X43156415Y-52909609D01*
X43160500Y-52951090D01*
X43160500Y-53627310D01*
X43156415Y-53668791D01*
X43146107Y-53702769D01*
X43129366Y-53734090D01*
X43106839Y-53761539D01*
X43079390Y-53784066D01*
X43048069Y-53800807D01*
X43014091Y-53811115D01*
X42972610Y-53815200D01*
X42371390Y-53815200D01*
X42329909Y-53811115D01*
X42295931Y-53800807D01*
X42264610Y-53784066D01*
X42237161Y-53761539D01*
X42214634Y-53734090D01*
X42197893Y-53702769D01*
X42187585Y-53668791D01*
X42183500Y-53627310D01*
X42183500Y-52951090D01*
X42187585Y-52909609D01*
X42197893Y-52875631D01*
X42214634Y-52844310D01*
X42237161Y-52816861D01*
X42264610Y-52794334D01*
X42295931Y-52777593D01*
X42329909Y-52767285D01*
X42371390Y-52763200D01*
X42972610Y-52763200D01*
X43014091Y-52767285D01*
G37*
G36*
X108583591Y-52601785D02*
G01*
X108617569Y-52612093D01*
X108648890Y-52628834D01*
X108676339Y-52651361D01*
X108698866Y-52678810D01*
X108715607Y-52710131D01*
X108725915Y-52744109D01*
X108730000Y-52785590D01*
X108730000Y-53386810D01*
X108725915Y-53428291D01*
X108715607Y-53462269D01*
X108698866Y-53493590D01*
X108676339Y-53521039D01*
X108648890Y-53543566D01*
X108617569Y-53560307D01*
X108583591Y-53570615D01*
X108542110Y-53574700D01*
X107865890Y-53574700D01*
X107824409Y-53570615D01*
X107790431Y-53560307D01*
X107759110Y-53543566D01*
X107731661Y-53521039D01*
X107709134Y-53493590D01*
X107692393Y-53462269D01*
X107682085Y-53428291D01*
X107678000Y-53386810D01*
X107678000Y-52785590D01*
X107682085Y-52744109D01*
X107692393Y-52710131D01*
X107709134Y-52678810D01*
X107731661Y-52651361D01*
X107759110Y-52628834D01*
X107790431Y-52612093D01*
X107824409Y-52601785D01*
X107865890Y-52597700D01*
X108542110Y-52597700D01*
X108583591Y-52601785D01*
G37*
G36*
X107059591Y-52576285D02*
G01*
X107093569Y-52586593D01*
X107124890Y-52603334D01*
X107152339Y-52625861D01*
X107174866Y-52653310D01*
X107191607Y-52684631D01*
X107201915Y-52718609D01*
X107206000Y-52760090D01*
X107206000Y-53361310D01*
X107201915Y-53402791D01*
X107191607Y-53436769D01*
X107174866Y-53468090D01*
X107152339Y-53495539D01*
X107124890Y-53518066D01*
X107093569Y-53534807D01*
X107059591Y-53545115D01*
X107018110Y-53549200D01*
X106341890Y-53549200D01*
X106300409Y-53545115D01*
X106266431Y-53534807D01*
X106235110Y-53518066D01*
X106207661Y-53495539D01*
X106185134Y-53468090D01*
X106168393Y-53436769D01*
X106158085Y-53402791D01*
X106154000Y-53361310D01*
X106154000Y-52760090D01*
X106158085Y-52718609D01*
X106168393Y-52684631D01*
X106185134Y-52653310D01*
X106207661Y-52625861D01*
X106235110Y-52603334D01*
X106266431Y-52586593D01*
X106300409Y-52576285D01*
X106341890Y-52572200D01*
X107018110Y-52572200D01*
X107059591Y-52576285D01*
G37*
G36*
X118997591Y-52322285D02*
G01*
X119031569Y-52332593D01*
X119062890Y-52349334D01*
X119090339Y-52371861D01*
X119112866Y-52399310D01*
X119129607Y-52430631D01*
X119139915Y-52464609D01*
X119144000Y-52506090D01*
X119144000Y-53107310D01*
X119139915Y-53148791D01*
X119129607Y-53182769D01*
X119112866Y-53214090D01*
X119090339Y-53241539D01*
X119062890Y-53264066D01*
X119031569Y-53280807D01*
X118997591Y-53291115D01*
X118956110Y-53295200D01*
X118279890Y-53295200D01*
X118238409Y-53291115D01*
X118204431Y-53280807D01*
X118173110Y-53264066D01*
X118145661Y-53241539D01*
X118123134Y-53214090D01*
X118106393Y-53182769D01*
X118096085Y-53148791D01*
X118092000Y-53107310D01*
X118092000Y-52506090D01*
X118096085Y-52464609D01*
X118106393Y-52430631D01*
X118123134Y-52399310D01*
X118145661Y-52371861D01*
X118173110Y-52349334D01*
X118204431Y-52332593D01*
X118238409Y-52322285D01*
X118279890Y-52318200D01*
X118956110Y-52318200D01*
X118997591Y-52322285D01*
G37*
G36*
X120775591Y-52322285D02*
G01*
X120809569Y-52332593D01*
X120840890Y-52349334D01*
X120868339Y-52371861D01*
X120890866Y-52399310D01*
X120907607Y-52430631D01*
X120917915Y-52464609D01*
X120922000Y-52506090D01*
X120922000Y-53107310D01*
X120917915Y-53148791D01*
X120907607Y-53182769D01*
X120890866Y-53214090D01*
X120868339Y-53241539D01*
X120840890Y-53264066D01*
X120809569Y-53280807D01*
X120775591Y-53291115D01*
X120734110Y-53295200D01*
X120057890Y-53295200D01*
X120016409Y-53291115D01*
X119982431Y-53280807D01*
X119951110Y-53264066D01*
X119923661Y-53241539D01*
X119901134Y-53214090D01*
X119884393Y-53182769D01*
X119874085Y-53148791D01*
X119870000Y-53107310D01*
X119870000Y-52506090D01*
X119874085Y-52464609D01*
X119884393Y-52430631D01*
X119901134Y-52399310D01*
X119923661Y-52371861D01*
X119951110Y-52349334D01*
X119982431Y-52332593D01*
X120016409Y-52322285D01*
X120057890Y-52318200D01*
X120734110Y-52318200D01*
X120775591Y-52322285D01*
G37*
G36*
X122299591Y-52322285D02*
G01*
X122333569Y-52332593D01*
X122364890Y-52349334D01*
X122392339Y-52371861D01*
X122414866Y-52399310D01*
X122431607Y-52430631D01*
X122441915Y-52464609D01*
X122446000Y-52506090D01*
X122446000Y-53107310D01*
X122441915Y-53148791D01*
X122431607Y-53182769D01*
X122414866Y-53214090D01*
X122392339Y-53241539D01*
X122364890Y-53264066D01*
X122333569Y-53280807D01*
X122299591Y-53291115D01*
X122258110Y-53295200D01*
X121581890Y-53295200D01*
X121540409Y-53291115D01*
X121506431Y-53280807D01*
X121475110Y-53264066D01*
X121447661Y-53241539D01*
X121425134Y-53214090D01*
X121408393Y-53182769D01*
X121398085Y-53148791D01*
X121394000Y-53107310D01*
X121394000Y-52506090D01*
X121398085Y-52464609D01*
X121408393Y-52430631D01*
X121425134Y-52399310D01*
X121447661Y-52371861D01*
X121475110Y-52349334D01*
X121506431Y-52332593D01*
X121540409Y-52322285D01*
X121581890Y-52318200D01*
X122258110Y-52318200D01*
X122299591Y-52322285D01*
G37*
G36*
X41019591Y-52296785D02*
G01*
X41053569Y-52307093D01*
X41084890Y-52323834D01*
X41112339Y-52346361D01*
X41134866Y-52373810D01*
X41151607Y-52405131D01*
X41161915Y-52439109D01*
X41166000Y-52480590D01*
X41166000Y-53081810D01*
X41161915Y-53123291D01*
X41151607Y-53157269D01*
X41134866Y-53188590D01*
X41112339Y-53216039D01*
X41084890Y-53238566D01*
X41053569Y-53255307D01*
X41019591Y-53265615D01*
X40978110Y-53269700D01*
X40301890Y-53269700D01*
X40260409Y-53265615D01*
X40226431Y-53255307D01*
X40195110Y-53238566D01*
X40167661Y-53216039D01*
X40145134Y-53188590D01*
X40128393Y-53157269D01*
X40118085Y-53123291D01*
X40114000Y-53081810D01*
X40114000Y-52480590D01*
X40118085Y-52439109D01*
X40128393Y-52405131D01*
X40145134Y-52373810D01*
X40167661Y-52346361D01*
X40195110Y-52323834D01*
X40226431Y-52307093D01*
X40260409Y-52296785D01*
X40301890Y-52292700D01*
X40978110Y-52292700D01*
X41019591Y-52296785D01*
G37*
G36*
X37209591Y-52296785D02*
G01*
X37243569Y-52307093D01*
X37274890Y-52323834D01*
X37302339Y-52346361D01*
X37324866Y-52373810D01*
X37341607Y-52405131D01*
X37351915Y-52439109D01*
X37356000Y-52480590D01*
X37356000Y-53081810D01*
X37351915Y-53123291D01*
X37341607Y-53157269D01*
X37324866Y-53188590D01*
X37302339Y-53216039D01*
X37274890Y-53238566D01*
X37243569Y-53255307D01*
X37209591Y-53265615D01*
X37168110Y-53269700D01*
X36491890Y-53269700D01*
X36450409Y-53265615D01*
X36416431Y-53255307D01*
X36385110Y-53238566D01*
X36357661Y-53216039D01*
X36335134Y-53188590D01*
X36318393Y-53157269D01*
X36308085Y-53123291D01*
X36304000Y-53081810D01*
X36304000Y-52480590D01*
X36308085Y-52439109D01*
X36318393Y-52405131D01*
X36335134Y-52373810D01*
X36357661Y-52346361D01*
X36385110Y-52323834D01*
X36416431Y-52307093D01*
X36450409Y-52296785D01*
X36491890Y-52292700D01*
X37168110Y-52292700D01*
X37209591Y-52296785D01*
G37*
G36*
X39241591Y-52296785D02*
G01*
X39275569Y-52307093D01*
X39306890Y-52323834D01*
X39334339Y-52346361D01*
X39356866Y-52373810D01*
X39373607Y-52405131D01*
X39383915Y-52439109D01*
X39388000Y-52480590D01*
X39388000Y-53081810D01*
X39383915Y-53123291D01*
X39373607Y-53157269D01*
X39356866Y-53188590D01*
X39334339Y-53216039D01*
X39306890Y-53238566D01*
X39275569Y-53255307D01*
X39241591Y-53265615D01*
X39200110Y-53269700D01*
X38523890Y-53269700D01*
X38482409Y-53265615D01*
X38448431Y-53255307D01*
X38417110Y-53238566D01*
X38389661Y-53216039D01*
X38367134Y-53188590D01*
X38350393Y-53157269D01*
X38340085Y-53123291D01*
X38336000Y-53081810D01*
X38336000Y-52480590D01*
X38340085Y-52439109D01*
X38350393Y-52405131D01*
X38367134Y-52373810D01*
X38389661Y-52346361D01*
X38417110Y-52323834D01*
X38448431Y-52307093D01*
X38482409Y-52296785D01*
X38523890Y-52292700D01*
X39200110Y-52292700D01*
X39241591Y-52296785D01*
G37*
G36*
X25271591Y-52220785D02*
G01*
X25305569Y-52231093D01*
X25336890Y-52247834D01*
X25364339Y-52270361D01*
X25386866Y-52297810D01*
X25403607Y-52329131D01*
X25413915Y-52363109D01*
X25418000Y-52404590D01*
X25418000Y-53005810D01*
X25413915Y-53047291D01*
X25403607Y-53081269D01*
X25386866Y-53112590D01*
X25364339Y-53140039D01*
X25336890Y-53162566D01*
X25305569Y-53179307D01*
X25271591Y-53189615D01*
X25230110Y-53193700D01*
X24553890Y-53193700D01*
X24512409Y-53189615D01*
X24478431Y-53179307D01*
X24447110Y-53162566D01*
X24419661Y-53140039D01*
X24397134Y-53112590D01*
X24380393Y-53081269D01*
X24370085Y-53047291D01*
X24366000Y-53005810D01*
X24366000Y-52404590D01*
X24370085Y-52363109D01*
X24380393Y-52329131D01*
X24397134Y-52297810D01*
X24419661Y-52270361D01*
X24447110Y-52247834D01*
X24478431Y-52231093D01*
X24512409Y-52220785D01*
X24553890Y-52216700D01*
X25230110Y-52216700D01*
X25271591Y-52220785D01*
G37*
G36*
X26795591Y-52169785D02*
G01*
X26829569Y-52180093D01*
X26860890Y-52196834D01*
X26888339Y-52219361D01*
X26910866Y-52246810D01*
X26927607Y-52278131D01*
X26937915Y-52312109D01*
X26942000Y-52353590D01*
X26942000Y-52954810D01*
X26937915Y-52996291D01*
X26927607Y-53030269D01*
X26910866Y-53061590D01*
X26888339Y-53089039D01*
X26860890Y-53111566D01*
X26829569Y-53128307D01*
X26795591Y-53138615D01*
X26754110Y-53142700D01*
X26077890Y-53142700D01*
X26036409Y-53138615D01*
X26002431Y-53128307D01*
X25971110Y-53111566D01*
X25943661Y-53089039D01*
X25921134Y-53061590D01*
X25904393Y-53030269D01*
X25894085Y-52996291D01*
X25890000Y-52954810D01*
X25890000Y-52353590D01*
X25894085Y-52312109D01*
X25904393Y-52278131D01*
X25921134Y-52246810D01*
X25943661Y-52219361D01*
X25971110Y-52196834D01*
X26002431Y-52180093D01*
X26036409Y-52169785D01*
X26077890Y-52165700D01*
X26754110Y-52165700D01*
X26795591Y-52169785D01*
G37*
G36*
X108583591Y-51026785D02*
G01*
X108617569Y-51037093D01*
X108648890Y-51053834D01*
X108676339Y-51076361D01*
X108698866Y-51103810D01*
X108715607Y-51135131D01*
X108725915Y-51169109D01*
X108730000Y-51210590D01*
X108730000Y-51811810D01*
X108725915Y-51853291D01*
X108715607Y-51887269D01*
X108698866Y-51918590D01*
X108676339Y-51946039D01*
X108648890Y-51968566D01*
X108617569Y-51985307D01*
X108583591Y-51995615D01*
X108542110Y-51999700D01*
X107865890Y-51999700D01*
X107824409Y-51995615D01*
X107790431Y-51985307D01*
X107759110Y-51968566D01*
X107731661Y-51946039D01*
X107709134Y-51918590D01*
X107692393Y-51887269D01*
X107682085Y-51853291D01*
X107678000Y-51811810D01*
X107678000Y-51210590D01*
X107682085Y-51169109D01*
X107692393Y-51135131D01*
X107709134Y-51103810D01*
X107731661Y-51076361D01*
X107759110Y-51053834D01*
X107790431Y-51037093D01*
X107824409Y-51026785D01*
X107865890Y-51022700D01*
X108542110Y-51022700D01*
X108583591Y-51026785D01*
G37*
G36*
X107059591Y-51001285D02*
G01*
X107093569Y-51011593D01*
X107124890Y-51028334D01*
X107152339Y-51050861D01*
X107174866Y-51078310D01*
X107191607Y-51109631D01*
X107201915Y-51143609D01*
X107206000Y-51185090D01*
X107206000Y-51786310D01*
X107201915Y-51827791D01*
X107191607Y-51861769D01*
X107174866Y-51893090D01*
X107152339Y-51920539D01*
X107124890Y-51943066D01*
X107093569Y-51959807D01*
X107059591Y-51970115D01*
X107018110Y-51974200D01*
X106341890Y-51974200D01*
X106300409Y-51970115D01*
X106266431Y-51959807D01*
X106235110Y-51943066D01*
X106207661Y-51920539D01*
X106185134Y-51893090D01*
X106168393Y-51861769D01*
X106158085Y-51827791D01*
X106154000Y-51786310D01*
X106154000Y-51185090D01*
X106158085Y-51143609D01*
X106168393Y-51109631D01*
X106185134Y-51078310D01*
X106207661Y-51050861D01*
X106235110Y-51028334D01*
X106266431Y-51011593D01*
X106300409Y-51001285D01*
X106341890Y-50997200D01*
X107018110Y-50997200D01*
X107059591Y-51001285D01*
G37*
G36*
X118997591Y-50747285D02*
G01*
X119031569Y-50757593D01*
X119062890Y-50774334D01*
X119090339Y-50796861D01*
X119112866Y-50824310D01*
X119129607Y-50855631D01*
X119139915Y-50889609D01*
X119144000Y-50931090D01*
X119144000Y-51532310D01*
X119139915Y-51573791D01*
X119129607Y-51607769D01*
X119112866Y-51639090D01*
X119090339Y-51666539D01*
X119062890Y-51689066D01*
X119031569Y-51705807D01*
X118997591Y-51716115D01*
X118956110Y-51720200D01*
X118279890Y-51720200D01*
X118238409Y-51716115D01*
X118204431Y-51705807D01*
X118173110Y-51689066D01*
X118145661Y-51666539D01*
X118123134Y-51639090D01*
X118106393Y-51607769D01*
X118096085Y-51573791D01*
X118092000Y-51532310D01*
X118092000Y-50931090D01*
X118096085Y-50889609D01*
X118106393Y-50855631D01*
X118123134Y-50824310D01*
X118145661Y-50796861D01*
X118173110Y-50774334D01*
X118204431Y-50757593D01*
X118238409Y-50747285D01*
X118279890Y-50743200D01*
X118956110Y-50743200D01*
X118997591Y-50747285D01*
G37*
G36*
X120775591Y-50747285D02*
G01*
X120809569Y-50757593D01*
X120840890Y-50774334D01*
X120868339Y-50796861D01*
X120890866Y-50824310D01*
X120907607Y-50855631D01*
X120917915Y-50889609D01*
X120922000Y-50931090D01*
X120922000Y-51532310D01*
X120917915Y-51573791D01*
X120907607Y-51607769D01*
X120890866Y-51639090D01*
X120868339Y-51666539D01*
X120840890Y-51689066D01*
X120809569Y-51705807D01*
X120775591Y-51716115D01*
X120734110Y-51720200D01*
X120057890Y-51720200D01*
X120016409Y-51716115D01*
X119982431Y-51705807D01*
X119951110Y-51689066D01*
X119923661Y-51666539D01*
X119901134Y-51639090D01*
X119884393Y-51607769D01*
X119874085Y-51573791D01*
X119870000Y-51532310D01*
X119870000Y-50931090D01*
X119874085Y-50889609D01*
X119884393Y-50855631D01*
X119901134Y-50824310D01*
X119923661Y-50796861D01*
X119951110Y-50774334D01*
X119982431Y-50757593D01*
X120016409Y-50747285D01*
X120057890Y-50743200D01*
X120734110Y-50743200D01*
X120775591Y-50747285D01*
G37*
G36*
X122299591Y-50747285D02*
G01*
X122333569Y-50757593D01*
X122364890Y-50774334D01*
X122392339Y-50796861D01*
X122414866Y-50824310D01*
X122431607Y-50855631D01*
X122441915Y-50889609D01*
X122446000Y-50931090D01*
X122446000Y-51532310D01*
X122441915Y-51573791D01*
X122431607Y-51607769D01*
X122414866Y-51639090D01*
X122392339Y-51666539D01*
X122364890Y-51689066D01*
X122333569Y-51705807D01*
X122299591Y-51716115D01*
X122258110Y-51720200D01*
X121581890Y-51720200D01*
X121540409Y-51716115D01*
X121506431Y-51705807D01*
X121475110Y-51689066D01*
X121447661Y-51666539D01*
X121425134Y-51639090D01*
X121408393Y-51607769D01*
X121398085Y-51573791D01*
X121394000Y-51532310D01*
X121394000Y-50931090D01*
X121398085Y-50889609D01*
X121408393Y-50855631D01*
X121425134Y-50824310D01*
X121447661Y-50796861D01*
X121475110Y-50774334D01*
X121506431Y-50757593D01*
X121540409Y-50747285D01*
X121581890Y-50743200D01*
X122258110Y-50743200D01*
X122299591Y-50747285D01*
G37*
G36*
X37209591Y-50721785D02*
G01*
X37243569Y-50732093D01*
X37274890Y-50748834D01*
X37302339Y-50771361D01*
X37324866Y-50798810D01*
X37341607Y-50830131D01*
X37351915Y-50864109D01*
X37356000Y-50905590D01*
X37356000Y-51506810D01*
X37351915Y-51548291D01*
X37341607Y-51582269D01*
X37324866Y-51613590D01*
X37302339Y-51641039D01*
X37274890Y-51663566D01*
X37243569Y-51680307D01*
X37209591Y-51690615D01*
X37168110Y-51694700D01*
X36491890Y-51694700D01*
X36450409Y-51690615D01*
X36416431Y-51680307D01*
X36385110Y-51663566D01*
X36357661Y-51641039D01*
X36335134Y-51613590D01*
X36318393Y-51582269D01*
X36308085Y-51548291D01*
X36304000Y-51506810D01*
X36304000Y-50905590D01*
X36308085Y-50864109D01*
X36318393Y-50830131D01*
X36335134Y-50798810D01*
X36357661Y-50771361D01*
X36385110Y-50748834D01*
X36416431Y-50732093D01*
X36450409Y-50721785D01*
X36491890Y-50717700D01*
X37168110Y-50717700D01*
X37209591Y-50721785D01*
G37*
G36*
X39241591Y-50721785D02*
G01*
X39275569Y-50732093D01*
X39306890Y-50748834D01*
X39334339Y-50771361D01*
X39356866Y-50798810D01*
X39373607Y-50830131D01*
X39383915Y-50864109D01*
X39388000Y-50905590D01*
X39388000Y-51506810D01*
X39383915Y-51548291D01*
X39373607Y-51582269D01*
X39356866Y-51613590D01*
X39334339Y-51641039D01*
X39306890Y-51663566D01*
X39275569Y-51680307D01*
X39241591Y-51690615D01*
X39200110Y-51694700D01*
X38523890Y-51694700D01*
X38482409Y-51690615D01*
X38448431Y-51680307D01*
X38417110Y-51663566D01*
X38389661Y-51641039D01*
X38367134Y-51613590D01*
X38350393Y-51582269D01*
X38340085Y-51548291D01*
X38336000Y-51506810D01*
X38336000Y-50905590D01*
X38340085Y-50864109D01*
X38350393Y-50830131D01*
X38367134Y-50798810D01*
X38389661Y-50771361D01*
X38417110Y-50748834D01*
X38448431Y-50732093D01*
X38482409Y-50721785D01*
X38523890Y-50717700D01*
X39200110Y-50717700D01*
X39241591Y-50721785D01*
G37*
G36*
X41019591Y-50721785D02*
G01*
X41053569Y-50732093D01*
X41084890Y-50748834D01*
X41112339Y-50771361D01*
X41134866Y-50798810D01*
X41151607Y-50830131D01*
X41161915Y-50864109D01*
X41166000Y-50905590D01*
X41166000Y-51506810D01*
X41161915Y-51548291D01*
X41151607Y-51582269D01*
X41134866Y-51613590D01*
X41112339Y-51641039D01*
X41084890Y-51663566D01*
X41053569Y-51680307D01*
X41019591Y-51690615D01*
X40978110Y-51694700D01*
X40301890Y-51694700D01*
X40260409Y-51690615D01*
X40226431Y-51680307D01*
X40195110Y-51663566D01*
X40167661Y-51641039D01*
X40145134Y-51613590D01*
X40128393Y-51582269D01*
X40118085Y-51548291D01*
X40114000Y-51506810D01*
X40114000Y-50905590D01*
X40118085Y-50864109D01*
X40128393Y-50830131D01*
X40145134Y-50798810D01*
X40167661Y-50771361D01*
X40195110Y-50748834D01*
X40226431Y-50732093D01*
X40260409Y-50721785D01*
X40301890Y-50717700D01*
X40978110Y-50717700D01*
X41019591Y-50721785D01*
G37*
G36*
X25271591Y-50645785D02*
G01*
X25305569Y-50656093D01*
X25336890Y-50672834D01*
X25364339Y-50695361D01*
X25386866Y-50722810D01*
X25403607Y-50754131D01*
X25413915Y-50788109D01*
X25418000Y-50829590D01*
X25418000Y-51430810D01*
X25413915Y-51472291D01*
X25403607Y-51506269D01*
X25386866Y-51537590D01*
X25364339Y-51565039D01*
X25336890Y-51587566D01*
X25305569Y-51604307D01*
X25271591Y-51614615D01*
X25230110Y-51618700D01*
X24553890Y-51618700D01*
X24512409Y-51614615D01*
X24478431Y-51604307D01*
X24447110Y-51587566D01*
X24419661Y-51565039D01*
X24397134Y-51537590D01*
X24380393Y-51506269D01*
X24370085Y-51472291D01*
X24366000Y-51430810D01*
X24366000Y-50829590D01*
X24370085Y-50788109D01*
X24380393Y-50754131D01*
X24397134Y-50722810D01*
X24419661Y-50695361D01*
X24447110Y-50672834D01*
X24478431Y-50656093D01*
X24512409Y-50645785D01*
X24553890Y-50641700D01*
X25230110Y-50641700D01*
X25271591Y-50645785D01*
G37*
G36*
X26795591Y-50594785D02*
G01*
X26829569Y-50605093D01*
X26860890Y-50621834D01*
X26888339Y-50644361D01*
X26910866Y-50671810D01*
X26927607Y-50703131D01*
X26937915Y-50737109D01*
X26942000Y-50778590D01*
X26942000Y-51379810D01*
X26937915Y-51421291D01*
X26927607Y-51455269D01*
X26910866Y-51486590D01*
X26888339Y-51514039D01*
X26860890Y-51536566D01*
X26829569Y-51553307D01*
X26795591Y-51563615D01*
X26754110Y-51567700D01*
X26077890Y-51567700D01*
X26036409Y-51563615D01*
X26002431Y-51553307D01*
X25971110Y-51536566D01*
X25943661Y-51514039D01*
X25921134Y-51486590D01*
X25904393Y-51455269D01*
X25894085Y-51421291D01*
X25890000Y-51379810D01*
X25890000Y-50778590D01*
X25894085Y-50737109D01*
X25904393Y-50703131D01*
X25921134Y-50671810D01*
X25943661Y-50644361D01*
X25971110Y-50621834D01*
X26002431Y-50605093D01*
X26036409Y-50594785D01*
X26077890Y-50590700D01*
X26754110Y-50590700D01*
X26795591Y-50594785D01*
G37*
G36*
X125855591Y-50036285D02*
G01*
X125889569Y-50046593D01*
X125920890Y-50063334D01*
X125948339Y-50085861D01*
X125970866Y-50113310D01*
X125987607Y-50144631D01*
X125997915Y-50178609D01*
X126002000Y-50220090D01*
X126002000Y-50821310D01*
X125997915Y-50862791D01*
X125987607Y-50896769D01*
X125970866Y-50928090D01*
X125948339Y-50955539D01*
X125920890Y-50978066D01*
X125889569Y-50994807D01*
X125855591Y-51005115D01*
X125814110Y-51009200D01*
X125137890Y-51009200D01*
X125096409Y-51005115D01*
X125062431Y-50994807D01*
X125031110Y-50978066D01*
X125003661Y-50955539D01*
X124981134Y-50928090D01*
X124964393Y-50896769D01*
X124954085Y-50862791D01*
X124950000Y-50821310D01*
X124950000Y-50220090D01*
X124954085Y-50178609D01*
X124964393Y-50144631D01*
X124981134Y-50113310D01*
X125003661Y-50085861D01*
X125031110Y-50063334D01*
X125062431Y-50046593D01*
X125096409Y-50036285D01*
X125137890Y-50032200D01*
X125814110Y-50032200D01*
X125855591Y-50036285D01*
G37*
G36*
X123975500Y-50004200D02*
G01*
X106328500Y-50004200D01*
X106328500Y-48702200D01*
X123975500Y-48702200D01*
X123975500Y-50004200D01*
G37*
G36*
X42351500Y-50004200D02*
G01*
X24704500Y-50004200D01*
X24704500Y-48702200D01*
X42351500Y-48702200D01*
X42351500Y-50004200D01*
G37*
G36*
X125855591Y-48461285D02*
G01*
X125889569Y-48471593D01*
X125920890Y-48488334D01*
X125948339Y-48510861D01*
X125970866Y-48538310D01*
X125987607Y-48569631D01*
X125997915Y-48603609D01*
X126002000Y-48645090D01*
X126002000Y-49246310D01*
X125997915Y-49287791D01*
X125987607Y-49321769D01*
X125970866Y-49353090D01*
X125948339Y-49380539D01*
X125920890Y-49403066D01*
X125889569Y-49419807D01*
X125855591Y-49430115D01*
X125814110Y-49434200D01*
X125137890Y-49434200D01*
X125096409Y-49430115D01*
X125062431Y-49419807D01*
X125031110Y-49403066D01*
X125003661Y-49380539D01*
X124981134Y-49353090D01*
X124964393Y-49321769D01*
X124954085Y-49287791D01*
X124950000Y-49246310D01*
X124950000Y-48645090D01*
X124954085Y-48603609D01*
X124964393Y-48569631D01*
X124981134Y-48538310D01*
X125003661Y-48510861D01*
X125031110Y-48488334D01*
X125062431Y-48471593D01*
X125096409Y-48461285D01*
X125137890Y-48457200D01*
X125814110Y-48457200D01*
X125855591Y-48461285D01*
G37*
G36*
X95307546Y-41463634D02*
G01*
X95626782Y-41527134D01*
X96218426Y-41772201D01*
X96750892Y-42127984D01*
X97203716Y-42580808D01*
X97559499Y-43113274D01*
X97804566Y-43704918D01*
X97929500Y-44333004D01*
X97929500Y-44973396D01*
X97804566Y-45601482D01*
X97559499Y-46193126D01*
X97274486Y-46619677D01*
X97246146Y-46662092D01*
X97203716Y-46725592D01*
X96750892Y-47178416D01*
X96218426Y-47534199D01*
X95626782Y-47779266D01*
X95317932Y-47840700D01*
X94998697Y-47904200D01*
X94358303Y-47904200D01*
X94039068Y-47840700D01*
X93730218Y-47779266D01*
X93138574Y-47534199D01*
X92606108Y-47178416D01*
X92153284Y-46725592D01*
X92110855Y-46662092D01*
X92082514Y-46619677D01*
X91797501Y-46193126D01*
X91552434Y-45601482D01*
X91427500Y-44973396D01*
X91427500Y-44333004D01*
X91552434Y-43704918D01*
X91797501Y-43113274D01*
X92153284Y-42580808D01*
X92606108Y-42127984D01*
X93138574Y-41772201D01*
X93730218Y-41527134D01*
X94049454Y-41463634D01*
X94358303Y-41402200D01*
X94998697Y-41402200D01*
X95307546Y-41463634D01*
G37*
G36*
X136265046Y-41463634D02*
G01*
X136584282Y-41527134D01*
X137175926Y-41772201D01*
X137708392Y-42127984D01*
X138161216Y-42580808D01*
X138516999Y-43113274D01*
X138762066Y-43704918D01*
X138887000Y-44333004D01*
X138887000Y-44973396D01*
X138762066Y-45601482D01*
X138516999Y-46193126D01*
X138231986Y-46619677D01*
X138203646Y-46662092D01*
X138161216Y-46725592D01*
X137708392Y-47178416D01*
X137175926Y-47534199D01*
X136584282Y-47779266D01*
X136275432Y-47840700D01*
X135956197Y-47904200D01*
X135315803Y-47904200D01*
X134996568Y-47840700D01*
X134687718Y-47779266D01*
X134096074Y-47534199D01*
X133563608Y-47178416D01*
X133110784Y-46725592D01*
X133068355Y-46662092D01*
X133040014Y-46619677D01*
X132755001Y-46193126D01*
X132509934Y-45601482D01*
X132385000Y-44973396D01*
X132385000Y-44333004D01*
X132509934Y-43704918D01*
X132755001Y-43113274D01*
X133110784Y-42580808D01*
X133563608Y-42127984D01*
X134096074Y-41772201D01*
X134687718Y-41527134D01*
X135006954Y-41463634D01*
X135315803Y-41402200D01*
X135956197Y-41402200D01*
X136265046Y-41463634D01*
G37*
G36*
X13646546Y-41463634D02*
G01*
X13965782Y-41527134D01*
X14557426Y-41772201D01*
X15089892Y-42127984D01*
X15542716Y-42580808D01*
X15898499Y-43113274D01*
X16143566Y-43704918D01*
X16268500Y-44333004D01*
X16268500Y-44973396D01*
X16143566Y-45601482D01*
X15898499Y-46193126D01*
X15613486Y-46619677D01*
X15585146Y-46662092D01*
X15542716Y-46725592D01*
X15089892Y-47178416D01*
X14557426Y-47534199D01*
X13965782Y-47779266D01*
X13656932Y-47840700D01*
X13337697Y-47904200D01*
X12697303Y-47904200D01*
X12378068Y-47840700D01*
X12069218Y-47779266D01*
X11477574Y-47534199D01*
X10945108Y-47178416D01*
X10492284Y-46725592D01*
X10449855Y-46662092D01*
X10421514Y-46619677D01*
X10136501Y-46193126D01*
X9891434Y-45601482D01*
X9766500Y-44973396D01*
X9766500Y-44333004D01*
X9891434Y-43704918D01*
X10136501Y-43113274D01*
X10492284Y-42580808D01*
X10945108Y-42127984D01*
X11477574Y-41772201D01*
X12069218Y-41527134D01*
X12388454Y-41463634D01*
X12697303Y-41402200D01*
X13337697Y-41402200D01*
X13646546Y-41463634D01*
G37*
G36*
X54609239Y-41401167D02*
G01*
X54923282Y-41463634D01*
X55514926Y-41708701D01*
X55941477Y-41993714D01*
X56047391Y-42064483D01*
X56500217Y-42517309D01*
X56542646Y-42580809D01*
X56855999Y-43049774D01*
X57101066Y-43641418D01*
X57226000Y-44269504D01*
X57226000Y-44909896D01*
X57101066Y-45537982D01*
X56855999Y-46129626D01*
X56500216Y-46662092D01*
X56047392Y-47114916D01*
X55514926Y-47470699D01*
X54923282Y-47715766D01*
X54609239Y-47778233D01*
X54295197Y-47840700D01*
X53654803Y-47840700D01*
X53340761Y-47778233D01*
X53026718Y-47715766D01*
X52435074Y-47470699D01*
X51902608Y-47114916D01*
X51449784Y-46662092D01*
X51094001Y-46129626D01*
X50848934Y-45537982D01*
X50724000Y-44909896D01*
X50724000Y-44269504D01*
X50848934Y-43641418D01*
X51094001Y-43049774D01*
X51407354Y-42580809D01*
X51449783Y-42517309D01*
X51902609Y-42064483D01*
X52008523Y-41993714D01*
X52435074Y-41708701D01*
X53026718Y-41463634D01*
X53340761Y-41401167D01*
X53654803Y-41338700D01*
X54295197Y-41338700D01*
X54609239Y-41401167D01*
G37*
G36*
X42351500Y-40604200D02*
G01*
X24704500Y-40604200D01*
X24704500Y-39302200D01*
X42351500Y-39302200D01*
X42351500Y-40604200D01*
G37*
G36*
X123975500Y-40604200D02*
G01*
X106328500Y-40604200D01*
X106328500Y-39302200D01*
X123975500Y-39302200D01*
X123975500Y-40604200D01*
G37*
G36*
X127125591Y-37590285D02*
G01*
X127159569Y-37600593D01*
X127190890Y-37617334D01*
X127218339Y-37639861D01*
X127240866Y-37667310D01*
X127257607Y-37698631D01*
X127267915Y-37732609D01*
X127272000Y-37774090D01*
X127272000Y-38375310D01*
X127267915Y-38416791D01*
X127257607Y-38450769D01*
X127240866Y-38482090D01*
X127218339Y-38509539D01*
X127190890Y-38532066D01*
X127159569Y-38548807D01*
X127125591Y-38559115D01*
X127084110Y-38563200D01*
X126407890Y-38563200D01*
X126366409Y-38559115D01*
X126332431Y-38548807D01*
X126301110Y-38532066D01*
X126273661Y-38509539D01*
X126251134Y-38482090D01*
X126234393Y-38450769D01*
X126224085Y-38416791D01*
X126220000Y-38375310D01*
X126220000Y-37774090D01*
X126224085Y-37732609D01*
X126234393Y-37698631D01*
X126251134Y-37667310D01*
X126273661Y-37639861D01*
X126301110Y-37617334D01*
X126332431Y-37600593D01*
X126366409Y-37590285D01*
X126407890Y-37586200D01*
X127084110Y-37586200D01*
X127125591Y-37590285D01*
G37*
G36*
X103757591Y-37590285D02*
G01*
X103791569Y-37600593D01*
X103822890Y-37617334D01*
X103850339Y-37639861D01*
X103872866Y-37667310D01*
X103889607Y-37698631D01*
X103899915Y-37732609D01*
X103904000Y-37774090D01*
X103904000Y-38375310D01*
X103899915Y-38416791D01*
X103889607Y-38450769D01*
X103872866Y-38482090D01*
X103850339Y-38509539D01*
X103822890Y-38532066D01*
X103791569Y-38548807D01*
X103757591Y-38559115D01*
X103716110Y-38563200D01*
X103039890Y-38563200D01*
X102998409Y-38559115D01*
X102964431Y-38548807D01*
X102933110Y-38532066D01*
X102905661Y-38509539D01*
X102883134Y-38482090D01*
X102866393Y-38450769D01*
X102856085Y-38416791D01*
X102852000Y-38375310D01*
X102852000Y-37774090D01*
X102856085Y-37732609D01*
X102866393Y-37698631D01*
X102883134Y-37667310D01*
X102905661Y-37639861D01*
X102933110Y-37617334D01*
X102964431Y-37600593D01*
X102998409Y-37590285D01*
X103039890Y-37586200D01*
X103716110Y-37586200D01*
X103757591Y-37590285D01*
G37*
G36*
X107313591Y-37336285D02*
G01*
X107347569Y-37346593D01*
X107378890Y-37363334D01*
X107406339Y-37385861D01*
X107428866Y-37413310D01*
X107445607Y-37444631D01*
X107455915Y-37478609D01*
X107460000Y-37520090D01*
X107460000Y-38121310D01*
X107455915Y-38162791D01*
X107445607Y-38196769D01*
X107428866Y-38228090D01*
X107406339Y-38255539D01*
X107378890Y-38278066D01*
X107347569Y-38294807D01*
X107313591Y-38305115D01*
X107272110Y-38309200D01*
X106595890Y-38309200D01*
X106554409Y-38305115D01*
X106520431Y-38294807D01*
X106489110Y-38278066D01*
X106461661Y-38255539D01*
X106439134Y-38228090D01*
X106422393Y-38196769D01*
X106412085Y-38162791D01*
X106408000Y-38121310D01*
X106408000Y-37520090D01*
X106412085Y-37478609D01*
X106422393Y-37444631D01*
X106439134Y-37413310D01*
X106461661Y-37385861D01*
X106489110Y-37363334D01*
X106520431Y-37346593D01*
X106554409Y-37336285D01*
X106595890Y-37332200D01*
X107272110Y-37332200D01*
X107313591Y-37336285D01*
G37*
G36*
X110107591Y-37336285D02*
G01*
X110141569Y-37346593D01*
X110172890Y-37363334D01*
X110200339Y-37385861D01*
X110222866Y-37413310D01*
X110239607Y-37444631D01*
X110249915Y-37478609D01*
X110254000Y-37520090D01*
X110254000Y-38121310D01*
X110249915Y-38162791D01*
X110239607Y-38196769D01*
X110222866Y-38228090D01*
X110200339Y-38255539D01*
X110172890Y-38278066D01*
X110141569Y-38294807D01*
X110107591Y-38305115D01*
X110066110Y-38309200D01*
X109389890Y-38309200D01*
X109348409Y-38305115D01*
X109314431Y-38294807D01*
X109283110Y-38278066D01*
X109255661Y-38255539D01*
X109233134Y-38228090D01*
X109216393Y-38196769D01*
X109206085Y-38162791D01*
X109202000Y-38121310D01*
X109202000Y-37520090D01*
X109206085Y-37478609D01*
X109216393Y-37444631D01*
X109233134Y-37413310D01*
X109255661Y-37385861D01*
X109283110Y-37363334D01*
X109314431Y-37346593D01*
X109348409Y-37336285D01*
X109389890Y-37332200D01*
X110066110Y-37332200D01*
X110107591Y-37336285D01*
G37*
G36*
X121156591Y-37336285D02*
G01*
X121190569Y-37346593D01*
X121221890Y-37363334D01*
X121249339Y-37385861D01*
X121271866Y-37413310D01*
X121288607Y-37444631D01*
X121298915Y-37478609D01*
X121303000Y-37520090D01*
X121303000Y-38121310D01*
X121298915Y-38162791D01*
X121288607Y-38196769D01*
X121271866Y-38228090D01*
X121249339Y-38255539D01*
X121221890Y-38278066D01*
X121190569Y-38294807D01*
X121156591Y-38305115D01*
X121115110Y-38309200D01*
X120438890Y-38309200D01*
X120397409Y-38305115D01*
X120363431Y-38294807D01*
X120332110Y-38278066D01*
X120304661Y-38255539D01*
X120282134Y-38228090D01*
X120265393Y-38196769D01*
X120255085Y-38162791D01*
X120251000Y-38121310D01*
X120251000Y-37520090D01*
X120255085Y-37478609D01*
X120265393Y-37444631D01*
X120282134Y-37413310D01*
X120304661Y-37385861D01*
X120332110Y-37363334D01*
X120363431Y-37346593D01*
X120397409Y-37336285D01*
X120438890Y-37332200D01*
X121115110Y-37332200D01*
X121156591Y-37336285D01*
G37*
G36*
X119632591Y-37336285D02*
G01*
X119666569Y-37346593D01*
X119697890Y-37363334D01*
X119725339Y-37385861D01*
X119747866Y-37413310D01*
X119764607Y-37444631D01*
X119774915Y-37478609D01*
X119779000Y-37520090D01*
X119779000Y-38121310D01*
X119774915Y-38162791D01*
X119764607Y-38196769D01*
X119747866Y-38228090D01*
X119725339Y-38255539D01*
X119697890Y-38278066D01*
X119666569Y-38294807D01*
X119632591Y-38305115D01*
X119591110Y-38309200D01*
X118914890Y-38309200D01*
X118873409Y-38305115D01*
X118839431Y-38294807D01*
X118808110Y-38278066D01*
X118780661Y-38255539D01*
X118758134Y-38228090D01*
X118741393Y-38196769D01*
X118731085Y-38162791D01*
X118727000Y-38121310D01*
X118727000Y-37520090D01*
X118731085Y-37478609D01*
X118741393Y-37444631D01*
X118758134Y-37413310D01*
X118780661Y-37385861D01*
X118808110Y-37363334D01*
X118839431Y-37346593D01*
X118873409Y-37336285D01*
X118914890Y-37332200D01*
X119591110Y-37332200D01*
X119632591Y-37336285D01*
G37*
G36*
X111631591Y-37336285D02*
G01*
X111665569Y-37346593D01*
X111696890Y-37363334D01*
X111724339Y-37385861D01*
X111746866Y-37413310D01*
X111763607Y-37444631D01*
X111773915Y-37478609D01*
X111778000Y-37520090D01*
X111778000Y-38121310D01*
X111773915Y-38162791D01*
X111763607Y-38196769D01*
X111746866Y-38228090D01*
X111724339Y-38255539D01*
X111696890Y-38278066D01*
X111665569Y-38294807D01*
X111631591Y-38305115D01*
X111590110Y-38309200D01*
X110913890Y-38309200D01*
X110872409Y-38305115D01*
X110838431Y-38294807D01*
X110807110Y-38278066D01*
X110779661Y-38255539D01*
X110757134Y-38228090D01*
X110740393Y-38196769D01*
X110730085Y-38162791D01*
X110726000Y-38121310D01*
X110726000Y-37520090D01*
X110730085Y-37478609D01*
X110740393Y-37444631D01*
X110757134Y-37413310D01*
X110779661Y-37385861D01*
X110807110Y-37363334D01*
X110838431Y-37346593D01*
X110872409Y-37336285D01*
X110913890Y-37332200D01*
X111590110Y-37332200D01*
X111631591Y-37336285D01*
G37*
G36*
X114171591Y-37310785D02*
G01*
X114205569Y-37321093D01*
X114236890Y-37337834D01*
X114264339Y-37360361D01*
X114286866Y-37387810D01*
X114303607Y-37419131D01*
X114313915Y-37453109D01*
X114318000Y-37494590D01*
X114318000Y-38095810D01*
X114313915Y-38137291D01*
X114303607Y-38171269D01*
X114286866Y-38202590D01*
X114264339Y-38230039D01*
X114236890Y-38252566D01*
X114205569Y-38269307D01*
X114171591Y-38279615D01*
X114130110Y-38283700D01*
X113453890Y-38283700D01*
X113412409Y-38279615D01*
X113378431Y-38269307D01*
X113347110Y-38252566D01*
X113319661Y-38230039D01*
X113297134Y-38202590D01*
X113280393Y-38171269D01*
X113270085Y-38137291D01*
X113266000Y-38095810D01*
X113266000Y-37494590D01*
X113270085Y-37453109D01*
X113280393Y-37419131D01*
X113297134Y-37387810D01*
X113319661Y-37360361D01*
X113347110Y-37337834D01*
X113378431Y-37321093D01*
X113412409Y-37310785D01*
X113453890Y-37306700D01*
X114130110Y-37306700D01*
X114171591Y-37310785D01*
G37*
G36*
X116711591Y-37310785D02*
G01*
X116745569Y-37321093D01*
X116776890Y-37337834D01*
X116804339Y-37360361D01*
X116826866Y-37387810D01*
X116843607Y-37419131D01*
X116853915Y-37453109D01*
X116858000Y-37494590D01*
X116858000Y-38095810D01*
X116853915Y-38137291D01*
X116843607Y-38171269D01*
X116826866Y-38202590D01*
X116804339Y-38230039D01*
X116776890Y-38252566D01*
X116745569Y-38269307D01*
X116711591Y-38279615D01*
X116670110Y-38283700D01*
X115993890Y-38283700D01*
X115952409Y-38279615D01*
X115918431Y-38269307D01*
X115887110Y-38252566D01*
X115859661Y-38230039D01*
X115837134Y-38202590D01*
X115820393Y-38171269D01*
X115810085Y-38137291D01*
X115806000Y-38095810D01*
X115806000Y-37494590D01*
X115810085Y-37453109D01*
X115820393Y-37419131D01*
X115837134Y-37387810D01*
X115859661Y-37360361D01*
X115887110Y-37337834D01*
X115918431Y-37321093D01*
X115952409Y-37310785D01*
X115993890Y-37306700D01*
X116670110Y-37306700D01*
X116711591Y-37310785D01*
G37*
G36*
X46353591Y-37310785D02*
G01*
X46387569Y-37321093D01*
X46418890Y-37337834D01*
X46446339Y-37360361D01*
X46468866Y-37387810D01*
X46485607Y-37419131D01*
X46495915Y-37453109D01*
X46500000Y-37494590D01*
X46500000Y-38095810D01*
X46495915Y-38137291D01*
X46485607Y-38171269D01*
X46468866Y-38202590D01*
X46446339Y-38230039D01*
X46418890Y-38252566D01*
X46387569Y-38269307D01*
X46353591Y-38279615D01*
X46312110Y-38283700D01*
X45635890Y-38283700D01*
X45594409Y-38279615D01*
X45560431Y-38269307D01*
X45529110Y-38252566D01*
X45501661Y-38230039D01*
X45479134Y-38202590D01*
X45462393Y-38171269D01*
X45452085Y-38137291D01*
X45448000Y-38095810D01*
X45448000Y-37494590D01*
X45452085Y-37453109D01*
X45462393Y-37419131D01*
X45479134Y-37387810D01*
X45501661Y-37360361D01*
X45529110Y-37337834D01*
X45560431Y-37321093D01*
X45594409Y-37310785D01*
X45635890Y-37306700D01*
X46312110Y-37306700D01*
X46353591Y-37310785D01*
G37*
G36*
X22477591Y-37310785D02*
G01*
X22511569Y-37321093D01*
X22542890Y-37337834D01*
X22570339Y-37360361D01*
X22592866Y-37387810D01*
X22609607Y-37419131D01*
X22619915Y-37453109D01*
X22624000Y-37494590D01*
X22624000Y-38095810D01*
X22619915Y-38137291D01*
X22609607Y-38171269D01*
X22592866Y-38202590D01*
X22570339Y-38230039D01*
X22542890Y-38252566D01*
X22511569Y-38269307D01*
X22477591Y-38279615D01*
X22436110Y-38283700D01*
X21759890Y-38283700D01*
X21718409Y-38279615D01*
X21684431Y-38269307D01*
X21653110Y-38252566D01*
X21625661Y-38230039D01*
X21603134Y-38202590D01*
X21586393Y-38171269D01*
X21576085Y-38137291D01*
X21572000Y-38095810D01*
X21572000Y-37494590D01*
X21576085Y-37453109D01*
X21586393Y-37419131D01*
X21603134Y-37387810D01*
X21625661Y-37360361D01*
X21653110Y-37337834D01*
X21684431Y-37321093D01*
X21718409Y-37310785D01*
X21759890Y-37306700D01*
X22436110Y-37306700D01*
X22477591Y-37310785D01*
G37*
G36*
X37971591Y-37272785D02*
G01*
X38005569Y-37283093D01*
X38036890Y-37299834D01*
X38064339Y-37322361D01*
X38086866Y-37349810D01*
X38103607Y-37381131D01*
X38113915Y-37415109D01*
X38118000Y-37456590D01*
X38118000Y-38057810D01*
X38113915Y-38099291D01*
X38103607Y-38133269D01*
X38086866Y-38164590D01*
X38064339Y-38192039D01*
X38036890Y-38214566D01*
X38005569Y-38231307D01*
X37971591Y-38241615D01*
X37930110Y-38245700D01*
X37253890Y-38245700D01*
X37212409Y-38241615D01*
X37178431Y-38231307D01*
X37147110Y-38214566D01*
X37119661Y-38192039D01*
X37097134Y-38164590D01*
X37080393Y-38133269D01*
X37070085Y-38099291D01*
X37066000Y-38057810D01*
X37066000Y-37456590D01*
X37070085Y-37415109D01*
X37080393Y-37381131D01*
X37097134Y-37349810D01*
X37119661Y-37322361D01*
X37147110Y-37299834D01*
X37178431Y-37283093D01*
X37212409Y-37272785D01*
X37253890Y-37268700D01*
X37930110Y-37268700D01*
X37971591Y-37272785D01*
G37*
G36*
X28319591Y-37272785D02*
G01*
X28353569Y-37283093D01*
X28384890Y-37299834D01*
X28412339Y-37322361D01*
X28434866Y-37349810D01*
X28451607Y-37381131D01*
X28461915Y-37415109D01*
X28466000Y-37456590D01*
X28466000Y-38057810D01*
X28461915Y-38099291D01*
X28451607Y-38133269D01*
X28434866Y-38164590D01*
X28412339Y-38192039D01*
X28384890Y-38214566D01*
X28353569Y-38231307D01*
X28319591Y-38241615D01*
X28278110Y-38245700D01*
X27601890Y-38245700D01*
X27560409Y-38241615D01*
X27526431Y-38231307D01*
X27495110Y-38214566D01*
X27467661Y-38192039D01*
X27445134Y-38164590D01*
X27428393Y-38133269D01*
X27418085Y-38099291D01*
X27414000Y-38057810D01*
X27414000Y-37456590D01*
X27418085Y-37415109D01*
X27428393Y-37381131D01*
X27445134Y-37349810D01*
X27467661Y-37322361D01*
X27495110Y-37299834D01*
X27526431Y-37283093D01*
X27560409Y-37272785D01*
X27601890Y-37268700D01*
X28278110Y-37268700D01*
X28319591Y-37272785D01*
G37*
G36*
X29843591Y-37272785D02*
G01*
X29877569Y-37283093D01*
X29908890Y-37299834D01*
X29936339Y-37322361D01*
X29958866Y-37349810D01*
X29975607Y-37381131D01*
X29985915Y-37415109D01*
X29990000Y-37456590D01*
X29990000Y-38057810D01*
X29985915Y-38099291D01*
X29975607Y-38133269D01*
X29958866Y-38164590D01*
X29936339Y-38192039D01*
X29908890Y-38214566D01*
X29877569Y-38231307D01*
X29843591Y-38241615D01*
X29802110Y-38245700D01*
X29125890Y-38245700D01*
X29084409Y-38241615D01*
X29050431Y-38231307D01*
X29019110Y-38214566D01*
X28991661Y-38192039D01*
X28969134Y-38164590D01*
X28952393Y-38133269D01*
X28942085Y-38099291D01*
X28938000Y-38057810D01*
X28938000Y-37456590D01*
X28942085Y-37415109D01*
X28952393Y-37381131D01*
X28969134Y-37349810D01*
X28991661Y-37322361D01*
X29019110Y-37299834D01*
X29050431Y-37283093D01*
X29084409Y-37272785D01*
X29125890Y-37268700D01*
X29802110Y-37268700D01*
X29843591Y-37272785D01*
G37*
G36*
X32637591Y-37272785D02*
G01*
X32671569Y-37283093D01*
X32702890Y-37299834D01*
X32730339Y-37322361D01*
X32752866Y-37349810D01*
X32769607Y-37381131D01*
X32779915Y-37415109D01*
X32784000Y-37456590D01*
X32784000Y-38057810D01*
X32779915Y-38099291D01*
X32769607Y-38133269D01*
X32752866Y-38164590D01*
X32730339Y-38192039D01*
X32702890Y-38214566D01*
X32671569Y-38231307D01*
X32637591Y-38241615D01*
X32596110Y-38245700D01*
X31919890Y-38245700D01*
X31878409Y-38241615D01*
X31844431Y-38231307D01*
X31813110Y-38214566D01*
X31785661Y-38192039D01*
X31763134Y-38164590D01*
X31746393Y-38133269D01*
X31736085Y-38099291D01*
X31732000Y-38057810D01*
X31732000Y-37456590D01*
X31736085Y-37415109D01*
X31746393Y-37381131D01*
X31763134Y-37349810D01*
X31785661Y-37322361D01*
X31813110Y-37299834D01*
X31844431Y-37283093D01*
X31878409Y-37272785D01*
X31919890Y-37268700D01*
X32596110Y-37268700D01*
X32637591Y-37272785D01*
G37*
G36*
X35177591Y-37272785D02*
G01*
X35211569Y-37283093D01*
X35242890Y-37299834D01*
X35270339Y-37322361D01*
X35292866Y-37349810D01*
X35309607Y-37381131D01*
X35319915Y-37415109D01*
X35324000Y-37456590D01*
X35324000Y-38057810D01*
X35319915Y-38099291D01*
X35309607Y-38133269D01*
X35292866Y-38164590D01*
X35270339Y-38192039D01*
X35242890Y-38214566D01*
X35211569Y-38231307D01*
X35177591Y-38241615D01*
X35136110Y-38245700D01*
X34459890Y-38245700D01*
X34418409Y-38241615D01*
X34384431Y-38231307D01*
X34353110Y-38214566D01*
X34325661Y-38192039D01*
X34303134Y-38164590D01*
X34286393Y-38133269D01*
X34276085Y-38099291D01*
X34272000Y-38057810D01*
X34272000Y-37456590D01*
X34276085Y-37415109D01*
X34286393Y-37381131D01*
X34303134Y-37349810D01*
X34325661Y-37322361D01*
X34353110Y-37299834D01*
X34384431Y-37283093D01*
X34418409Y-37272785D01*
X34459890Y-37268700D01*
X35136110Y-37268700D01*
X35177591Y-37272785D01*
G37*
G36*
X39495591Y-37272785D02*
G01*
X39529569Y-37283093D01*
X39560890Y-37299834D01*
X39588339Y-37322361D01*
X39610866Y-37349810D01*
X39627607Y-37381131D01*
X39637915Y-37415109D01*
X39642000Y-37456590D01*
X39642000Y-38057810D01*
X39637915Y-38099291D01*
X39627607Y-38133269D01*
X39610866Y-38164590D01*
X39588339Y-38192039D01*
X39560890Y-38214566D01*
X39529569Y-38231307D01*
X39495591Y-38241615D01*
X39454110Y-38245700D01*
X38777890Y-38245700D01*
X38736409Y-38241615D01*
X38702431Y-38231307D01*
X38671110Y-38214566D01*
X38643661Y-38192039D01*
X38621134Y-38164590D01*
X38604393Y-38133269D01*
X38594085Y-38099291D01*
X38590000Y-38057810D01*
X38590000Y-37456590D01*
X38594085Y-37415109D01*
X38604393Y-37381131D01*
X38621134Y-37349810D01*
X38643661Y-37322361D01*
X38671110Y-37299834D01*
X38702431Y-37283093D01*
X38736409Y-37272785D01*
X38777890Y-37268700D01*
X39454110Y-37268700D01*
X39495591Y-37272785D01*
G37*
G36*
X42543591Y-37272785D02*
G01*
X42577569Y-37283093D01*
X42608890Y-37299834D01*
X42636339Y-37322361D01*
X42658866Y-37349810D01*
X42675607Y-37381131D01*
X42685915Y-37415109D01*
X42690000Y-37456590D01*
X42690000Y-38057810D01*
X42685915Y-38099291D01*
X42675607Y-38133269D01*
X42658866Y-38164590D01*
X42636339Y-38192039D01*
X42608890Y-38214566D01*
X42577569Y-38231307D01*
X42543591Y-38241615D01*
X42502110Y-38245700D01*
X41825890Y-38245700D01*
X41784409Y-38241615D01*
X41750431Y-38231307D01*
X41719110Y-38214566D01*
X41691661Y-38192039D01*
X41669134Y-38164590D01*
X41652393Y-38133269D01*
X41642085Y-38099291D01*
X41638000Y-38057810D01*
X41638000Y-37456590D01*
X41642085Y-37415109D01*
X41652393Y-37381131D01*
X41669134Y-37349810D01*
X41691661Y-37322361D01*
X41719110Y-37299834D01*
X41750431Y-37283093D01*
X41784409Y-37272785D01*
X41825890Y-37268700D01*
X42502110Y-37268700D01*
X42543591Y-37272785D01*
G37*
G36*
X25779591Y-37272785D02*
G01*
X25813569Y-37283093D01*
X25844890Y-37299834D01*
X25872339Y-37322361D01*
X25894866Y-37349810D01*
X25911607Y-37381131D01*
X25921915Y-37415109D01*
X25926000Y-37456590D01*
X25926000Y-38057810D01*
X25921915Y-38099291D01*
X25911607Y-38133269D01*
X25894866Y-38164590D01*
X25872339Y-38192039D01*
X25844890Y-38214566D01*
X25813569Y-38231307D01*
X25779591Y-38241615D01*
X25738110Y-38245700D01*
X25061890Y-38245700D01*
X25020409Y-38241615D01*
X24986431Y-38231307D01*
X24955110Y-38214566D01*
X24927661Y-38192039D01*
X24905134Y-38164590D01*
X24888393Y-38133269D01*
X24878085Y-38099291D01*
X24874000Y-38057810D01*
X24874000Y-37456590D01*
X24878085Y-37415109D01*
X24888393Y-37381131D01*
X24905134Y-37349810D01*
X24927661Y-37322361D01*
X24955110Y-37299834D01*
X24986431Y-37283093D01*
X25020409Y-37272785D01*
X25061890Y-37268700D01*
X25738110Y-37268700D01*
X25779591Y-37272785D01*
G37*
G36*
X123823591Y-37183785D02*
G01*
X123857569Y-37194093D01*
X123888890Y-37210834D01*
X123916339Y-37233361D01*
X123938866Y-37260810D01*
X123955607Y-37292131D01*
X123965915Y-37326109D01*
X123970000Y-37367590D01*
X123970000Y-37968810D01*
X123965915Y-38010291D01*
X123955607Y-38044269D01*
X123938866Y-38075590D01*
X123916339Y-38103039D01*
X123888890Y-38125566D01*
X123857569Y-38142307D01*
X123823591Y-38152615D01*
X123782110Y-38156700D01*
X123105890Y-38156700D01*
X123064409Y-38152615D01*
X123030431Y-38142307D01*
X122999110Y-38125566D01*
X122971661Y-38103039D01*
X122949134Y-38075590D01*
X122932393Y-38044269D01*
X122922085Y-38010291D01*
X122918000Y-37968810D01*
X122918000Y-37367590D01*
X122922085Y-37326109D01*
X122932393Y-37292131D01*
X122949134Y-37260810D01*
X122971661Y-37233361D01*
X122999110Y-37210834D01*
X123030431Y-37194093D01*
X123064409Y-37183785D01*
X123105890Y-37179700D01*
X123782110Y-37179700D01*
X123823591Y-37183785D01*
G37*
G36*
X70864591Y-36828285D02*
G01*
X70898569Y-36838593D01*
X70929890Y-36855334D01*
X70957339Y-36877861D01*
X70979866Y-36905310D01*
X70996607Y-36936631D01*
X71006915Y-36970609D01*
X71011000Y-37012090D01*
X71011000Y-37613310D01*
X71006915Y-37654791D01*
X70996607Y-37688769D01*
X70979866Y-37720090D01*
X70957339Y-37747539D01*
X70929890Y-37770066D01*
X70898569Y-37786807D01*
X70864591Y-37797115D01*
X70823110Y-37801200D01*
X70146890Y-37801200D01*
X70105409Y-37797115D01*
X70071431Y-37786807D01*
X70040110Y-37770066D01*
X70012661Y-37747539D01*
X69990134Y-37720090D01*
X69973393Y-37688769D01*
X69963085Y-37654791D01*
X69959000Y-37613310D01*
X69959000Y-37012090D01*
X69963085Y-36970609D01*
X69973393Y-36936631D01*
X69990134Y-36905310D01*
X70012661Y-36877861D01*
X70040110Y-36855334D01*
X70071431Y-36838593D01*
X70105409Y-36828285D01*
X70146890Y-36824200D01*
X70823110Y-36824200D01*
X70864591Y-36828285D01*
G37*
G36*
X127125591Y-36015285D02*
G01*
X127159569Y-36025593D01*
X127190890Y-36042334D01*
X127218339Y-36064861D01*
X127240866Y-36092310D01*
X127257607Y-36123631D01*
X127267915Y-36157609D01*
X127272000Y-36199090D01*
X127272000Y-36800310D01*
X127267915Y-36841791D01*
X127257607Y-36875769D01*
X127240866Y-36907090D01*
X127218339Y-36934539D01*
X127190890Y-36957066D01*
X127159569Y-36973807D01*
X127125591Y-36984115D01*
X127084110Y-36988200D01*
X126407890Y-36988200D01*
X126366409Y-36984115D01*
X126332431Y-36973807D01*
X126301110Y-36957066D01*
X126273661Y-36934539D01*
X126251134Y-36907090D01*
X126234393Y-36875769D01*
X126224085Y-36841791D01*
X126220000Y-36800310D01*
X126220000Y-36199090D01*
X126224085Y-36157609D01*
X126234393Y-36123631D01*
X126251134Y-36092310D01*
X126273661Y-36064861D01*
X126301110Y-36042334D01*
X126332431Y-36025593D01*
X126366409Y-36015285D01*
X126407890Y-36011200D01*
X127084110Y-36011200D01*
X127125591Y-36015285D01*
G37*
G36*
X103757591Y-36015285D02*
G01*
X103791569Y-36025593D01*
X103822890Y-36042334D01*
X103850339Y-36064861D01*
X103872866Y-36092310D01*
X103889607Y-36123631D01*
X103899915Y-36157609D01*
X103904000Y-36199090D01*
X103904000Y-36800310D01*
X103899915Y-36841791D01*
X103889607Y-36875769D01*
X103872866Y-36907090D01*
X103850339Y-36934539D01*
X103822890Y-36957066D01*
X103791569Y-36973807D01*
X103757591Y-36984115D01*
X103716110Y-36988200D01*
X103039890Y-36988200D01*
X102998409Y-36984115D01*
X102964431Y-36973807D01*
X102933110Y-36957066D01*
X102905661Y-36934539D01*
X102883134Y-36907090D01*
X102866393Y-36875769D01*
X102856085Y-36841791D01*
X102852000Y-36800310D01*
X102852000Y-36199090D01*
X102856085Y-36157609D01*
X102866393Y-36123631D01*
X102883134Y-36092310D01*
X102905661Y-36064861D01*
X102933110Y-36042334D01*
X102964431Y-36025593D01*
X102998409Y-36015285D01*
X103039890Y-36011200D01*
X103716110Y-36011200D01*
X103757591Y-36015285D01*
G37*
G36*
X110107591Y-35761285D02*
G01*
X110141569Y-35771593D01*
X110172890Y-35788334D01*
X110200339Y-35810861D01*
X110222866Y-35838310D01*
X110239607Y-35869631D01*
X110249915Y-35903609D01*
X110254000Y-35945090D01*
X110254000Y-36546310D01*
X110249915Y-36587791D01*
X110239607Y-36621769D01*
X110222866Y-36653090D01*
X110200339Y-36680539D01*
X110172890Y-36703066D01*
X110141569Y-36719807D01*
X110107591Y-36730115D01*
X110066110Y-36734200D01*
X109389890Y-36734200D01*
X109348409Y-36730115D01*
X109314431Y-36719807D01*
X109283110Y-36703066D01*
X109255661Y-36680539D01*
X109233134Y-36653090D01*
X109216393Y-36621769D01*
X109206085Y-36587791D01*
X109202000Y-36546310D01*
X109202000Y-35945090D01*
X109206085Y-35903609D01*
X109216393Y-35869631D01*
X109233134Y-35838310D01*
X109255661Y-35810861D01*
X109283110Y-35788334D01*
X109314431Y-35771593D01*
X109348409Y-35761285D01*
X109389890Y-35757200D01*
X110066110Y-35757200D01*
X110107591Y-35761285D01*
G37*
G36*
X111631591Y-35761285D02*
G01*
X111665569Y-35771593D01*
X111696890Y-35788334D01*
X111724339Y-35810861D01*
X111746866Y-35838310D01*
X111763607Y-35869631D01*
X111773915Y-35903609D01*
X111778000Y-35945090D01*
X111778000Y-36546310D01*
X111773915Y-36587791D01*
X111763607Y-36621769D01*
X111746866Y-36653090D01*
X111724339Y-36680539D01*
X111696890Y-36703066D01*
X111665569Y-36719807D01*
X111631591Y-36730115D01*
X111590110Y-36734200D01*
X110913890Y-36734200D01*
X110872409Y-36730115D01*
X110838431Y-36719807D01*
X110807110Y-36703066D01*
X110779661Y-36680539D01*
X110757134Y-36653090D01*
X110740393Y-36621769D01*
X110730085Y-36587791D01*
X110726000Y-36546310D01*
X110726000Y-35945090D01*
X110730085Y-35903609D01*
X110740393Y-35869631D01*
X110757134Y-35838310D01*
X110779661Y-35810861D01*
X110807110Y-35788334D01*
X110838431Y-35771593D01*
X110872409Y-35761285D01*
X110913890Y-35757200D01*
X111590110Y-35757200D01*
X111631591Y-35761285D01*
G37*
G36*
X119632591Y-35761285D02*
G01*
X119666569Y-35771593D01*
X119697890Y-35788334D01*
X119725339Y-35810861D01*
X119747866Y-35838310D01*
X119764607Y-35869631D01*
X119774915Y-35903609D01*
X119779000Y-35945090D01*
X119779000Y-36546310D01*
X119774915Y-36587791D01*
X119764607Y-36621769D01*
X119747866Y-36653090D01*
X119725339Y-36680539D01*
X119697890Y-36703066D01*
X119666569Y-36719807D01*
X119632591Y-36730115D01*
X119591110Y-36734200D01*
X118914890Y-36734200D01*
X118873409Y-36730115D01*
X118839431Y-36719807D01*
X118808110Y-36703066D01*
X118780661Y-36680539D01*
X118758134Y-36653090D01*
X118741393Y-36621769D01*
X118731085Y-36587791D01*
X118727000Y-36546310D01*
X118727000Y-35945090D01*
X118731085Y-35903609D01*
X118741393Y-35869631D01*
X118758134Y-35838310D01*
X118780661Y-35810861D01*
X118808110Y-35788334D01*
X118839431Y-35771593D01*
X118873409Y-35761285D01*
X118914890Y-35757200D01*
X119591110Y-35757200D01*
X119632591Y-35761285D01*
G37*
G36*
X121156591Y-35761285D02*
G01*
X121190569Y-35771593D01*
X121221890Y-35788334D01*
X121249339Y-35810861D01*
X121271866Y-35838310D01*
X121288607Y-35869631D01*
X121298915Y-35903609D01*
X121303000Y-35945090D01*
X121303000Y-36546310D01*
X121298915Y-36587791D01*
X121288607Y-36621769D01*
X121271866Y-36653090D01*
X121249339Y-36680539D01*
X121221890Y-36703066D01*
X121190569Y-36719807D01*
X121156591Y-36730115D01*
X121115110Y-36734200D01*
X120438890Y-36734200D01*
X120397409Y-36730115D01*
X120363431Y-36719807D01*
X120332110Y-36703066D01*
X120304661Y-36680539D01*
X120282134Y-36653090D01*
X120265393Y-36621769D01*
X120255085Y-36587791D01*
X120251000Y-36546310D01*
X120251000Y-35945090D01*
X120255085Y-35903609D01*
X120265393Y-35869631D01*
X120282134Y-35838310D01*
X120304661Y-35810861D01*
X120332110Y-35788334D01*
X120363431Y-35771593D01*
X120397409Y-35761285D01*
X120438890Y-35757200D01*
X121115110Y-35757200D01*
X121156591Y-35761285D01*
G37*
G36*
X107313591Y-35761285D02*
G01*
X107347569Y-35771593D01*
X107378890Y-35788334D01*
X107406339Y-35810861D01*
X107428866Y-35838310D01*
X107445607Y-35869631D01*
X107455915Y-35903609D01*
X107460000Y-35945090D01*
X107460000Y-36546310D01*
X107455915Y-36587791D01*
X107445607Y-36621769D01*
X107428866Y-36653090D01*
X107406339Y-36680539D01*
X107378890Y-36703066D01*
X107347569Y-36719807D01*
X107313591Y-36730115D01*
X107272110Y-36734200D01*
X106595890Y-36734200D01*
X106554409Y-36730115D01*
X106520431Y-36719807D01*
X106489110Y-36703066D01*
X106461661Y-36680539D01*
X106439134Y-36653090D01*
X106422393Y-36621769D01*
X106412085Y-36587791D01*
X106408000Y-36546310D01*
X106408000Y-35945090D01*
X106412085Y-35903609D01*
X106422393Y-35869631D01*
X106439134Y-35838310D01*
X106461661Y-35810861D01*
X106489110Y-35788334D01*
X106520431Y-35771593D01*
X106554409Y-35761285D01*
X106595890Y-35757200D01*
X107272110Y-35757200D01*
X107313591Y-35761285D01*
G37*
G36*
X116711591Y-35735785D02*
G01*
X116745569Y-35746093D01*
X116776890Y-35762834D01*
X116804339Y-35785361D01*
X116826866Y-35812810D01*
X116843607Y-35844131D01*
X116853915Y-35878109D01*
X116858000Y-35919590D01*
X116858000Y-36520810D01*
X116853915Y-36562291D01*
X116843607Y-36596269D01*
X116826866Y-36627590D01*
X116804339Y-36655039D01*
X116776890Y-36677566D01*
X116745569Y-36694307D01*
X116711591Y-36704615D01*
X116670110Y-36708700D01*
X115993890Y-36708700D01*
X115952409Y-36704615D01*
X115918431Y-36694307D01*
X115887110Y-36677566D01*
X115859661Y-36655039D01*
X115837134Y-36627590D01*
X115820393Y-36596269D01*
X115810085Y-36562291D01*
X115806000Y-36520810D01*
X115806000Y-35919590D01*
X115810085Y-35878109D01*
X115820393Y-35844131D01*
X115837134Y-35812810D01*
X115859661Y-35785361D01*
X115887110Y-35762834D01*
X115918431Y-35746093D01*
X115952409Y-35735785D01*
X115993890Y-35731700D01*
X116670110Y-35731700D01*
X116711591Y-35735785D01*
G37*
G36*
X22477591Y-35735785D02*
G01*
X22511569Y-35746093D01*
X22542890Y-35762834D01*
X22570339Y-35785361D01*
X22592866Y-35812810D01*
X22609607Y-35844131D01*
X22619915Y-35878109D01*
X22624000Y-35919590D01*
X22624000Y-36520810D01*
X22619915Y-36562291D01*
X22609607Y-36596269D01*
X22592866Y-36627590D01*
X22570339Y-36655039D01*
X22542890Y-36677566D01*
X22511569Y-36694307D01*
X22477591Y-36704615D01*
X22436110Y-36708700D01*
X21759890Y-36708700D01*
X21718409Y-36704615D01*
X21684431Y-36694307D01*
X21653110Y-36677566D01*
X21625661Y-36655039D01*
X21603134Y-36627590D01*
X21586393Y-36596269D01*
X21576085Y-36562291D01*
X21572000Y-36520810D01*
X21572000Y-35919590D01*
X21576085Y-35878109D01*
X21586393Y-35844131D01*
X21603134Y-35812810D01*
X21625661Y-35785361D01*
X21653110Y-35762834D01*
X21684431Y-35746093D01*
X21718409Y-35735785D01*
X21759890Y-35731700D01*
X22436110Y-35731700D01*
X22477591Y-35735785D01*
G37*
G36*
X114171591Y-35735785D02*
G01*
X114205569Y-35746093D01*
X114236890Y-35762834D01*
X114264339Y-35785361D01*
X114286866Y-35812810D01*
X114303607Y-35844131D01*
X114313915Y-35878109D01*
X114318000Y-35919590D01*
X114318000Y-36520810D01*
X114313915Y-36562291D01*
X114303607Y-36596269D01*
X114286866Y-36627590D01*
X114264339Y-36655039D01*
X114236890Y-36677566D01*
X114205569Y-36694307D01*
X114171591Y-36704615D01*
X114130110Y-36708700D01*
X113453890Y-36708700D01*
X113412409Y-36704615D01*
X113378431Y-36694307D01*
X113347110Y-36677566D01*
X113319661Y-36655039D01*
X113297134Y-36627590D01*
X113280393Y-36596269D01*
X113270085Y-36562291D01*
X113266000Y-36520810D01*
X113266000Y-35919590D01*
X113270085Y-35878109D01*
X113280393Y-35844131D01*
X113297134Y-35812810D01*
X113319661Y-35785361D01*
X113347110Y-35762834D01*
X113378431Y-35746093D01*
X113412409Y-35735785D01*
X113453890Y-35731700D01*
X114130110Y-35731700D01*
X114171591Y-35735785D01*
G37*
G36*
X46353591Y-35735785D02*
G01*
X46387569Y-35746093D01*
X46418890Y-35762834D01*
X46446339Y-35785361D01*
X46468866Y-35812810D01*
X46485607Y-35844131D01*
X46495915Y-35878109D01*
X46500000Y-35919590D01*
X46500000Y-36520810D01*
X46495915Y-36562291D01*
X46485607Y-36596269D01*
X46468866Y-36627590D01*
X46446339Y-36655039D01*
X46418890Y-36677566D01*
X46387569Y-36694307D01*
X46353591Y-36704615D01*
X46312110Y-36708700D01*
X45635890Y-36708700D01*
X45594409Y-36704615D01*
X45560431Y-36694307D01*
X45529110Y-36677566D01*
X45501661Y-36655039D01*
X45479134Y-36627590D01*
X45462393Y-36596269D01*
X45452085Y-36562291D01*
X45448000Y-36520810D01*
X45448000Y-35919590D01*
X45452085Y-35878109D01*
X45462393Y-35844131D01*
X45479134Y-35812810D01*
X45501661Y-35785361D01*
X45529110Y-35762834D01*
X45560431Y-35746093D01*
X45594409Y-35735785D01*
X45635890Y-35731700D01*
X46312110Y-35731700D01*
X46353591Y-35735785D01*
G37*
G36*
X25779591Y-35697785D02*
G01*
X25813569Y-35708093D01*
X25844890Y-35724834D01*
X25872339Y-35747361D01*
X25894866Y-35774810D01*
X25911607Y-35806131D01*
X25921915Y-35840109D01*
X25926000Y-35881590D01*
X25926000Y-36482810D01*
X25921915Y-36524291D01*
X25911607Y-36558269D01*
X25894866Y-36589590D01*
X25872339Y-36617039D01*
X25844890Y-36639566D01*
X25813569Y-36656307D01*
X25779591Y-36666615D01*
X25738110Y-36670700D01*
X25061890Y-36670700D01*
X25020409Y-36666615D01*
X24986431Y-36656307D01*
X24955110Y-36639566D01*
X24927661Y-36617039D01*
X24905134Y-36589590D01*
X24888393Y-36558269D01*
X24878085Y-36524291D01*
X24874000Y-36482810D01*
X24874000Y-35881590D01*
X24878085Y-35840109D01*
X24888393Y-35806131D01*
X24905134Y-35774810D01*
X24927661Y-35747361D01*
X24955110Y-35724834D01*
X24986431Y-35708093D01*
X25020409Y-35697785D01*
X25061890Y-35693700D01*
X25738110Y-35693700D01*
X25779591Y-35697785D01*
G37*
G36*
X37971591Y-35697785D02*
G01*
X38005569Y-35708093D01*
X38036890Y-35724834D01*
X38064339Y-35747361D01*
X38086866Y-35774810D01*
X38103607Y-35806131D01*
X38113915Y-35840109D01*
X38118000Y-35881590D01*
X38118000Y-36482810D01*
X38113915Y-36524291D01*
X38103607Y-36558269D01*
X38086866Y-36589590D01*
X38064339Y-36617039D01*
X38036890Y-36639566D01*
X38005569Y-36656307D01*
X37971591Y-36666615D01*
X37930110Y-36670700D01*
X37253890Y-36670700D01*
X37212409Y-36666615D01*
X37178431Y-36656307D01*
X37147110Y-36639566D01*
X37119661Y-36617039D01*
X37097134Y-36589590D01*
X37080393Y-36558269D01*
X37070085Y-36524291D01*
X37066000Y-36482810D01*
X37066000Y-35881590D01*
X37070085Y-35840109D01*
X37080393Y-35806131D01*
X37097134Y-35774810D01*
X37119661Y-35747361D01*
X37147110Y-35724834D01*
X37178431Y-35708093D01*
X37212409Y-35697785D01*
X37253890Y-35693700D01*
X37930110Y-35693700D01*
X37971591Y-35697785D01*
G37*
G36*
X42543591Y-35697785D02*
G01*
X42577569Y-35708093D01*
X42608890Y-35724834D01*
X42636339Y-35747361D01*
X42658866Y-35774810D01*
X42675607Y-35806131D01*
X42685915Y-35840109D01*
X42690000Y-35881590D01*
X42690000Y-36482810D01*
X42685915Y-36524291D01*
X42675607Y-36558269D01*
X42658866Y-36589590D01*
X42636339Y-36617039D01*
X42608890Y-36639566D01*
X42577569Y-36656307D01*
X42543591Y-36666615D01*
X42502110Y-36670700D01*
X41825890Y-36670700D01*
X41784409Y-36666615D01*
X41750431Y-36656307D01*
X41719110Y-36639566D01*
X41691661Y-36617039D01*
X41669134Y-36589590D01*
X41652393Y-36558269D01*
X41642085Y-36524291D01*
X41638000Y-36482810D01*
X41638000Y-35881590D01*
X41642085Y-35840109D01*
X41652393Y-35806131D01*
X41669134Y-35774810D01*
X41691661Y-35747361D01*
X41719110Y-35724834D01*
X41750431Y-35708093D01*
X41784409Y-35697785D01*
X41825890Y-35693700D01*
X42502110Y-35693700D01*
X42543591Y-35697785D01*
G37*
G36*
X39495591Y-35697785D02*
G01*
X39529569Y-35708093D01*
X39560890Y-35724834D01*
X39588339Y-35747361D01*
X39610866Y-35774810D01*
X39627607Y-35806131D01*
X39637915Y-35840109D01*
X39642000Y-35881590D01*
X39642000Y-36482810D01*
X39637915Y-36524291D01*
X39627607Y-36558269D01*
X39610866Y-36589590D01*
X39588339Y-36617039D01*
X39560890Y-36639566D01*
X39529569Y-36656307D01*
X39495591Y-36666615D01*
X39454110Y-36670700D01*
X38777890Y-36670700D01*
X38736409Y-36666615D01*
X38702431Y-36656307D01*
X38671110Y-36639566D01*
X38643661Y-36617039D01*
X38621134Y-36589590D01*
X38604393Y-36558269D01*
X38594085Y-36524291D01*
X38590000Y-36482810D01*
X38590000Y-35881590D01*
X38594085Y-35840109D01*
X38604393Y-35806131D01*
X38621134Y-35774810D01*
X38643661Y-35747361D01*
X38671110Y-35724834D01*
X38702431Y-35708093D01*
X38736409Y-35697785D01*
X38777890Y-35693700D01*
X39454110Y-35693700D01*
X39495591Y-35697785D01*
G37*
G36*
X35177591Y-35697785D02*
G01*
X35211569Y-35708093D01*
X35242890Y-35724834D01*
X35270339Y-35747361D01*
X35292866Y-35774810D01*
X35309607Y-35806131D01*
X35319915Y-35840109D01*
X35324000Y-35881590D01*
X35324000Y-36482810D01*
X35319915Y-36524291D01*
X35309607Y-36558269D01*
X35292866Y-36589590D01*
X35270339Y-36617039D01*
X35242890Y-36639566D01*
X35211569Y-36656307D01*
X35177591Y-36666615D01*
X35136110Y-36670700D01*
X34459890Y-36670700D01*
X34418409Y-36666615D01*
X34384431Y-36656307D01*
X34353110Y-36639566D01*
X34325661Y-36617039D01*
X34303134Y-36589590D01*
X34286393Y-36558269D01*
X34276085Y-36524291D01*
X34272000Y-36482810D01*
X34272000Y-35881590D01*
X34276085Y-35840109D01*
X34286393Y-35806131D01*
X34303134Y-35774810D01*
X34325661Y-35747361D01*
X34353110Y-35724834D01*
X34384431Y-35708093D01*
X34418409Y-35697785D01*
X34459890Y-35693700D01*
X35136110Y-35693700D01*
X35177591Y-35697785D01*
G37*
G36*
X29843591Y-35697785D02*
G01*
X29877569Y-35708093D01*
X29908890Y-35724834D01*
X29936339Y-35747361D01*
X29958866Y-35774810D01*
X29975607Y-35806131D01*
X29985915Y-35840109D01*
X29990000Y-35881590D01*
X29990000Y-36482810D01*
X29985915Y-36524291D01*
X29975607Y-36558269D01*
X29958866Y-36589590D01*
X29936339Y-36617039D01*
X29908890Y-36639566D01*
X29877569Y-36656307D01*
X29843591Y-36666615D01*
X29802110Y-36670700D01*
X29125890Y-36670700D01*
X29084409Y-36666615D01*
X29050431Y-36656307D01*
X29019110Y-36639566D01*
X28991661Y-36617039D01*
X28969134Y-36589590D01*
X28952393Y-36558269D01*
X28942085Y-36524291D01*
X28938000Y-36482810D01*
X28938000Y-35881590D01*
X28942085Y-35840109D01*
X28952393Y-35806131D01*
X28969134Y-35774810D01*
X28991661Y-35747361D01*
X29019110Y-35724834D01*
X29050431Y-35708093D01*
X29084409Y-35697785D01*
X29125890Y-35693700D01*
X29802110Y-35693700D01*
X29843591Y-35697785D01*
G37*
G36*
X28319591Y-35697785D02*
G01*
X28353569Y-35708093D01*
X28384890Y-35724834D01*
X28412339Y-35747361D01*
X28434866Y-35774810D01*
X28451607Y-35806131D01*
X28461915Y-35840109D01*
X28466000Y-35881590D01*
X28466000Y-36482810D01*
X28461915Y-36524291D01*
X28451607Y-36558269D01*
X28434866Y-36589590D01*
X28412339Y-36617039D01*
X28384890Y-36639566D01*
X28353569Y-36656307D01*
X28319591Y-36666615D01*
X28278110Y-36670700D01*
X27601890Y-36670700D01*
X27560409Y-36666615D01*
X27526431Y-36656307D01*
X27495110Y-36639566D01*
X27467661Y-36617039D01*
X27445134Y-36589590D01*
X27428393Y-36558269D01*
X27418085Y-36524291D01*
X27414000Y-36482810D01*
X27414000Y-35881590D01*
X27418085Y-35840109D01*
X27428393Y-35806131D01*
X27445134Y-35774810D01*
X27467661Y-35747361D01*
X27495110Y-35724834D01*
X27526431Y-35708093D01*
X27560409Y-35697785D01*
X27601890Y-35693700D01*
X28278110Y-35693700D01*
X28319591Y-35697785D01*
G37*
G36*
X32637591Y-35697785D02*
G01*
X32671569Y-35708093D01*
X32702890Y-35724834D01*
X32730339Y-35747361D01*
X32752866Y-35774810D01*
X32769607Y-35806131D01*
X32779915Y-35840109D01*
X32784000Y-35881590D01*
X32784000Y-36482810D01*
X32779915Y-36524291D01*
X32769607Y-36558269D01*
X32752866Y-36589590D01*
X32730339Y-36617039D01*
X32702890Y-36639566D01*
X32671569Y-36656307D01*
X32637591Y-36666615D01*
X32596110Y-36670700D01*
X31919890Y-36670700D01*
X31878409Y-36666615D01*
X31844431Y-36656307D01*
X31813110Y-36639566D01*
X31785661Y-36617039D01*
X31763134Y-36589590D01*
X31746393Y-36558269D01*
X31736085Y-36524291D01*
X31732000Y-36482810D01*
X31732000Y-35881590D01*
X31736085Y-35840109D01*
X31746393Y-35806131D01*
X31763134Y-35774810D01*
X31785661Y-35747361D01*
X31813110Y-35724834D01*
X31844431Y-35708093D01*
X31878409Y-35697785D01*
X31919890Y-35693700D01*
X32596110Y-35693700D01*
X32637591Y-35697785D01*
G37*
G36*
X123823591Y-35608785D02*
G01*
X123857569Y-35619093D01*
X123888890Y-35635834D01*
X123916339Y-35658361D01*
X123938866Y-35685810D01*
X123955607Y-35717131D01*
X123965915Y-35751109D01*
X123970000Y-35792590D01*
X123970000Y-36393810D01*
X123965915Y-36435291D01*
X123955607Y-36469269D01*
X123938866Y-36500590D01*
X123916339Y-36528039D01*
X123888890Y-36550566D01*
X123857569Y-36567307D01*
X123823591Y-36577615D01*
X123782110Y-36581700D01*
X123105890Y-36581700D01*
X123064409Y-36577615D01*
X123030431Y-36567307D01*
X122999110Y-36550566D01*
X122971661Y-36528039D01*
X122949134Y-36500590D01*
X122932393Y-36469269D01*
X122922085Y-36435291D01*
X122918000Y-36393810D01*
X122918000Y-35792590D01*
X122922085Y-35751109D01*
X122932393Y-35717131D01*
X122949134Y-35685810D01*
X122971661Y-35658361D01*
X122999110Y-35635834D01*
X123030431Y-35619093D01*
X123064409Y-35608785D01*
X123105890Y-35604700D01*
X123782110Y-35604700D01*
X123823591Y-35608785D01*
G37*
G36*
X70864591Y-35253285D02*
G01*
X70898569Y-35263593D01*
X70929890Y-35280334D01*
X70957339Y-35302861D01*
X70979866Y-35330310D01*
X70996607Y-35361631D01*
X71006915Y-35395609D01*
X71011000Y-35437090D01*
X71011000Y-36038310D01*
X71006915Y-36079791D01*
X70996607Y-36113769D01*
X70979866Y-36145090D01*
X70957339Y-36172539D01*
X70929890Y-36195066D01*
X70898569Y-36211807D01*
X70864591Y-36222115D01*
X70823110Y-36226200D01*
X70146890Y-36226200D01*
X70105409Y-36222115D01*
X70071431Y-36211807D01*
X70040110Y-36195066D01*
X70012661Y-36172539D01*
X69990134Y-36145090D01*
X69973393Y-36113769D01*
X69963085Y-36079791D01*
X69959000Y-36038310D01*
X69959000Y-35437090D01*
X69963085Y-35395609D01*
X69973393Y-35361631D01*
X69990134Y-35330310D01*
X70012661Y-35302861D01*
X70040110Y-35280334D01*
X70071431Y-35263593D01*
X70105409Y-35253285D01*
X70146890Y-35249200D01*
X70823110Y-35249200D01*
X70864591Y-35253285D01*
G37*
G36*
X45263000Y-34163200D02*
G01*
X42621000Y-34163200D01*
X42621000Y-32791200D01*
X45263000Y-32791200D01*
X45263000Y-34163200D01*
G37*
G36*
X39675000Y-34163200D02*
G01*
X37033000Y-34163200D01*
X37033000Y-32791200D01*
X39675000Y-32791200D01*
X39675000Y-34163200D01*
G37*
G36*
X30531000Y-34163200D02*
G01*
X27889000Y-34163200D01*
X27889000Y-32791200D01*
X30531000Y-32791200D01*
X30531000Y-34163200D01*
G37*
G36*
X24943000Y-34163200D02*
G01*
X22301000Y-34163200D01*
X22301000Y-32791200D01*
X24943000Y-32791200D01*
X24943000Y-34163200D01*
G37*
G36*
X111938000Y-34112400D02*
G01*
X109296000Y-34112400D01*
X109296000Y-32740400D01*
X111938000Y-32740400D01*
X111938000Y-34112400D01*
G37*
G36*
X106286500Y-34099700D02*
G01*
X103644500Y-34099700D01*
X103644500Y-32727700D01*
X106286500Y-32727700D01*
X106286500Y-34099700D01*
G37*
G36*
X120955000Y-34087000D02*
G01*
X118313000Y-34087000D01*
X118313000Y-32715000D01*
X120955000Y-32715000D01*
X120955000Y-34087000D01*
G37*
G36*
X126606500Y-34087000D02*
G01*
X123964500Y-34087000D01*
X123964500Y-32715000D01*
X126606500Y-32715000D01*
X126606500Y-34087000D01*
G37*
G36*
X39675000Y-29591200D02*
G01*
X37033000Y-29591200D01*
X37033000Y-28219200D01*
X39675000Y-28219200D01*
X39675000Y-29591200D01*
G37*
G36*
X45263000Y-29591200D02*
G01*
X42621000Y-29591200D01*
X42621000Y-28219200D01*
X45263000Y-28219200D01*
X45263000Y-29591200D01*
G37*
G36*
X30531000Y-29591200D02*
G01*
X27889000Y-29591200D01*
X27889000Y-28219200D01*
X30531000Y-28219200D01*
X30531000Y-29591200D01*
G37*
G36*
X24943000Y-29591200D02*
G01*
X22301000Y-29591200D01*
X22301000Y-28219200D01*
X24943000Y-28219200D01*
X24943000Y-29591200D01*
G37*
G36*
X111938000Y-29540400D02*
G01*
X109296000Y-29540400D01*
X109296000Y-28168400D01*
X111938000Y-28168400D01*
X111938000Y-29540400D01*
G37*
G36*
X106286500Y-29527700D02*
G01*
X103644500Y-29527700D01*
X103644500Y-28155700D01*
X106286500Y-28155700D01*
X106286500Y-29527700D01*
G37*
G36*
X120955000Y-29515000D02*
G01*
X118313000Y-29515000D01*
X118313000Y-28143000D01*
X120955000Y-28143000D01*
X120955000Y-29515000D01*
G37*
G36*
X126606500Y-29515000D02*
G01*
X123964500Y-29515000D01*
X123964500Y-28143000D01*
X126606500Y-28143000D01*
X126606500Y-29515000D01*
G37*
G36*
X47611591Y-26668785D02*
G01*
X47645569Y-26679093D01*
X47676890Y-26695834D01*
X47704339Y-26718361D01*
X47726866Y-26745810D01*
X47743607Y-26777131D01*
X47753915Y-26811109D01*
X47758000Y-26852590D01*
X47758000Y-27528810D01*
X47753915Y-27570291D01*
X47743607Y-27604269D01*
X47726866Y-27635590D01*
X47704339Y-27663039D01*
X47676890Y-27685566D01*
X47645569Y-27702307D01*
X47611591Y-27712615D01*
X47570110Y-27716700D01*
X46968890Y-27716700D01*
X46927409Y-27712615D01*
X46893431Y-27702307D01*
X46862110Y-27685566D01*
X46834661Y-27663039D01*
X46812134Y-27635590D01*
X46795393Y-27604269D01*
X46785085Y-27570291D01*
X46781000Y-27528810D01*
X46781000Y-26852590D01*
X46785085Y-26811109D01*
X46795393Y-26777131D01*
X46812134Y-26745810D01*
X46834661Y-26718361D01*
X46862110Y-26695834D01*
X46893431Y-26679093D01*
X46927409Y-26668785D01*
X46968890Y-26664700D01*
X47570110Y-26664700D01*
X47611591Y-26668785D01*
G37*
G36*
X46036591Y-26668785D02*
G01*
X46070569Y-26679093D01*
X46101890Y-26695834D01*
X46129339Y-26718361D01*
X46151866Y-26745810D01*
X46168607Y-26777131D01*
X46178915Y-26811109D01*
X46183000Y-26852590D01*
X46183000Y-27528810D01*
X46178915Y-27570291D01*
X46168607Y-27604269D01*
X46151866Y-27635590D01*
X46129339Y-27663039D01*
X46101890Y-27685566D01*
X46070569Y-27702307D01*
X46036591Y-27712615D01*
X45995110Y-27716700D01*
X45393890Y-27716700D01*
X45352409Y-27712615D01*
X45318431Y-27702307D01*
X45287110Y-27685566D01*
X45259661Y-27663039D01*
X45237134Y-27635590D01*
X45220393Y-27604269D01*
X45210085Y-27570291D01*
X45206000Y-27528810D01*
X45206000Y-26852590D01*
X45210085Y-26811109D01*
X45220393Y-26777131D01*
X45237134Y-26745810D01*
X45259661Y-26718361D01*
X45287110Y-26695834D01*
X45318431Y-26679093D01*
X45352409Y-26668785D01*
X45393890Y-26664700D01*
X45995110Y-26664700D01*
X46036591Y-26668785D01*
G37*
G36*
X118223591Y-26605285D02*
G01*
X118257569Y-26615593D01*
X118288890Y-26632334D01*
X118316339Y-26654861D01*
X118338866Y-26682310D01*
X118355607Y-26713631D01*
X118365915Y-26747609D01*
X118370000Y-26789090D01*
X118370000Y-27465310D01*
X118365915Y-27506791D01*
X118355607Y-27540769D01*
X118338866Y-27572090D01*
X118316339Y-27599539D01*
X118288890Y-27622066D01*
X118257569Y-27638807D01*
X118223591Y-27649115D01*
X118182110Y-27653200D01*
X117580890Y-27653200D01*
X117539409Y-27649115D01*
X117505431Y-27638807D01*
X117474110Y-27622066D01*
X117446661Y-27599539D01*
X117424134Y-27572090D01*
X117407393Y-27540769D01*
X117397085Y-27506791D01*
X117393000Y-27465310D01*
X117393000Y-26789090D01*
X117397085Y-26747609D01*
X117407393Y-26713631D01*
X117424134Y-26682310D01*
X117446661Y-26654861D01*
X117474110Y-26632334D01*
X117505431Y-26615593D01*
X117539409Y-26605285D01*
X117580890Y-26601200D01*
X118182110Y-26601200D01*
X118223591Y-26605285D01*
G37*
G36*
X126935591Y-26605285D02*
G01*
X126969569Y-26615593D01*
X127000890Y-26632334D01*
X127028339Y-26654861D01*
X127050866Y-26682310D01*
X127067607Y-26713631D01*
X127077915Y-26747609D01*
X127082000Y-26789090D01*
X127082000Y-27465310D01*
X127077915Y-27506791D01*
X127067607Y-27540769D01*
X127050866Y-27572090D01*
X127028339Y-27599539D01*
X127000890Y-27622066D01*
X126969569Y-27638807D01*
X126935591Y-27649115D01*
X126894110Y-27653200D01*
X126292890Y-27653200D01*
X126251409Y-27649115D01*
X126217431Y-27638807D01*
X126186110Y-27622066D01*
X126158661Y-27599539D01*
X126136134Y-27572090D01*
X126119393Y-27540769D01*
X126109085Y-27506791D01*
X126105000Y-27465310D01*
X126105000Y-26789090D01*
X126109085Y-26747609D01*
X126119393Y-26713631D01*
X126136134Y-26682310D01*
X126158661Y-26654861D01*
X126186110Y-26632334D01*
X126217431Y-26615593D01*
X126251409Y-26605285D01*
X126292890Y-26601200D01*
X126894110Y-26601200D01*
X126935591Y-26605285D01*
G37*
G36*
X116648591Y-26605285D02*
G01*
X116682569Y-26615593D01*
X116713890Y-26632334D01*
X116741339Y-26654861D01*
X116763866Y-26682310D01*
X116780607Y-26713631D01*
X116790915Y-26747609D01*
X116795000Y-26789090D01*
X116795000Y-27465310D01*
X116790915Y-27506791D01*
X116780607Y-27540769D01*
X116763866Y-27572090D01*
X116741339Y-27599539D01*
X116713890Y-27622066D01*
X116682569Y-27638807D01*
X116648591Y-27649115D01*
X116607110Y-27653200D01*
X116005890Y-27653200D01*
X115964409Y-27649115D01*
X115930431Y-27638807D01*
X115899110Y-27622066D01*
X115871661Y-27599539D01*
X115849134Y-27572090D01*
X115832393Y-27540769D01*
X115822085Y-27506791D01*
X115818000Y-27465310D01*
X115818000Y-26789090D01*
X115822085Y-26747609D01*
X115832393Y-26713631D01*
X115849134Y-26682310D01*
X115871661Y-26654861D01*
X115899110Y-26632334D01*
X115930431Y-26615593D01*
X115964409Y-26605285D01*
X116005890Y-26601200D01*
X116607110Y-26601200D01*
X116648591Y-26605285D01*
G37*
G36*
X114159591Y-26605285D02*
G01*
X114193569Y-26615593D01*
X114224890Y-26632334D01*
X114252339Y-26654861D01*
X114274866Y-26682310D01*
X114291607Y-26713631D01*
X114301915Y-26747609D01*
X114306000Y-26789090D01*
X114306000Y-27465310D01*
X114301915Y-27506791D01*
X114291607Y-27540769D01*
X114274866Y-27572090D01*
X114252339Y-27599539D01*
X114224890Y-27622066D01*
X114193569Y-27638807D01*
X114159591Y-27649115D01*
X114118110Y-27653200D01*
X113516890Y-27653200D01*
X113475409Y-27649115D01*
X113441431Y-27638807D01*
X113410110Y-27622066D01*
X113382661Y-27599539D01*
X113360134Y-27572090D01*
X113343393Y-27540769D01*
X113333085Y-27506791D01*
X113329000Y-27465310D01*
X113329000Y-26789090D01*
X113333085Y-26747609D01*
X113343393Y-26713631D01*
X113360134Y-26682310D01*
X113382661Y-26654861D01*
X113410110Y-26632334D01*
X113441431Y-26615593D01*
X113475409Y-26605285D01*
X113516890Y-26601200D01*
X114118110Y-26601200D01*
X114159591Y-26605285D01*
G37*
G36*
X112584591Y-26605285D02*
G01*
X112618569Y-26615593D01*
X112649890Y-26632334D01*
X112677339Y-26654861D01*
X112699866Y-26682310D01*
X112716607Y-26713631D01*
X112726915Y-26747609D01*
X112731000Y-26789090D01*
X112731000Y-27465310D01*
X112726915Y-27506791D01*
X112716607Y-27540769D01*
X112699866Y-27572090D01*
X112677339Y-27599539D01*
X112649890Y-27622066D01*
X112618569Y-27638807D01*
X112584591Y-27649115D01*
X112543110Y-27653200D01*
X111941890Y-27653200D01*
X111900409Y-27649115D01*
X111866431Y-27638807D01*
X111835110Y-27622066D01*
X111807661Y-27599539D01*
X111785134Y-27572090D01*
X111768393Y-27540769D01*
X111758085Y-27506791D01*
X111754000Y-27465310D01*
X111754000Y-26789090D01*
X111758085Y-26747609D01*
X111768393Y-26713631D01*
X111785134Y-26682310D01*
X111807661Y-26654861D01*
X111835110Y-26632334D01*
X111866431Y-26615593D01*
X111900409Y-26605285D01*
X111941890Y-26601200D01*
X112543110Y-26601200D01*
X112584591Y-26605285D01*
G37*
G36*
X104253591Y-26605285D02*
G01*
X104287569Y-26615593D01*
X104318890Y-26632334D01*
X104346339Y-26654861D01*
X104368866Y-26682310D01*
X104385607Y-26713631D01*
X104395915Y-26747609D01*
X104400000Y-26789090D01*
X104400000Y-27465310D01*
X104395915Y-27506791D01*
X104385607Y-27540769D01*
X104368866Y-27572090D01*
X104346339Y-27599539D01*
X104318890Y-27622066D01*
X104287569Y-27638807D01*
X104253591Y-27649115D01*
X104212110Y-27653200D01*
X103610890Y-27653200D01*
X103569409Y-27649115D01*
X103535431Y-27638807D01*
X103504110Y-27622066D01*
X103476661Y-27599539D01*
X103454134Y-27572090D01*
X103437393Y-27540769D01*
X103427085Y-27506791D01*
X103423000Y-27465310D01*
X103423000Y-26789090D01*
X103427085Y-26747609D01*
X103437393Y-26713631D01*
X103454134Y-26682310D01*
X103476661Y-26654861D01*
X103504110Y-26632334D01*
X103535431Y-26615593D01*
X103569409Y-26605285D01*
X103610890Y-26601200D01*
X104212110Y-26601200D01*
X104253591Y-26605285D01*
G37*
G36*
X102678591Y-26605285D02*
G01*
X102712569Y-26615593D01*
X102743890Y-26632334D01*
X102771339Y-26654861D01*
X102793866Y-26682310D01*
X102810607Y-26713631D01*
X102820915Y-26747609D01*
X102825000Y-26789090D01*
X102825000Y-27465310D01*
X102820915Y-27506791D01*
X102810607Y-27540769D01*
X102793866Y-27572090D01*
X102771339Y-27599539D01*
X102743890Y-27622066D01*
X102712569Y-27638807D01*
X102678591Y-27649115D01*
X102637110Y-27653200D01*
X102035890Y-27653200D01*
X101994409Y-27649115D01*
X101960431Y-27638807D01*
X101929110Y-27622066D01*
X101901661Y-27599539D01*
X101879134Y-27572090D01*
X101862393Y-27540769D01*
X101852085Y-27506791D01*
X101848000Y-27465310D01*
X101848000Y-26789090D01*
X101852085Y-26747609D01*
X101862393Y-26713631D01*
X101879134Y-26682310D01*
X101901661Y-26654861D01*
X101929110Y-26632334D01*
X101960431Y-26615593D01*
X101994409Y-26605285D01*
X102035890Y-26601200D01*
X102637110Y-26601200D01*
X102678591Y-26605285D01*
G37*
G36*
X128510591Y-26605285D02*
G01*
X128544569Y-26615593D01*
X128575890Y-26632334D01*
X128603339Y-26654861D01*
X128625866Y-26682310D01*
X128642607Y-26713631D01*
X128652915Y-26747609D01*
X128657000Y-26789090D01*
X128657000Y-27465310D01*
X128652915Y-27506791D01*
X128642607Y-27540769D01*
X128625866Y-27572090D01*
X128603339Y-27599539D01*
X128575890Y-27622066D01*
X128544569Y-27638807D01*
X128510591Y-27649115D01*
X128469110Y-27653200D01*
X127867890Y-27653200D01*
X127826409Y-27649115D01*
X127792431Y-27638807D01*
X127761110Y-27622066D01*
X127733661Y-27599539D01*
X127711134Y-27572090D01*
X127694393Y-27540769D01*
X127684085Y-27506791D01*
X127680000Y-27465310D01*
X127680000Y-26789090D01*
X127684085Y-26747609D01*
X127694393Y-26713631D01*
X127711134Y-26682310D01*
X127733661Y-26654861D01*
X127761110Y-26632334D01*
X127792431Y-26615593D01*
X127826409Y-26605285D01*
X127867890Y-26601200D01*
X128469110Y-26601200D01*
X128510591Y-26605285D01*
G37*
G36*
X20662091Y-26351285D02*
G01*
X20696069Y-26361593D01*
X20727390Y-26378334D01*
X20754839Y-26400861D01*
X20777366Y-26428310D01*
X20794107Y-26459631D01*
X20804415Y-26493609D01*
X20808500Y-26535090D01*
X20808500Y-27211310D01*
X20804415Y-27252791D01*
X20794107Y-27286769D01*
X20777366Y-27318090D01*
X20754839Y-27345539D01*
X20727390Y-27368066D01*
X20696069Y-27384807D01*
X20662091Y-27395115D01*
X20620610Y-27399200D01*
X20019390Y-27399200D01*
X19977909Y-27395115D01*
X19943931Y-27384807D01*
X19912610Y-27368066D01*
X19885161Y-27345539D01*
X19862634Y-27318090D01*
X19845893Y-27286769D01*
X19835585Y-27252791D01*
X19831500Y-27211310D01*
X19831500Y-26535090D01*
X19835585Y-26493609D01*
X19845893Y-26459631D01*
X19862634Y-26428310D01*
X19885161Y-26400861D01*
X19912610Y-26378334D01*
X19943931Y-26361593D01*
X19977909Y-26351285D01*
X20019390Y-26347200D01*
X20620610Y-26347200D01*
X20662091Y-26351285D01*
G37*
G36*
X22237091Y-26351285D02*
G01*
X22271069Y-26361593D01*
X22302390Y-26378334D01*
X22329839Y-26400861D01*
X22352366Y-26428310D01*
X22369107Y-26459631D01*
X22379415Y-26493609D01*
X22383500Y-26535090D01*
X22383500Y-27211310D01*
X22379415Y-27252791D01*
X22369107Y-27286769D01*
X22352366Y-27318090D01*
X22329839Y-27345539D01*
X22302390Y-27368066D01*
X22271069Y-27384807D01*
X22237091Y-27395115D01*
X22195610Y-27399200D01*
X21594390Y-27399200D01*
X21552909Y-27395115D01*
X21518931Y-27384807D01*
X21487610Y-27368066D01*
X21460161Y-27345539D01*
X21437634Y-27318090D01*
X21420893Y-27286769D01*
X21410585Y-27252791D01*
X21406500Y-27211310D01*
X21406500Y-26535090D01*
X21410585Y-26493609D01*
X21420893Y-26459631D01*
X21437634Y-26428310D01*
X21460161Y-26400861D01*
X21487610Y-26378334D01*
X21518931Y-26361593D01*
X21552909Y-26351285D01*
X21594390Y-26347200D01*
X22195610Y-26347200D01*
X22237091Y-26351285D01*
G37*
G36*
X31050591Y-26351285D02*
G01*
X31084569Y-26361593D01*
X31115890Y-26378334D01*
X31143339Y-26400861D01*
X31165866Y-26428310D01*
X31182607Y-26459631D01*
X31192915Y-26493609D01*
X31197000Y-26535090D01*
X31197000Y-27211310D01*
X31192915Y-27252791D01*
X31182607Y-27286769D01*
X31165866Y-27318090D01*
X31143339Y-27345539D01*
X31115890Y-27368066D01*
X31084569Y-27384807D01*
X31050591Y-27395115D01*
X31009110Y-27399200D01*
X30407890Y-27399200D01*
X30366409Y-27395115D01*
X30332431Y-27384807D01*
X30301110Y-27368066D01*
X30273661Y-27345539D01*
X30251134Y-27318090D01*
X30234393Y-27286769D01*
X30224085Y-27252791D01*
X30220000Y-27211310D01*
X30220000Y-26535090D01*
X30224085Y-26493609D01*
X30234393Y-26459631D01*
X30251134Y-26428310D01*
X30273661Y-26400861D01*
X30301110Y-26378334D01*
X30332431Y-26361593D01*
X30366409Y-26351285D01*
X30407890Y-26347200D01*
X31009110Y-26347200D01*
X31050591Y-26351285D01*
G37*
G36*
X32625591Y-26351285D02*
G01*
X32659569Y-26361593D01*
X32690890Y-26378334D01*
X32718339Y-26400861D01*
X32740866Y-26428310D01*
X32757607Y-26459631D01*
X32767915Y-26493609D01*
X32772000Y-26535090D01*
X32772000Y-27211310D01*
X32767915Y-27252791D01*
X32757607Y-27286769D01*
X32740866Y-27318090D01*
X32718339Y-27345539D01*
X32690890Y-27368066D01*
X32659569Y-27384807D01*
X32625591Y-27395115D01*
X32584110Y-27399200D01*
X31982890Y-27399200D01*
X31941409Y-27395115D01*
X31907431Y-27384807D01*
X31876110Y-27368066D01*
X31848661Y-27345539D01*
X31826134Y-27318090D01*
X31809393Y-27286769D01*
X31799085Y-27252791D01*
X31795000Y-27211310D01*
X31795000Y-26535090D01*
X31799085Y-26493609D01*
X31809393Y-26459631D01*
X31826134Y-26428310D01*
X31848661Y-26400861D01*
X31876110Y-26378334D01*
X31907431Y-26361593D01*
X31941409Y-26351285D01*
X31982890Y-26347200D01*
X32584110Y-26347200D01*
X32625591Y-26351285D01*
G37*
G36*
X35622591Y-26351285D02*
G01*
X35656569Y-26361593D01*
X35687890Y-26378334D01*
X35715339Y-26400861D01*
X35737866Y-26428310D01*
X35754607Y-26459631D01*
X35764915Y-26493609D01*
X35769000Y-26535090D01*
X35769000Y-27211310D01*
X35764915Y-27252791D01*
X35754607Y-27286769D01*
X35737866Y-27318090D01*
X35715339Y-27345539D01*
X35687890Y-27368066D01*
X35656569Y-27384807D01*
X35622591Y-27395115D01*
X35581110Y-27399200D01*
X34979890Y-27399200D01*
X34938409Y-27395115D01*
X34904431Y-27384807D01*
X34873110Y-27368066D01*
X34845661Y-27345539D01*
X34823134Y-27318090D01*
X34806393Y-27286769D01*
X34796085Y-27252791D01*
X34792000Y-27211310D01*
X34792000Y-26535090D01*
X34796085Y-26493609D01*
X34806393Y-26459631D01*
X34823134Y-26428310D01*
X34845661Y-26400861D01*
X34873110Y-26378334D01*
X34904431Y-26361593D01*
X34938409Y-26351285D01*
X34979890Y-26347200D01*
X35581110Y-26347200D01*
X35622591Y-26351285D01*
G37*
G36*
X37197591Y-26351285D02*
G01*
X37231569Y-26361593D01*
X37262890Y-26378334D01*
X37290339Y-26400861D01*
X37312866Y-26428310D01*
X37329607Y-26459631D01*
X37339915Y-26493609D01*
X37344000Y-26535090D01*
X37344000Y-27211310D01*
X37339915Y-27252791D01*
X37329607Y-27286769D01*
X37312866Y-27318090D01*
X37290339Y-27345539D01*
X37262890Y-27368066D01*
X37231569Y-27384807D01*
X37197591Y-27395115D01*
X37156110Y-27399200D01*
X36554890Y-27399200D01*
X36513409Y-27395115D01*
X36479431Y-27384807D01*
X36448110Y-27368066D01*
X36420661Y-27345539D01*
X36398134Y-27318090D01*
X36381393Y-27286769D01*
X36371085Y-27252791D01*
X36367000Y-27211310D01*
X36367000Y-26535090D01*
X36371085Y-26493609D01*
X36381393Y-26459631D01*
X36398134Y-26428310D01*
X36420661Y-26400861D01*
X36448110Y-26378334D01*
X36479431Y-26361593D01*
X36513409Y-26351285D01*
X36554890Y-26347200D01*
X37156110Y-26347200D01*
X37197591Y-26351285D01*
G37*
G36*
X56273000Y-26758200D02*
G01*
X54471000Y-26758200D01*
X54471000Y-24956200D01*
X56273000Y-24956200D01*
X56273000Y-26758200D01*
G37*
G36*
X58025512Y-24961127D02*
G01*
X58174812Y-24990824D01*
X58338784Y-25058744D01*
X58486354Y-25157347D01*
X58611853Y-25282846D01*
X58710456Y-25430416D01*
X58778376Y-25594388D01*
X58813000Y-25768459D01*
X58813000Y-25945941D01*
X58778376Y-26120012D01*
X58710456Y-26283984D01*
X58611853Y-26431554D01*
X58486354Y-26557053D01*
X58338784Y-26655656D01*
X58174812Y-26723576D01*
X58032012Y-26751980D01*
X58000742Y-26758200D01*
X57823258Y-26758200D01*
X57791988Y-26751980D01*
X57649188Y-26723576D01*
X57485216Y-26655656D01*
X57337646Y-26557053D01*
X57212147Y-26431554D01*
X57113544Y-26283984D01*
X57045624Y-26120012D01*
X57011000Y-25945941D01*
X57011000Y-25768459D01*
X57045624Y-25594388D01*
X57113544Y-25430416D01*
X57212147Y-25282846D01*
X57337646Y-25157347D01*
X57485216Y-25058744D01*
X57649188Y-24990824D01*
X57798488Y-24961127D01*
X57823258Y-24956200D01*
X58000742Y-24956200D01*
X58025512Y-24961127D01*
G37*
G36*
X74662512Y-24834127D02*
G01*
X74811812Y-24863824D01*
X74975784Y-24931744D01*
X75123354Y-25030347D01*
X75248853Y-25155846D01*
X75347456Y-25303416D01*
X75415376Y-25467388D01*
X75440637Y-25594388D01*
X75450000Y-25641458D01*
X75450000Y-25818942D01*
X75445073Y-25843712D01*
X75415376Y-25993012D01*
X75347456Y-26156984D01*
X75248853Y-26304554D01*
X75123354Y-26430053D01*
X74975784Y-26528656D01*
X74811812Y-26596576D01*
X74662512Y-26626273D01*
X74637742Y-26631200D01*
X74460258Y-26631200D01*
X74435488Y-26626273D01*
X74286188Y-26596576D01*
X74122216Y-26528656D01*
X73974646Y-26430053D01*
X73849147Y-26304554D01*
X73750544Y-26156984D01*
X73682624Y-25993012D01*
X73652927Y-25843712D01*
X73648000Y-25818942D01*
X73648000Y-25641458D01*
X73657363Y-25594388D01*
X73682624Y-25467388D01*
X73750544Y-25303416D01*
X73849147Y-25155846D01*
X73974646Y-25030347D01*
X74122216Y-24931744D01*
X74286188Y-24863824D01*
X74435488Y-24834127D01*
X74460258Y-24829200D01*
X74637742Y-24829200D01*
X74662512Y-24834127D01*
G37*
G36*
X45916468Y-24729765D02*
G01*
X45955138Y-24741496D01*
X45990777Y-24760546D01*
X46022017Y-24786183D01*
X46047654Y-24817423D01*
X46066704Y-24853062D01*
X46078435Y-24891732D01*
X46083000Y-24938088D01*
X46083000Y-26014312D01*
X46078435Y-26060668D01*
X46066704Y-26099338D01*
X46047654Y-26134977D01*
X46022017Y-26166217D01*
X45990777Y-26191854D01*
X45955138Y-26210904D01*
X45916468Y-26222635D01*
X45870112Y-26227200D01*
X45218888Y-26227200D01*
X45172532Y-26222635D01*
X45133862Y-26210904D01*
X45098223Y-26191854D01*
X45066983Y-26166217D01*
X45041346Y-26134977D01*
X45022296Y-26099338D01*
X45010565Y-26060668D01*
X45006000Y-26014312D01*
X45006000Y-24938088D01*
X45010565Y-24891732D01*
X45022296Y-24853062D01*
X45041346Y-24817423D01*
X45066983Y-24786183D01*
X45098223Y-24760546D01*
X45133862Y-24741496D01*
X45172532Y-24729765D01*
X45218888Y-24725200D01*
X45870112Y-24725200D01*
X45916468Y-24729765D01*
G37*
G36*
X47791468Y-24729765D02*
G01*
X47830138Y-24741496D01*
X47865777Y-24760546D01*
X47897017Y-24786183D01*
X47922654Y-24817423D01*
X47941704Y-24853062D01*
X47953435Y-24891732D01*
X47958000Y-24938088D01*
X47958000Y-26014312D01*
X47953435Y-26060668D01*
X47941704Y-26099338D01*
X47922654Y-26134977D01*
X47897017Y-26166217D01*
X47865777Y-26191854D01*
X47830138Y-26210904D01*
X47791468Y-26222635D01*
X47745112Y-26227200D01*
X47093888Y-26227200D01*
X47047532Y-26222635D01*
X47008862Y-26210904D01*
X46973223Y-26191854D01*
X46941983Y-26166217D01*
X46916346Y-26134977D01*
X46897296Y-26099338D01*
X46885565Y-26060668D01*
X46881000Y-26014312D01*
X46881000Y-24938088D01*
X46885565Y-24891732D01*
X46897296Y-24853062D01*
X46916346Y-24817423D01*
X46941983Y-24786183D01*
X46973223Y-24760546D01*
X47008862Y-24741496D01*
X47047532Y-24729765D01*
X47093888Y-24725200D01*
X47745112Y-24725200D01*
X47791468Y-24729765D01*
G37*
G36*
X112464468Y-24666265D02*
G01*
X112503138Y-24677996D01*
X112538777Y-24697046D01*
X112570017Y-24722683D01*
X112595654Y-24753923D01*
X112614704Y-24789562D01*
X112626435Y-24828232D01*
X112631000Y-24874588D01*
X112631000Y-25950812D01*
X112626435Y-25997168D01*
X112614704Y-26035838D01*
X112595654Y-26071477D01*
X112570017Y-26102717D01*
X112538777Y-26128354D01*
X112503138Y-26147404D01*
X112464468Y-26159135D01*
X112418112Y-26163700D01*
X111766888Y-26163700D01*
X111720532Y-26159135D01*
X111681862Y-26147404D01*
X111646223Y-26128354D01*
X111614983Y-26102717D01*
X111589346Y-26071477D01*
X111570296Y-26035838D01*
X111558565Y-25997168D01*
X111554000Y-25950812D01*
X111554000Y-24874588D01*
X111558565Y-24828232D01*
X111570296Y-24789562D01*
X111589346Y-24753923D01*
X111614983Y-24722683D01*
X111646223Y-24697046D01*
X111681862Y-24677996D01*
X111720532Y-24666265D01*
X111766888Y-24661700D01*
X112418112Y-24661700D01*
X112464468Y-24666265D01*
G37*
G36*
X114339468Y-24666265D02*
G01*
X114378138Y-24677996D01*
X114413777Y-24697046D01*
X114445017Y-24722683D01*
X114470654Y-24753923D01*
X114489704Y-24789562D01*
X114501435Y-24828232D01*
X114506000Y-24874588D01*
X114506000Y-25950812D01*
X114501435Y-25997168D01*
X114489704Y-26035838D01*
X114470654Y-26071477D01*
X114445017Y-26102717D01*
X114413777Y-26128354D01*
X114378138Y-26147404D01*
X114339468Y-26159135D01*
X114293112Y-26163700D01*
X113641888Y-26163700D01*
X113595532Y-26159135D01*
X113556862Y-26147404D01*
X113521223Y-26128354D01*
X113489983Y-26102717D01*
X113464346Y-26071477D01*
X113445296Y-26035838D01*
X113433565Y-25997168D01*
X113429000Y-25950812D01*
X113429000Y-24874588D01*
X113433565Y-24828232D01*
X113445296Y-24789562D01*
X113464346Y-24753923D01*
X113489983Y-24722683D01*
X113521223Y-24697046D01*
X113556862Y-24677996D01*
X113595532Y-24666265D01*
X113641888Y-24661700D01*
X114293112Y-24661700D01*
X114339468Y-24666265D01*
G37*
G36*
X116528468Y-24666265D02*
G01*
X116567138Y-24677996D01*
X116602777Y-24697046D01*
X116634017Y-24722683D01*
X116659654Y-24753923D01*
X116678704Y-24789562D01*
X116690435Y-24828232D01*
X116695000Y-24874588D01*
X116695000Y-25950812D01*
X116690435Y-25997168D01*
X116678704Y-26035838D01*
X116659654Y-26071477D01*
X116634017Y-26102717D01*
X116602777Y-26128354D01*
X116567138Y-26147404D01*
X116528468Y-26159135D01*
X116482112Y-26163700D01*
X115830888Y-26163700D01*
X115784532Y-26159135D01*
X115745862Y-26147404D01*
X115710223Y-26128354D01*
X115678983Y-26102717D01*
X115653346Y-26071477D01*
X115634296Y-26035838D01*
X115622565Y-25997168D01*
X115618000Y-25950812D01*
X115618000Y-24874588D01*
X115622565Y-24828232D01*
X115634296Y-24789562D01*
X115653346Y-24753923D01*
X115678983Y-24722683D01*
X115710223Y-24697046D01*
X115745862Y-24677996D01*
X115784532Y-24666265D01*
X115830888Y-24661700D01*
X116482112Y-24661700D01*
X116528468Y-24666265D01*
G37*
G36*
X102367968Y-24666265D02*
G01*
X102406638Y-24677996D01*
X102442277Y-24697046D01*
X102473517Y-24722683D01*
X102499154Y-24753923D01*
X102518204Y-24789562D01*
X102529935Y-24828232D01*
X102534500Y-24874588D01*
X102534500Y-25950812D01*
X102529935Y-25997168D01*
X102518204Y-26035838D01*
X102499154Y-26071477D01*
X102473517Y-26102717D01*
X102442277Y-26128354D01*
X102406638Y-26147404D01*
X102367968Y-26159135D01*
X102321612Y-26163700D01*
X101670388Y-26163700D01*
X101624032Y-26159135D01*
X101585362Y-26147404D01*
X101549723Y-26128354D01*
X101518483Y-26102717D01*
X101492846Y-26071477D01*
X101473796Y-26035838D01*
X101462065Y-25997168D01*
X101457500Y-25950812D01*
X101457500Y-24874588D01*
X101462065Y-24828232D01*
X101473796Y-24789562D01*
X101492846Y-24753923D01*
X101518483Y-24722683D01*
X101549723Y-24697046D01*
X101585362Y-24677996D01*
X101624032Y-24666265D01*
X101670388Y-24661700D01*
X102321612Y-24661700D01*
X102367968Y-24666265D01*
G37*
G36*
X118403468Y-24666265D02*
G01*
X118442138Y-24677996D01*
X118477777Y-24697046D01*
X118509017Y-24722683D01*
X118534654Y-24753923D01*
X118553704Y-24789562D01*
X118565435Y-24828232D01*
X118570000Y-24874588D01*
X118570000Y-25950812D01*
X118565435Y-25997168D01*
X118553704Y-26035838D01*
X118534654Y-26071477D01*
X118509017Y-26102717D01*
X118477777Y-26128354D01*
X118442138Y-26147404D01*
X118403468Y-26159135D01*
X118357112Y-26163700D01*
X117705888Y-26163700D01*
X117659532Y-26159135D01*
X117620862Y-26147404D01*
X117585223Y-26128354D01*
X117553983Y-26102717D01*
X117528346Y-26071477D01*
X117509296Y-26035838D01*
X117497565Y-25997168D01*
X117493000Y-25950812D01*
X117493000Y-24874588D01*
X117497565Y-24828232D01*
X117509296Y-24789562D01*
X117528346Y-24753923D01*
X117553983Y-24722683D01*
X117585223Y-24697046D01*
X117620862Y-24677996D01*
X117659532Y-24666265D01*
X117705888Y-24661700D01*
X118357112Y-24661700D01*
X118403468Y-24666265D01*
G37*
G36*
X126942468Y-24666265D02*
G01*
X126981138Y-24677996D01*
X127016777Y-24697046D01*
X127048017Y-24722683D01*
X127073654Y-24753923D01*
X127092704Y-24789562D01*
X127104435Y-24828232D01*
X127109000Y-24874588D01*
X127109000Y-25950812D01*
X127104435Y-25997168D01*
X127092704Y-26035838D01*
X127073654Y-26071477D01*
X127048017Y-26102717D01*
X127016777Y-26128354D01*
X126981138Y-26147404D01*
X126942468Y-26159135D01*
X126896112Y-26163700D01*
X126244888Y-26163700D01*
X126198532Y-26159135D01*
X126159862Y-26147404D01*
X126124223Y-26128354D01*
X126092983Y-26102717D01*
X126067346Y-26071477D01*
X126048296Y-26035838D01*
X126036565Y-25997168D01*
X126032000Y-25950812D01*
X126032000Y-24874588D01*
X126036565Y-24828232D01*
X126048296Y-24789562D01*
X126067346Y-24753923D01*
X126092983Y-24722683D01*
X126124223Y-24697046D01*
X126159862Y-24677996D01*
X126198532Y-24666265D01*
X126244888Y-24661700D01*
X126896112Y-24661700D01*
X126942468Y-24666265D01*
G37*
G36*
X128817468Y-24666265D02*
G01*
X128856138Y-24677996D01*
X128891777Y-24697046D01*
X128923017Y-24722683D01*
X128948654Y-24753923D01*
X128967704Y-24789562D01*
X128979435Y-24828232D01*
X128984000Y-24874588D01*
X128984000Y-25950812D01*
X128979435Y-25997168D01*
X128967704Y-26035838D01*
X128948654Y-26071477D01*
X128923017Y-26102717D01*
X128891777Y-26128354D01*
X128856138Y-26147404D01*
X128817468Y-26159135D01*
X128771112Y-26163700D01*
X128119888Y-26163700D01*
X128073532Y-26159135D01*
X128034862Y-26147404D01*
X127999223Y-26128354D01*
X127967983Y-26102717D01*
X127942346Y-26071477D01*
X127923296Y-26035838D01*
X127911565Y-25997168D01*
X127907000Y-25950812D01*
X127907000Y-24874588D01*
X127911565Y-24828232D01*
X127923296Y-24789562D01*
X127942346Y-24753923D01*
X127967983Y-24722683D01*
X127999223Y-24697046D01*
X128034862Y-24677996D01*
X128073532Y-24666265D01*
X128119888Y-24661700D01*
X128771112Y-24661700D01*
X128817468Y-24666265D01*
G37*
G36*
X104242968Y-24666265D02*
G01*
X104281638Y-24677996D01*
X104317277Y-24697046D01*
X104348517Y-24722683D01*
X104374154Y-24753923D01*
X104393204Y-24789562D01*
X104404935Y-24828232D01*
X104409500Y-24874588D01*
X104409500Y-25950812D01*
X104404935Y-25997168D01*
X104393204Y-26035838D01*
X104374154Y-26071477D01*
X104348517Y-26102717D01*
X104317277Y-26128354D01*
X104281638Y-26147404D01*
X104242968Y-26159135D01*
X104196612Y-26163700D01*
X103545388Y-26163700D01*
X103499032Y-26159135D01*
X103460362Y-26147404D01*
X103424723Y-26128354D01*
X103393483Y-26102717D01*
X103367846Y-26071477D01*
X103348796Y-26035838D01*
X103337065Y-25997168D01*
X103332500Y-25950812D01*
X103332500Y-24874588D01*
X103337065Y-24828232D01*
X103348796Y-24789562D01*
X103367846Y-24753923D01*
X103393483Y-24722683D01*
X103424723Y-24697046D01*
X103460362Y-24677996D01*
X103499032Y-24666265D01*
X103545388Y-24661700D01*
X104196612Y-24661700D01*
X104242968Y-24666265D01*
G37*
G36*
X35502468Y-24412265D02*
G01*
X35541138Y-24423996D01*
X35576777Y-24443046D01*
X35608017Y-24468683D01*
X35633654Y-24499923D01*
X35652704Y-24535562D01*
X35664435Y-24574232D01*
X35669000Y-24620588D01*
X35669000Y-25696812D01*
X35664435Y-25743168D01*
X35652704Y-25781838D01*
X35633654Y-25817477D01*
X35608017Y-25848717D01*
X35576777Y-25874354D01*
X35541138Y-25893404D01*
X35502468Y-25905135D01*
X35456112Y-25909700D01*
X34804888Y-25909700D01*
X34758532Y-25905135D01*
X34719862Y-25893404D01*
X34684223Y-25874354D01*
X34652983Y-25848717D01*
X34627346Y-25817477D01*
X34608296Y-25781838D01*
X34596565Y-25743168D01*
X34592000Y-25696812D01*
X34592000Y-24620588D01*
X34596565Y-24574232D01*
X34608296Y-24535562D01*
X34627346Y-24499923D01*
X34652983Y-24468683D01*
X34684223Y-24443046D01*
X34719862Y-24423996D01*
X34758532Y-24412265D01*
X34804888Y-24407700D01*
X35456112Y-24407700D01*
X35502468Y-24412265D01*
G37*
G36*
X37377468Y-24412265D02*
G01*
X37416138Y-24423996D01*
X37451777Y-24443046D01*
X37483017Y-24468683D01*
X37508654Y-24499923D01*
X37527704Y-24535562D01*
X37539435Y-24574232D01*
X37544000Y-24620588D01*
X37544000Y-25696812D01*
X37539435Y-25743168D01*
X37527704Y-25781838D01*
X37508654Y-25817477D01*
X37483017Y-25848717D01*
X37451777Y-25874354D01*
X37416138Y-25893404D01*
X37377468Y-25905135D01*
X37331112Y-25909700D01*
X36679888Y-25909700D01*
X36633532Y-25905135D01*
X36594862Y-25893404D01*
X36559223Y-25874354D01*
X36527983Y-25848717D01*
X36502346Y-25817477D01*
X36483296Y-25781838D01*
X36471565Y-25743168D01*
X36467000Y-25696812D01*
X36467000Y-24620588D01*
X36471565Y-24574232D01*
X36483296Y-24535562D01*
X36502346Y-24499923D01*
X36527983Y-24468683D01*
X36559223Y-24443046D01*
X36594862Y-24423996D01*
X36633532Y-24412265D01*
X36679888Y-24407700D01*
X37331112Y-24407700D01*
X37377468Y-24412265D01*
G37*
G36*
X32805468Y-24412265D02*
G01*
X32844138Y-24423996D01*
X32879777Y-24443046D01*
X32911017Y-24468683D01*
X32936654Y-24499923D01*
X32955704Y-24535562D01*
X32967435Y-24574232D01*
X32972000Y-24620588D01*
X32972000Y-25696812D01*
X32967435Y-25743168D01*
X32955704Y-25781838D01*
X32936654Y-25817477D01*
X32911017Y-25848717D01*
X32879777Y-25874354D01*
X32844138Y-25893404D01*
X32805468Y-25905135D01*
X32759112Y-25909700D01*
X32107888Y-25909700D01*
X32061532Y-25905135D01*
X32022862Y-25893404D01*
X31987223Y-25874354D01*
X31955983Y-25848717D01*
X31930346Y-25817477D01*
X31911296Y-25781838D01*
X31899565Y-25743168D01*
X31895000Y-25696812D01*
X31895000Y-24620588D01*
X31899565Y-24574232D01*
X31911296Y-24535562D01*
X31930346Y-24499923D01*
X31955983Y-24468683D01*
X31987223Y-24443046D01*
X32022862Y-24423996D01*
X32061532Y-24412265D01*
X32107888Y-24407700D01*
X32759112Y-24407700D01*
X32805468Y-24412265D01*
G37*
G36*
X30930468Y-24412265D02*
G01*
X30969138Y-24423996D01*
X31004777Y-24443046D01*
X31036017Y-24468683D01*
X31061654Y-24499923D01*
X31080704Y-24535562D01*
X31092435Y-24574232D01*
X31097000Y-24620588D01*
X31097000Y-25696812D01*
X31092435Y-25743168D01*
X31080704Y-25781838D01*
X31061654Y-25817477D01*
X31036017Y-25848717D01*
X31004777Y-25874354D01*
X30969138Y-25893404D01*
X30930468Y-25905135D01*
X30884112Y-25909700D01*
X30232888Y-25909700D01*
X30186532Y-25905135D01*
X30147862Y-25893404D01*
X30112223Y-25874354D01*
X30080983Y-25848717D01*
X30055346Y-25817477D01*
X30036296Y-25781838D01*
X30024565Y-25743168D01*
X30020000Y-25696812D01*
X30020000Y-24620588D01*
X30024565Y-24574232D01*
X30036296Y-24535562D01*
X30055346Y-24499923D01*
X30080983Y-24468683D01*
X30112223Y-24443046D01*
X30147862Y-24423996D01*
X30186532Y-24412265D01*
X30232888Y-24407700D01*
X30884112Y-24407700D01*
X30930468Y-24412265D01*
G37*
G36*
X20262468Y-24399565D02*
G01*
X20301138Y-24411296D01*
X20336777Y-24430346D01*
X20368017Y-24455983D01*
X20393654Y-24487223D01*
X20412704Y-24522862D01*
X20424435Y-24561532D01*
X20429000Y-24607888D01*
X20429000Y-25684112D01*
X20424435Y-25730468D01*
X20412704Y-25769138D01*
X20393654Y-25804777D01*
X20368017Y-25836017D01*
X20336777Y-25861654D01*
X20301138Y-25880704D01*
X20262468Y-25892435D01*
X20216112Y-25897000D01*
X19564888Y-25897000D01*
X19518532Y-25892435D01*
X19479862Y-25880704D01*
X19444223Y-25861654D01*
X19412983Y-25836017D01*
X19387346Y-25804777D01*
X19368296Y-25769138D01*
X19356565Y-25730468D01*
X19352000Y-25684112D01*
X19352000Y-24607888D01*
X19356565Y-24561532D01*
X19368296Y-24522862D01*
X19387346Y-24487223D01*
X19412983Y-24455983D01*
X19444223Y-24430346D01*
X19479862Y-24411296D01*
X19518532Y-24399565D01*
X19564888Y-24395000D01*
X20216112Y-24395000D01*
X20262468Y-24399565D01*
G37*
G36*
X22137468Y-24399565D02*
G01*
X22176138Y-24411296D01*
X22211777Y-24430346D01*
X22243017Y-24455983D01*
X22268654Y-24487223D01*
X22287704Y-24522862D01*
X22299435Y-24561532D01*
X22304000Y-24607888D01*
X22304000Y-25684112D01*
X22299435Y-25730468D01*
X22287704Y-25769138D01*
X22268654Y-25804777D01*
X22243017Y-25836017D01*
X22211777Y-25861654D01*
X22176138Y-25880704D01*
X22137468Y-25892435D01*
X22091112Y-25897000D01*
X21439888Y-25897000D01*
X21393532Y-25892435D01*
X21354862Y-25880704D01*
X21319223Y-25861654D01*
X21287983Y-25836017D01*
X21262346Y-25804777D01*
X21243296Y-25769138D01*
X21231565Y-25730468D01*
X21227000Y-25684112D01*
X21227000Y-24607888D01*
X21231565Y-24561532D01*
X21243296Y-24522862D01*
X21262346Y-24487223D01*
X21287983Y-24455983D01*
X21319223Y-24430346D01*
X21354862Y-24411296D01*
X21393532Y-24399565D01*
X21439888Y-24395000D01*
X22091112Y-24395000D01*
X22137468Y-24399565D01*
G37*
G36*
X74662512Y-22294127D02*
G01*
X74811812Y-22323824D01*
X74975784Y-22391744D01*
X75123354Y-22490347D01*
X75248853Y-22615846D01*
X75347456Y-22763416D01*
X75415376Y-22927388D01*
X75450000Y-23101459D01*
X75450000Y-23278941D01*
X75415376Y-23453012D01*
X75347456Y-23616984D01*
X75248853Y-23764554D01*
X75123354Y-23890053D01*
X74975784Y-23988656D01*
X74811812Y-24056576D01*
X74662512Y-24086273D01*
X74637742Y-24091200D01*
X74460258Y-24091200D01*
X74435488Y-24086273D01*
X74286188Y-24056576D01*
X74122216Y-23988656D01*
X73974646Y-23890053D01*
X73849147Y-23764554D01*
X73750544Y-23616984D01*
X73682624Y-23453012D01*
X73648000Y-23278941D01*
X73648000Y-23101459D01*
X73682624Y-22927388D01*
X73750544Y-22763416D01*
X73849147Y-22615846D01*
X73974646Y-22490347D01*
X74122216Y-22391744D01*
X74286188Y-22323824D01*
X74435488Y-22294127D01*
X74460258Y-22289200D01*
X74637742Y-22289200D01*
X74662512Y-22294127D01*
G37*
G36*
X74662512Y-19754127D02*
G01*
X74811812Y-19783824D01*
X74975784Y-19851744D01*
X75123354Y-19950347D01*
X75248853Y-20075846D01*
X75347456Y-20223416D01*
X75415376Y-20387388D01*
X75450000Y-20561459D01*
X75450000Y-20738941D01*
X75415376Y-20913012D01*
X75347456Y-21076984D01*
X75248853Y-21224554D01*
X75123354Y-21350053D01*
X74975784Y-21448656D01*
X74811812Y-21516576D01*
X74662512Y-21546273D01*
X74637742Y-21551200D01*
X74460258Y-21551200D01*
X74435488Y-21546273D01*
X74286188Y-21516576D01*
X74122216Y-21448656D01*
X73974646Y-21350053D01*
X73849147Y-21224554D01*
X73750544Y-21076984D01*
X73682624Y-20913012D01*
X73648000Y-20738941D01*
X73648000Y-20561459D01*
X73682624Y-20387388D01*
X73750544Y-20223416D01*
X73849147Y-20075846D01*
X73974646Y-19950347D01*
X74122216Y-19851744D01*
X74286188Y-19783824D01*
X74435488Y-19754127D01*
X74460258Y-19749200D01*
X74637742Y-19749200D01*
X74662512Y-19754127D01*
G37*
G36*
X70035336Y-17395454D02*
G01*
X70127105Y-17413708D01*
X70299994Y-17485321D01*
X70455590Y-17589287D01*
X70587913Y-17721610D01*
X70691879Y-17877206D01*
X70763492Y-18050095D01*
X70800000Y-18233633D01*
X70800000Y-18420767D01*
X70763492Y-18604305D01*
X70691879Y-18777194D01*
X70587913Y-18932790D01*
X70455590Y-19065113D01*
X70299994Y-19169079D01*
X70127105Y-19240692D01*
X70035336Y-19258946D01*
X69943568Y-19277200D01*
X69756432Y-19277200D01*
X69664664Y-19258946D01*
X69572895Y-19240692D01*
X69400006Y-19169079D01*
X69244410Y-19065113D01*
X69112087Y-18932790D01*
X69008121Y-18777194D01*
X68936508Y-18604305D01*
X68900000Y-18420767D01*
X68900000Y-18233633D01*
X68936508Y-18050095D01*
X69008121Y-17877206D01*
X69112087Y-17721610D01*
X69244410Y-17589287D01*
X69400006Y-17485321D01*
X69572895Y-17413708D01*
X69664664Y-17395454D01*
X69756432Y-17377200D01*
X69943568Y-17377200D01*
X70035336Y-17395454D01*
G37*
G36*
X67495336Y-17395454D02*
G01*
X67587105Y-17413708D01*
X67759994Y-17485321D01*
X67915590Y-17589287D01*
X68047913Y-17721610D01*
X68151879Y-17877206D01*
X68223492Y-18050095D01*
X68260000Y-18233633D01*
X68260000Y-18420767D01*
X68223492Y-18604305D01*
X68151879Y-18777194D01*
X68047913Y-18932790D01*
X67915590Y-19065113D01*
X67759994Y-19169079D01*
X67587105Y-19240692D01*
X67495336Y-19258946D01*
X67403568Y-19277200D01*
X67216432Y-19277200D01*
X67124664Y-19258946D01*
X67032895Y-19240692D01*
X66860006Y-19169079D01*
X66704410Y-19065113D01*
X66572087Y-18932790D01*
X66468121Y-18777194D01*
X66396508Y-18604305D01*
X66360000Y-18420767D01*
X66360000Y-18233633D01*
X66396508Y-18050095D01*
X66468121Y-17877206D01*
X66572087Y-17721610D01*
X66704410Y-17589287D01*
X66860006Y-17485321D01*
X67032895Y-17413708D01*
X67124664Y-17395454D01*
X67216432Y-17377200D01*
X67403568Y-17377200D01*
X67495336Y-17395454D01*
G37*
G36*
X64955336Y-17395454D02*
G01*
X65047105Y-17413708D01*
X65219994Y-17485321D01*
X65375590Y-17589287D01*
X65507913Y-17721610D01*
X65611879Y-17877206D01*
X65683492Y-18050095D01*
X65720000Y-18233633D01*
X65720000Y-18420767D01*
X65683492Y-18604305D01*
X65611879Y-18777194D01*
X65507913Y-18932790D01*
X65375590Y-19065113D01*
X65219994Y-19169079D01*
X65047105Y-19240692D01*
X64955336Y-19258946D01*
X64863568Y-19277200D01*
X64676432Y-19277200D01*
X64584664Y-19258946D01*
X64492895Y-19240692D01*
X64320006Y-19169079D01*
X64164410Y-19065113D01*
X64032087Y-18932790D01*
X63928121Y-18777194D01*
X63856508Y-18604305D01*
X63820000Y-18420767D01*
X63820000Y-18233633D01*
X63856508Y-18050095D01*
X63928121Y-17877206D01*
X64032087Y-17721610D01*
X64164410Y-17589287D01*
X64320006Y-17485321D01*
X64492895Y-17413708D01*
X64584664Y-17395454D01*
X64676432Y-17377200D01*
X64863568Y-17377200D01*
X64955336Y-17395454D01*
G37*
G36*
X75450000Y-19011200D02*
G01*
X73648000Y-19011200D01*
X73648000Y-17209200D01*
X75450000Y-17209200D01*
X75450000Y-19011200D01*
G37*
G36*
X64936963Y-14685330D02*
G01*
X65068982Y-14711590D01*
X65255520Y-14788856D01*
X65423400Y-14901030D01*
X65566170Y-15043800D01*
X65678344Y-15211680D01*
X65755610Y-15398218D01*
X65795000Y-15596246D01*
X65795000Y-15798154D01*
X65755610Y-15996182D01*
X65678344Y-16182720D01*
X65566170Y-16350600D01*
X65423400Y-16493370D01*
X65255520Y-16605544D01*
X65068982Y-16682810D01*
X64936963Y-16709070D01*
X64870955Y-16722200D01*
X64669045Y-16722200D01*
X64603037Y-16709070D01*
X64471018Y-16682810D01*
X64284480Y-16605544D01*
X64116600Y-16493370D01*
X63973830Y-16350600D01*
X63861656Y-16182720D01*
X63784390Y-15996182D01*
X63745000Y-15798154D01*
X63745000Y-15596246D01*
X63784390Y-15398218D01*
X63861656Y-15211680D01*
X63973830Y-15043800D01*
X64116600Y-14901030D01*
X64284480Y-14788856D01*
X64471018Y-14711590D01*
X64603037Y-14685330D01*
X64669045Y-14672200D01*
X64870955Y-14672200D01*
X64936963Y-14685330D01*
G37*
G36*
X70016963Y-14685330D02*
G01*
X70148982Y-14711590D01*
X70335520Y-14788856D01*
X70503400Y-14901030D01*
X70646170Y-15043800D01*
X70758344Y-15211680D01*
X70835610Y-15398218D01*
X70875000Y-15596246D01*
X70875000Y-15798154D01*
X70835610Y-15996182D01*
X70758344Y-16182720D01*
X70646170Y-16350600D01*
X70503400Y-16493370D01*
X70335520Y-16605544D01*
X70148982Y-16682810D01*
X70016963Y-16709070D01*
X69950955Y-16722200D01*
X69749045Y-16722200D01*
X69683037Y-16709070D01*
X69551018Y-16682810D01*
X69364480Y-16605544D01*
X69196600Y-16493370D01*
X69053830Y-16350600D01*
X68941656Y-16182720D01*
X68864390Y-15996182D01*
X68825000Y-15798154D01*
X68825000Y-15596246D01*
X68864390Y-15398218D01*
X68941656Y-15211680D01*
X69053830Y-15043800D01*
X69196600Y-14901030D01*
X69364480Y-14788856D01*
X69551018Y-14711590D01*
X69683037Y-14685330D01*
X69749045Y-14672200D01*
X69950955Y-14672200D01*
X70016963Y-14685330D01*
G37*
G36*
X81005642Y-14882981D02*
G01*
X81151414Y-14943362D01*
X81151416Y-14943363D01*
X81282608Y-15031022D01*
X81394178Y-15142592D01*
X81440342Y-15211682D01*
X81481838Y-15273786D01*
X81542219Y-15419558D01*
X81573000Y-15574307D01*
X81573000Y-15732093D01*
X81542219Y-15886842D01*
X81481838Y-16032614D01*
X81481837Y-16032616D01*
X81394178Y-16163808D01*
X81282608Y-16275378D01*
X81151416Y-16363037D01*
X81151415Y-16363038D01*
X81151414Y-16363038D01*
X81005642Y-16423419D01*
X80850893Y-16454200D01*
X80693107Y-16454200D01*
X80538358Y-16423419D01*
X80392586Y-16363038D01*
X80392585Y-16363038D01*
X80392584Y-16363037D01*
X80261392Y-16275378D01*
X80149822Y-16163808D01*
X80062163Y-16032616D01*
X80062162Y-16032614D01*
X80001781Y-15886842D01*
X79971000Y-15732093D01*
X79971000Y-15574307D01*
X80001781Y-15419558D01*
X80062162Y-15273786D01*
X80103658Y-15211682D01*
X80149822Y-15142592D01*
X80261392Y-15031022D01*
X80392584Y-14943363D01*
X80392586Y-14943362D01*
X80538358Y-14882981D01*
X80693107Y-14852200D01*
X80850893Y-14852200D01*
X81005642Y-14882981D01*
G37*
G36*
X70424857Y-12099472D02*
G01*
X70625043Y-12182392D01*
X70625045Y-12182393D01*
X70715738Y-12242992D01*
X70805208Y-12302774D01*
X70958426Y-12455992D01*
X71078808Y-12636157D01*
X71161728Y-12836343D01*
X71204000Y-13048858D01*
X71204000Y-13265542D01*
X71161728Y-13478057D01*
X71078808Y-13678243D01*
X70958426Y-13858408D01*
X70805208Y-14011626D01*
X70715738Y-14071408D01*
X70625045Y-14132007D01*
X70625044Y-14132008D01*
X70625043Y-14132008D01*
X70424857Y-14214928D01*
X70212342Y-14257200D01*
X69995658Y-14257200D01*
X69783143Y-14214928D01*
X69582957Y-14132008D01*
X69582956Y-14132008D01*
X69582955Y-14132007D01*
X69492262Y-14071408D01*
X69402792Y-14011626D01*
X69249574Y-13858408D01*
X69129192Y-13678243D01*
X69046272Y-13478057D01*
X69004000Y-13265542D01*
X69004000Y-13048858D01*
X69046272Y-12836343D01*
X69129192Y-12636157D01*
X69249574Y-12455992D01*
X69402792Y-12302774D01*
X69492262Y-12242992D01*
X69582955Y-12182393D01*
X69582957Y-12182392D01*
X69783143Y-12099472D01*
X69995658Y-12057200D01*
X70212342Y-12057200D01*
X70424857Y-12099472D01*
G37*
G36*
X64836857Y-12099472D02*
G01*
X65037043Y-12182392D01*
X65037045Y-12182393D01*
X65127738Y-12242992D01*
X65217208Y-12302774D01*
X65370426Y-12455992D01*
X65490808Y-12636157D01*
X65573728Y-12836343D01*
X65616000Y-13048858D01*
X65616000Y-13265542D01*
X65573728Y-13478057D01*
X65490808Y-13678243D01*
X65370426Y-13858408D01*
X65217208Y-14011626D01*
X65127738Y-14071408D01*
X65037045Y-14132007D01*
X65037044Y-14132008D01*
X65037043Y-14132008D01*
X64836857Y-14214928D01*
X64624342Y-14257200D01*
X64407658Y-14257200D01*
X64195143Y-14214928D01*
X63994957Y-14132008D01*
X63994956Y-14132008D01*
X63994955Y-14132007D01*
X63904262Y-14071408D01*
X63814792Y-14011626D01*
X63661574Y-13858408D01*
X63541192Y-13678243D01*
X63458272Y-13478057D01*
X63416000Y-13265542D01*
X63416000Y-13048858D01*
X63458272Y-12836343D01*
X63541192Y-12636157D01*
X63661574Y-12455992D01*
X63814792Y-12302774D01*
X63904262Y-12242992D01*
X63994955Y-12182393D01*
X63994957Y-12182392D01*
X64195143Y-12099472D01*
X64407658Y-12057200D01*
X64624342Y-12057200D01*
X64836857Y-12099472D01*
G37*
G36*
X145282046Y-7745134D02*
G01*
X145601282Y-7808634D01*
X146192926Y-8053701D01*
X146619477Y-8338714D01*
X146725391Y-8409483D01*
X147178217Y-8862309D01*
X147192030Y-8882982D01*
X147533999Y-9394774D01*
X147779066Y-9986418D01*
X147904000Y-10614504D01*
X147904000Y-11254896D01*
X147779066Y-11882982D01*
X147533999Y-12474626D01*
X147292307Y-12836343D01*
X147220646Y-12943592D01*
X147178216Y-13007092D01*
X146725392Y-13459916D01*
X146192926Y-13815699D01*
X145601282Y-14060766D01*
X145292432Y-14122200D01*
X144973197Y-14185700D01*
X144332803Y-14185700D01*
X144013568Y-14122200D01*
X143704718Y-14060766D01*
X143113074Y-13815699D01*
X142580608Y-13459916D01*
X142127784Y-13007092D01*
X142085355Y-12943592D01*
X142013693Y-12836343D01*
X141772001Y-12474626D01*
X141526934Y-11882982D01*
X141402000Y-11254896D01*
X141402000Y-10614504D01*
X141526934Y-9986418D01*
X141772001Y-9394774D01*
X142113970Y-8882982D01*
X142127783Y-8862309D01*
X142580609Y-8409483D01*
X142686523Y-8338714D01*
X143113074Y-8053701D01*
X143704718Y-7808634D01*
X144023954Y-7745134D01*
X144332803Y-7683700D01*
X144973197Y-7683700D01*
X145282046Y-7745134D01*
G37*
G36*
X4444239Y-7682667D02*
G01*
X4758282Y-7745134D01*
X5349926Y-7990201D01*
X5776477Y-8275214D01*
X5882391Y-8345983D01*
X6335217Y-8798809D01*
X6377646Y-8862309D01*
X6690999Y-9331274D01*
X6921123Y-9886843D01*
X6936066Y-9922919D01*
X7041745Y-10454200D01*
X7061000Y-10551004D01*
X7061000Y-11191396D01*
X6936066Y-11819482D01*
X6690999Y-12411126D01*
X6335216Y-12943592D01*
X5882392Y-13396416D01*
X5349926Y-13752199D01*
X4758282Y-13997266D01*
X4686094Y-14011625D01*
X4130197Y-14122200D01*
X3489803Y-14122200D01*
X2933906Y-14011625D01*
X2861718Y-13997266D01*
X2270074Y-13752199D01*
X1737608Y-13396416D01*
X1284784Y-12943592D01*
X929001Y-12411126D01*
X683934Y-11819482D01*
X559000Y-11191396D01*
X559000Y-10551004D01*
X578256Y-10454200D01*
X683934Y-9922919D01*
X698877Y-9886843D01*
X929001Y-9331274D01*
X1242354Y-8862309D01*
X1284783Y-8798809D01*
X1737609Y-8345983D01*
X1843523Y-8275214D01*
X2270074Y-7990201D01*
X2861718Y-7745134D01*
X3175761Y-7682667D01*
X3489803Y-7620200D01*
X4130197Y-7620200D01*
X4444239Y-7682667D01*
G37*
G36*
X81005642Y-8882981D02*
G01*
X81151414Y-8943362D01*
X81151416Y-8943363D01*
X81282608Y-9031022D01*
X81394178Y-9142592D01*
X81481837Y-9273784D01*
X81481838Y-9273786D01*
X81542219Y-9419558D01*
X81573000Y-9574307D01*
X81573000Y-9732093D01*
X81542219Y-9886842D01*
X81481838Y-10032614D01*
X81481837Y-10032616D01*
X81394178Y-10163808D01*
X81282608Y-10275378D01*
X81151416Y-10363037D01*
X81151415Y-10363038D01*
X81151414Y-10363038D01*
X81005642Y-10423419D01*
X80850893Y-10454200D01*
X80693107Y-10454200D01*
X80538358Y-10423419D01*
X80392586Y-10363038D01*
X80392585Y-10363038D01*
X80392584Y-10363037D01*
X80261392Y-10275378D01*
X80149822Y-10163808D01*
X80062163Y-10032616D01*
X80062162Y-10032614D01*
X80001781Y-9886842D01*
X79971000Y-9732093D01*
X79971000Y-9574307D01*
X80001781Y-9419558D01*
X80062162Y-9273786D01*
X80062163Y-9273784D01*
X80149822Y-9142592D01*
X80261392Y-9031022D01*
X80392584Y-8943363D01*
X80392586Y-8943362D01*
X80538358Y-8882981D01*
X80693107Y-8852200D01*
X80850893Y-8852200D01*
X81005642Y-8882981D01*
G37*
G36*
X124879594Y-3493580D02*
G01*
X125141383Y-3602017D01*
X125141385Y-3602018D01*
X125376990Y-3759444D01*
X125577356Y-3959810D01*
X125734782Y-4195415D01*
X125734783Y-4195417D01*
X125843220Y-4457206D01*
X125898500Y-4735119D01*
X125898500Y-5018481D01*
X125843220Y-5296394D01*
X125734783Y-5558183D01*
X125734782Y-5558185D01*
X125577356Y-5793790D01*
X125376990Y-5994156D01*
X125141385Y-6151582D01*
X125141384Y-6151583D01*
X125141383Y-6151583D01*
X124879594Y-6260020D01*
X124601681Y-6315300D01*
X124318319Y-6315300D01*
X124040406Y-6260020D01*
X123778617Y-6151583D01*
X123778616Y-6151583D01*
X123778615Y-6151582D01*
X123543010Y-5994156D01*
X123342644Y-5793790D01*
X123185218Y-5558185D01*
X123185217Y-5558183D01*
X123076780Y-5296394D01*
X123021500Y-5018481D01*
X123021500Y-4735119D01*
X123076780Y-4457206D01*
X123185217Y-4195417D01*
X123185218Y-4195415D01*
X123342644Y-3959810D01*
X123543010Y-3759444D01*
X123778615Y-3602018D01*
X123778617Y-3602017D01*
X124040406Y-3493580D01*
X124318319Y-3438300D01*
X124601681Y-3438300D01*
X124879594Y-3493580D01*
G37*
G36*
X118529594Y-3493580D02*
G01*
X118791383Y-3602017D01*
X118791385Y-3602018D01*
X119026990Y-3759444D01*
X119227356Y-3959810D01*
X119384782Y-4195415D01*
X119384783Y-4195417D01*
X119493220Y-4457206D01*
X119548500Y-4735119D01*
X119548500Y-5018481D01*
X119493220Y-5296394D01*
X119384783Y-5558183D01*
X119384782Y-5558185D01*
X119227356Y-5793790D01*
X119026990Y-5994156D01*
X118791385Y-6151582D01*
X118791384Y-6151583D01*
X118791383Y-6151583D01*
X118529594Y-6260020D01*
X118251681Y-6315300D01*
X117968319Y-6315300D01*
X117690406Y-6260020D01*
X117428617Y-6151583D01*
X117428616Y-6151583D01*
X117428615Y-6151582D01*
X117193010Y-5994156D01*
X116992644Y-5793790D01*
X116835218Y-5558185D01*
X116835217Y-5558183D01*
X116726780Y-5296394D01*
X116671500Y-5018481D01*
X116671500Y-4735119D01*
X116726780Y-4457206D01*
X116835217Y-4195417D01*
X116835218Y-4195415D01*
X116992644Y-3959810D01*
X117193010Y-3759444D01*
X117428615Y-3602018D01*
X117428617Y-3602017D01*
X117690406Y-3493580D01*
X117968319Y-3438300D01*
X118251681Y-3438300D01*
X118529594Y-3493580D01*
G37*
G36*
X112179594Y-3493580D02*
G01*
X112441383Y-3602017D01*
X112441385Y-3602018D01*
X112676990Y-3759444D01*
X112877356Y-3959810D01*
X113034782Y-4195415D01*
X113034783Y-4195417D01*
X113143220Y-4457206D01*
X113198500Y-4735119D01*
X113198500Y-5018481D01*
X113143220Y-5296394D01*
X113034783Y-5558183D01*
X113034782Y-5558185D01*
X112877356Y-5793790D01*
X112676990Y-5994156D01*
X112441385Y-6151582D01*
X112441384Y-6151583D01*
X112441383Y-6151583D01*
X112179594Y-6260020D01*
X111901681Y-6315300D01*
X111618319Y-6315300D01*
X111340406Y-6260020D01*
X111078617Y-6151583D01*
X111078616Y-6151583D01*
X111078615Y-6151582D01*
X110843010Y-5994156D01*
X110642644Y-5793790D01*
X110485218Y-5558185D01*
X110485217Y-5558183D01*
X110376780Y-5296394D01*
X110321500Y-5018481D01*
X110321500Y-4735119D01*
X110376780Y-4457206D01*
X110485217Y-4195417D01*
X110485218Y-4195415D01*
X110642644Y-3959810D01*
X110843010Y-3759444D01*
X111078615Y-3602018D01*
X111078617Y-3602017D01*
X111340406Y-3493580D01*
X111618319Y-3438300D01*
X111901681Y-3438300D01*
X112179594Y-3493580D01*
G37*
G36*
X105829594Y-3493580D02*
G01*
X106091383Y-3602017D01*
X106091385Y-3602018D01*
X106326990Y-3759444D01*
X106527356Y-3959810D01*
X106684782Y-4195415D01*
X106684783Y-4195417D01*
X106793220Y-4457206D01*
X106848500Y-4735119D01*
X106848500Y-5018481D01*
X106793220Y-5296394D01*
X106684783Y-5558183D01*
X106684782Y-5558185D01*
X106527356Y-5793790D01*
X106326990Y-5994156D01*
X106091385Y-6151582D01*
X106091384Y-6151583D01*
X106091383Y-6151583D01*
X105829594Y-6260020D01*
X105551681Y-6315300D01*
X105268319Y-6315300D01*
X104990406Y-6260020D01*
X104728617Y-6151583D01*
X104728616Y-6151583D01*
X104728615Y-6151582D01*
X104493010Y-5994156D01*
X104292644Y-5793790D01*
X104135218Y-5558185D01*
X104135217Y-5558183D01*
X104026780Y-5296394D01*
X103971500Y-5018481D01*
X103971500Y-4735119D01*
X104026780Y-4457206D01*
X104135217Y-4195417D01*
X104135218Y-4195415D01*
X104292644Y-3959810D01*
X104493010Y-3759444D01*
X104728615Y-3602018D01*
X104728617Y-3602017D01*
X104990406Y-3493580D01*
X105268319Y-3438300D01*
X105551681Y-3438300D01*
X105829594Y-3493580D01*
G37*
G36*
X99479594Y-3493580D02*
G01*
X99741383Y-3602017D01*
X99741385Y-3602018D01*
X99976990Y-3759444D01*
X100177356Y-3959810D01*
X100334782Y-4195415D01*
X100334783Y-4195417D01*
X100443220Y-4457206D01*
X100498500Y-4735119D01*
X100498500Y-5018481D01*
X100443220Y-5296394D01*
X100334783Y-5558183D01*
X100334782Y-5558185D01*
X100177356Y-5793790D01*
X99976990Y-5994156D01*
X99741385Y-6151582D01*
X99741384Y-6151583D01*
X99741383Y-6151583D01*
X99479594Y-6260020D01*
X99201681Y-6315300D01*
X98918319Y-6315300D01*
X98640406Y-6260020D01*
X98378617Y-6151583D01*
X98378616Y-6151583D01*
X98378615Y-6151582D01*
X98143010Y-5994156D01*
X97942644Y-5793790D01*
X97785218Y-5558185D01*
X97785217Y-5558183D01*
X97676780Y-5296394D01*
X97621500Y-5018481D01*
X97621500Y-4735119D01*
X97676780Y-4457206D01*
X97785217Y-4195417D01*
X97785218Y-4195415D01*
X97942644Y-3959810D01*
X98143010Y-3759444D01*
X98378615Y-3602018D01*
X98378617Y-3602017D01*
X98640406Y-3493580D01*
X98918319Y-3438300D01*
X99201681Y-3438300D01*
X99479594Y-3493580D01*
G37*
G36*
X93129594Y-3493580D02*
G01*
X93391383Y-3602017D01*
X93391385Y-3602018D01*
X93626990Y-3759444D01*
X93827356Y-3959810D01*
X93984782Y-4195415D01*
X93984783Y-4195417D01*
X94093220Y-4457206D01*
X94148500Y-4735119D01*
X94148500Y-5018481D01*
X94093220Y-5296394D01*
X93984783Y-5558183D01*
X93984782Y-5558185D01*
X93827356Y-5793790D01*
X93626990Y-5994156D01*
X93391385Y-6151582D01*
X93391384Y-6151583D01*
X93391383Y-6151583D01*
X93129594Y-6260020D01*
X92851681Y-6315300D01*
X92568319Y-6315300D01*
X92290406Y-6260020D01*
X92028617Y-6151583D01*
X92028616Y-6151583D01*
X92028615Y-6151582D01*
X91793010Y-5994156D01*
X91592644Y-5793790D01*
X91435218Y-5558185D01*
X91435217Y-5558183D01*
X91326780Y-5296394D01*
X91271500Y-5018481D01*
X91271500Y-4735119D01*
X91326780Y-4457206D01*
X91435217Y-4195417D01*
X91435218Y-4195415D01*
X91592644Y-3959810D01*
X91793010Y-3759444D01*
X92028615Y-3602018D01*
X92028617Y-3602017D01*
X92290406Y-3493580D01*
X92568319Y-3438300D01*
X92851681Y-3438300D01*
X93129594Y-3493580D01*
G37*
G36*
X57191500Y-6315300D02*
G01*
X54314500Y-6315300D01*
X54314500Y-3438300D01*
X57191500Y-3438300D01*
X57191500Y-6315300D01*
G37*
G36*
X43345594Y-3493580D02*
G01*
X43607383Y-3602017D01*
X43607385Y-3602018D01*
X43842990Y-3759444D01*
X44043356Y-3959810D01*
X44200782Y-4195415D01*
X44200783Y-4195417D01*
X44309220Y-4457206D01*
X44364500Y-4735119D01*
X44364500Y-5018481D01*
X44309220Y-5296394D01*
X44200783Y-5558183D01*
X44200782Y-5558185D01*
X44043356Y-5793790D01*
X43842990Y-5994156D01*
X43607385Y-6151582D01*
X43607384Y-6151583D01*
X43607383Y-6151583D01*
X43345594Y-6260020D01*
X43067681Y-6315300D01*
X42784319Y-6315300D01*
X42506406Y-6260020D01*
X42244617Y-6151583D01*
X42244616Y-6151583D01*
X42244615Y-6151582D01*
X42009010Y-5994156D01*
X41808644Y-5793790D01*
X41651218Y-5558185D01*
X41651217Y-5558183D01*
X41542780Y-5296394D01*
X41487500Y-5018481D01*
X41487500Y-4735119D01*
X41542780Y-4457206D01*
X41651217Y-4195417D01*
X41651218Y-4195415D01*
X41808644Y-3959810D01*
X42009010Y-3759444D01*
X42244615Y-3602018D01*
X42244617Y-3602017D01*
X42506406Y-3493580D01*
X42784319Y-3438300D01*
X43067681Y-3438300D01*
X43345594Y-3493580D01*
G37*
G36*
X36995594Y-3493580D02*
G01*
X37257383Y-3602017D01*
X37257385Y-3602018D01*
X37492990Y-3759444D01*
X37693356Y-3959810D01*
X37850782Y-4195415D01*
X37850783Y-4195417D01*
X37959220Y-4457206D01*
X38014500Y-4735119D01*
X38014500Y-5018481D01*
X37959220Y-5296394D01*
X37850783Y-5558183D01*
X37850782Y-5558185D01*
X37693356Y-5793790D01*
X37492990Y-5994156D01*
X37257385Y-6151582D01*
X37257384Y-6151583D01*
X37257383Y-6151583D01*
X36995594Y-6260020D01*
X36717681Y-6315300D01*
X36434319Y-6315300D01*
X36156406Y-6260020D01*
X35894617Y-6151583D01*
X35894616Y-6151583D01*
X35894615Y-6151582D01*
X35659010Y-5994156D01*
X35458644Y-5793790D01*
X35301218Y-5558185D01*
X35301217Y-5558183D01*
X35192780Y-5296394D01*
X35137500Y-5018481D01*
X35137500Y-4735119D01*
X35192780Y-4457206D01*
X35301217Y-4195417D01*
X35301218Y-4195415D01*
X35458644Y-3959810D01*
X35659010Y-3759444D01*
X35894615Y-3602018D01*
X35894617Y-3602017D01*
X36156406Y-3493580D01*
X36434319Y-3438300D01*
X36717681Y-3438300D01*
X36995594Y-3493580D01*
G37*
G36*
X30645594Y-3493580D02*
G01*
X30907383Y-3602017D01*
X30907385Y-3602018D01*
X31142990Y-3759444D01*
X31343356Y-3959810D01*
X31500782Y-4195415D01*
X31500783Y-4195417D01*
X31609220Y-4457206D01*
X31664500Y-4735119D01*
X31664500Y-5018481D01*
X31609220Y-5296394D01*
X31500783Y-5558183D01*
X31500782Y-5558185D01*
X31343356Y-5793790D01*
X31142990Y-5994156D01*
X30907385Y-6151582D01*
X30907384Y-6151583D01*
X30907383Y-6151583D01*
X30645594Y-6260020D01*
X30367681Y-6315300D01*
X30084319Y-6315300D01*
X29806406Y-6260020D01*
X29544617Y-6151583D01*
X29544616Y-6151583D01*
X29544615Y-6151582D01*
X29309010Y-5994156D01*
X29108644Y-5793790D01*
X28951218Y-5558185D01*
X28951217Y-5558183D01*
X28842780Y-5296394D01*
X28787500Y-5018481D01*
X28787500Y-4735119D01*
X28842780Y-4457206D01*
X28951217Y-4195417D01*
X28951218Y-4195415D01*
X29108644Y-3959810D01*
X29309010Y-3759444D01*
X29544615Y-3602018D01*
X29544617Y-3602017D01*
X29806406Y-3493580D01*
X30084319Y-3438300D01*
X30367681Y-3438300D01*
X30645594Y-3493580D01*
G37*
G36*
X24295594Y-3493580D02*
G01*
X24557383Y-3602017D01*
X24557385Y-3602018D01*
X24792990Y-3759444D01*
X24993356Y-3959810D01*
X25150782Y-4195415D01*
X25150783Y-4195417D01*
X25259220Y-4457206D01*
X25314500Y-4735119D01*
X25314500Y-5018481D01*
X25259220Y-5296394D01*
X25150783Y-5558183D01*
X25150782Y-5558185D01*
X24993356Y-5793790D01*
X24792990Y-5994156D01*
X24557385Y-6151582D01*
X24557384Y-6151583D01*
X24557383Y-6151583D01*
X24295594Y-6260020D01*
X24017681Y-6315300D01*
X23734319Y-6315300D01*
X23456406Y-6260020D01*
X23194617Y-6151583D01*
X23194616Y-6151583D01*
X23194615Y-6151582D01*
X22959010Y-5994156D01*
X22758644Y-5793790D01*
X22601218Y-5558185D01*
X22601217Y-5558183D01*
X22492780Y-5296394D01*
X22437500Y-5018481D01*
X22437500Y-4735119D01*
X22492780Y-4457206D01*
X22601217Y-4195417D01*
X22601218Y-4195415D01*
X22758644Y-3959810D01*
X22959010Y-3759444D01*
X23194615Y-3602018D01*
X23194617Y-3602017D01*
X23456406Y-3493580D01*
X23734319Y-3438300D01*
X24017681Y-3438300D01*
X24295594Y-3493580D01*
G37*
G36*
X17945594Y-3493580D02*
G01*
X18207383Y-3602017D01*
X18207385Y-3602018D01*
X18442990Y-3759444D01*
X18643356Y-3959810D01*
X18800782Y-4195415D01*
X18800783Y-4195417D01*
X18909220Y-4457206D01*
X18964500Y-4735119D01*
X18964500Y-5018481D01*
X18909220Y-5296394D01*
X18800783Y-5558183D01*
X18800782Y-5558185D01*
X18643356Y-5793790D01*
X18442990Y-5994156D01*
X18207385Y-6151582D01*
X18207384Y-6151583D01*
X18207383Y-6151583D01*
X17945594Y-6260020D01*
X17667681Y-6315300D01*
X17384319Y-6315300D01*
X17106406Y-6260020D01*
X16844617Y-6151583D01*
X16844616Y-6151583D01*
X16844615Y-6151582D01*
X16609010Y-5994156D01*
X16408644Y-5793790D01*
X16251218Y-5558185D01*
X16251217Y-5558183D01*
X16142780Y-5296394D01*
X16087500Y-5018481D01*
X16087500Y-4735119D01*
X16142780Y-4457206D01*
X16251217Y-4195417D01*
X16251218Y-4195415D01*
X16408644Y-3959810D01*
X16609010Y-3759444D01*
X16844615Y-3602018D01*
X16844617Y-3602017D01*
X17106406Y-3493580D01*
X17384319Y-3438300D01*
X17667681Y-3438300D01*
X17945594Y-3493580D01*
G37*
G36*
X11595594Y-3493580D02*
G01*
X11857383Y-3602017D01*
X11857385Y-3602018D01*
X12092990Y-3759444D01*
X12293356Y-3959810D01*
X12450782Y-4195415D01*
X12450783Y-4195417D01*
X12559220Y-4457206D01*
X12614500Y-4735119D01*
X12614500Y-5018481D01*
X12559220Y-5296394D01*
X12450783Y-5558183D01*
X12450782Y-5558185D01*
X12293356Y-5793790D01*
X12092990Y-5994156D01*
X11857385Y-6151582D01*
X11857384Y-6151583D01*
X11857383Y-6151583D01*
X11595594Y-6260020D01*
X11317681Y-6315300D01*
X11034319Y-6315300D01*
X10756406Y-6260020D01*
X10494617Y-6151583D01*
X10494616Y-6151583D01*
X10494615Y-6151582D01*
X10259010Y-5994156D01*
X10058644Y-5793790D01*
X9901218Y-5558185D01*
X9901217Y-5558183D01*
X9792780Y-5296394D01*
X9737500Y-5018481D01*
X9737500Y-4735119D01*
X9792780Y-4457206D01*
X9901217Y-4195417D01*
X9901218Y-4195415D01*
X10058644Y-3959810D01*
X10259010Y-3759444D01*
X10494615Y-3602018D01*
X10494617Y-3602017D01*
X10756406Y-3493580D01*
X11034319Y-3438300D01*
X11317681Y-3438300D01*
X11595594Y-3493580D01*
G37*
G36*
X138725500Y-6315300D02*
G01*
X135848500Y-6315300D01*
X135848500Y-3438300D01*
X138725500Y-3438300D01*
X138725500Y-6315300D01*
G37*
G36*
X131229594Y-3493580D02*
G01*
X131491383Y-3602017D01*
X131491385Y-3602018D01*
X131726990Y-3759444D01*
X131927356Y-3959810D01*
X132084782Y-4195415D01*
X132084783Y-4195417D01*
X132193220Y-4457206D01*
X132248500Y-4735119D01*
X132248500Y-5018481D01*
X132193220Y-5296394D01*
X132084783Y-5558183D01*
X132084782Y-5558185D01*
X131927356Y-5793790D01*
X131726990Y-5994156D01*
X131491385Y-6151582D01*
X131491384Y-6151583D01*
X131491383Y-6151583D01*
X131229594Y-6260020D01*
X130951681Y-6315300D01*
X130668319Y-6315300D01*
X130390406Y-6260020D01*
X130128617Y-6151583D01*
X130128616Y-6151583D01*
X130128615Y-6151582D01*
X129893010Y-5994156D01*
X129692644Y-5793790D01*
X129535218Y-5558185D01*
X129535217Y-5558183D01*
X129426780Y-5296394D01*
X129371500Y-5018481D01*
X129371500Y-4735119D01*
X129426780Y-4457206D01*
X129535217Y-4195417D01*
X129535218Y-4195415D01*
X129692644Y-3959810D01*
X129893010Y-3759444D01*
X130128615Y-3602018D01*
X130128617Y-3602017D01*
X130390406Y-3493580D01*
X130668319Y-3438300D01*
X130951681Y-3438300D01*
X131229594Y-3493580D01*
G37*
G36*
X49695594Y-3493580D02*
G01*
X49957383Y-3602017D01*
X49957385Y-3602018D01*
X50192990Y-3759444D01*
X50393356Y-3959810D01*
X50550782Y-4195415D01*
X50550783Y-4195417D01*
X50659220Y-4457206D01*
X50714500Y-4735119D01*
X50714500Y-5018481D01*
X50659220Y-5296394D01*
X50550783Y-5558183D01*
X50550782Y-5558185D01*
X50393356Y-5793790D01*
X50192990Y-5994156D01*
X49957385Y-6151582D01*
X49957384Y-6151583D01*
X49957383Y-6151583D01*
X49695594Y-6260020D01*
X49417681Y-6315300D01*
X49134319Y-6315300D01*
X48856406Y-6260020D01*
X48594617Y-6151583D01*
X48594616Y-6151583D01*
X48594615Y-6151582D01*
X48359010Y-5994156D01*
X48158644Y-5793790D01*
X48001218Y-5558185D01*
X48001217Y-5558183D01*
X47892780Y-5296394D01*
X47837500Y-5018481D01*
X47837500Y-4735119D01*
X47892780Y-4457206D01*
X48001217Y-4195417D01*
X48001218Y-4195415D01*
X48158644Y-3959810D01*
X48359010Y-3759444D01*
X48594615Y-3602018D01*
X48594617Y-3602017D01*
X48856406Y-3493580D01*
X49134319Y-3438300D01*
X49417681Y-3438300D01*
X49695594Y-3493580D01*
G37*
M02*
