M48
; DRILL file {KiCad 5.1.5+dfsg1-2build2} date Пн 17 янв 2022 18:31:06
; FORMAT={-:-/ absolute / metric / decimal}
; #@! TF.CreationDate,2022-01-17T18:31:06+07:00
; #@! TF.GenerationSoftware,Kicad,Pcbnew,5.1.5+dfsg1-2build2
; #@! TF.FileFunction,Plated,1,2,PTH
FMAT,2
METRIC
T1C0.300
T2C0.400
T3C0.800
T4C0.950
T5C1.000
T6C1.100
T7C1.300
T8C1.850
T9C3.200
%
G90
G05
T1
X17.526Y-42.875
X19.914Y-34.646
X19.914Y-35.154
X19.914Y-35.662
X19.914Y-36.17
X19.914Y-36.678
X20.422Y-34.646
X20.422Y-35.154
X20.422Y-35.662
X20.422Y-36.17
X20.422Y-36.678
X20.93Y-34.646
X20.93Y-35.154
X20.93Y-35.662
X20.93Y-36.17
X20.93Y-36.678
X21.082Y-39.319
X21.082Y-39.827
X21.59Y-39.319
X21.59Y-39.827
X22.098Y-39.319
X22.098Y-39.827
X22.606Y-39.319
X22.606Y-39.827
X23.114Y-38.811
X23.114Y-39.319
X23.114Y-39.827
X23.622Y-38.811
X23.622Y-39.319
X23.622Y-39.827
X24.892Y-52.506
X25.336Y-42.367
X25.654Y-47.904
X26.162Y-46.939
X26.416Y-52.146
X26.67Y-35.458
X26.67Y-36.017
X26.67Y-36.525
X26.822Y-46.431
X27.138Y-36.509
X27.178Y-35.458
X27.178Y-36.017
X27.483Y-46.076
X27.691Y-51.142
X29.566Y-45.212
X30.069Y-45.763
X30.623Y-44.298
X30.988Y-35.509
X30.988Y-36.017
X30.988Y-36.525
X31.177Y-43.572
X31.496Y-35.509
X31.496Y-36.017
X31.496Y-36.525
X31.902Y-44.755
X32.004Y-33.223
X32.004Y-33.985
X32.004Y-34.747
X32.131Y-22.682
X32.131Y-23.19
X32.131Y-23.698
X32.243Y-44.029
X32.385Y-22.174
X32.639Y-22.682
X32.639Y-23.19
X32.639Y-23.698
X32.766Y-33.223
X32.766Y-33.985
X32.766Y-34.747
X32.893Y-22.174
X33.147Y-22.682
X33.147Y-23.19
X33.147Y-23.698
X33.401Y-22.174
X33.528Y-33.223
X33.528Y-33.985
X33.528Y-34.747
X33.655Y-22.682
X33.655Y-23.19
X33.655Y-23.698
X33.909Y-22.174
X34.163Y-22.682
X34.163Y-23.19
X34.163Y-23.698
X34.29Y-33.223
X34.29Y-33.985
X34.29Y-34.747
X34.417Y-22.174
X34.671Y-22.682
X34.671Y-23.19
X34.671Y-23.698
X34.925Y-22.174
X35.052Y-33.223
X35.052Y-33.985
X35.052Y-34.747
X35.179Y-22.682
X35.179Y-23.19
X35.179Y-23.698
X35.56Y-35.56
X35.56Y-36.017
X35.56Y-36.525
X35.56Y-45.872
X36.068Y-35.56
X36.068Y-36.017
X36.068Y-36.525
X36.357Y-48.245
X37.061Y-48.446
X38.056Y-46.038
X39.243Y-48.309
X39.878Y-35.509
X39.878Y-36.017
X39.878Y-36.525
X40.386Y-35.509
X40.386Y-36.017
X40.386Y-36.525
X43.688Y-38.811
X43.688Y-39.319
X43.688Y-39.827
X44.196Y-38.811
X44.196Y-39.319
X44.196Y-39.827
X44.323Y-50.876
X44.323Y-51.511
X44.323Y-52.146
X44.323Y-52.781
X44.704Y-39.319
X44.704Y-39.827
X44.958Y-52.781
X45.212Y-39.319
X45.212Y-39.827
X45.593Y-52.781
X45.72Y-39.319
X45.72Y-39.827
X46.228Y-39.319
X46.228Y-39.827
X46.228Y-52.781
X48.006Y-34.646
X48.006Y-35.154
X48.006Y-35.662
X48.006Y-36.17
X48.006Y-36.678
X48.514Y-34.646
X48.514Y-35.154
X48.514Y-35.662
X48.514Y-36.17
X48.514Y-36.678
X48.964Y-41.076
X49.022Y-34.646
X49.022Y-35.154
X49.022Y-35.662
X49.022Y-36.17
X49.022Y-36.678
X49.378Y-43.231
X49.378Y-43.79
X49.378Y-44.399
X49.749Y-41.075
X50.476Y-41.132
X50.612Y-41.846
X60.071Y-27.064
X63.309Y-46.431
X63.309Y-47.003
X63.754Y-49.606
X63.754Y-50.241
X64.389Y-49.606
X64.389Y-50.241
X65.024Y-49.606
X65.024Y-50.241
X65.278Y-29.286
X65.977Y-46.495
X65.977Y-47.003
X66.294Y-45.034
X66.802Y-51.829
X67.136Y-47.005
X67.31Y-41.453
X67.691Y-36.144
X67.818Y-43.891
X68.326Y-42.748
X68.453Y-28.524
X68.453Y-30.366
X69.088Y-50.241
X69.151Y-52.083
X69.207Y-43.891
X69.723Y-26.746
X69.723Y-28.524
X69.723Y-50.876
X70.104Y-36.652
X70.358Y-44.653
X70.912Y-28.351
X70.929Y-23.0
X70.929Y-23.571
X70.929Y-24.143
X70.929Y-24.714
X71.185Y-47.066
X71.501Y-23.0
X71.501Y-23.571
X71.501Y-24.143
X71.501Y-24.714
X71.628Y-34.62
X71.723Y-27.243
X71.74Y-41.466
X72.02Y-28.351
X72.3Y-41.93
X72.644Y-32.969
X73.152Y-32.969
X73.187Y-49.098
X73.215Y-21.984
X73.279Y-46.431
X73.406Y-57.734
X73.724Y-32.969
X73.85Y-42.621
X73.914Y-49.098
X74.061Y-46.516
X74.231Y-32.969
X74.65Y-52.464
X74.993Y-42.304
X76.391Y-29.604
X76.581Y-40.97
X76.945Y-30.366
X76.962Y-42.113
X77.287Y-29.666
X77.406Y-52.4
X77.47Y-21.996
X77.533Y-47.638
X77.561Y-45.844
X77.597Y-34.62
X77.949Y-45.229
X77.978Y-42.131
X78.273Y-33.845
X78.359Y-46.431
X78.952Y-44.639
X79.491Y-39.076
X79.502Y-39.954
X79.502Y-40.716
X79.502Y-41.478
X79.629Y-34.62
X79.92Y-30.454
X80.899Y-27.243
X80.962Y-44.526
X80.962Y-45.034
X81.534Y-44.526
X81.534Y-45.034
X81.661Y-55.321
X82.042Y-33.287
X82.042Y-40.132
X82.042Y-41.046
X82.102Y-39.407
X82.169Y-24.714
X82.296Y-35.573
X82.486Y-33.604
X82.504Y-52.208
X82.804Y-35.573
X82.995Y-33.858
X83.058Y-28.778
X83.058Y-48.082
X83.058Y-51.448
X83.058Y-55.004
X83.312Y-35.573
X83.82Y-35.573
X84.455Y-41.732
X84.709Y-30.429
X84.709Y-31.001
X84.938Y-38.303
X85.152Y-47.301
X85.217Y-44.209
X85.217Y-44.78
X85.246Y-27.67
X85.28Y-30.429
X85.28Y-31.001
X85.547Y-37.694
X86.042Y-37.11
X86.233Y-53.543
X86.552Y-49.65
X86.57Y-48.065
X86.57Y-50.415
X86.57Y-48.848
X86.868Y-28.605
X86.995Y-54.305
X86.995Y-39.637
X86.995Y-40.208
X87.376Y-27.762
X88.341Y-34.701
X88.9Y-47.574
X89.027Y-50.241
X89.357Y-31.039
X89.471Y-47.574
X89.789Y-50.876
X90.018Y-35.509
X90.043Y-47.574
X91.567Y-51.003
X91.778Y-28.605
X91.999Y-36.068
X92.558Y-36.068
X93.116Y-36.068
X93.726Y-51.194
X100.584Y-34.747
X100.584Y-35.255
X100.584Y-35.763
X100.584Y-36.271
X100.584Y-36.779
X101.092Y-34.747
X101.092Y-35.255
X101.092Y-35.763
X101.092Y-36.271
X101.092Y-36.779
X101.6Y-34.747
X101.6Y-35.255
X101.6Y-35.763
X101.6Y-36.271
X101.6Y-36.779
X102.311Y-51.359
X102.819Y-51.359
X102.87Y-39.827
X102.87Y-40.335
X103.276Y-51.359
X103.378Y-39.827
X103.378Y-40.335
X103.886Y-39.827
X103.886Y-40.335
X104.267Y-49.606
X104.267Y-53.035
X104.394Y-39.827
X104.394Y-40.335
X104.902Y-39.319
X104.902Y-39.827
X104.902Y-40.335
X105.41Y-39.319
X105.41Y-39.827
X105.41Y-40.335
X105.551Y-52.228
X107.442Y-52.273
X108.204Y-35.509
X108.204Y-36.017
X108.204Y-36.525
X108.712Y-35.509
X108.712Y-36.017
X108.712Y-36.525
X109.271Y-47.803
X109.982Y-51.486
X110.325Y-47.828
X111.506Y-53.061
X112.359Y-47.828
X112.522Y-35.56
X112.522Y-36.017
X112.522Y-36.525
X113.03Y-35.56
X113.03Y-36.017
X113.03Y-36.525
X113.386Y-47.803
X113.538Y-22.809
X113.538Y-23.317
X113.538Y-23.825
X113.538Y-32.969
X113.538Y-33.731
X113.538Y-34.493
X113.792Y-22.301
X114.046Y-22.809
X114.046Y-23.317
X114.046Y-23.825
X114.097Y-53.188
X114.198Y-45.783
X114.3Y-22.301
X114.3Y-32.969
X114.3Y-33.731
X114.3Y-34.493
X114.554Y-22.809
X114.554Y-23.317
X114.554Y-23.825
X114.656Y-53.188
X114.808Y-22.301
X114.925Y-45.722
X115.062Y-22.809
X115.062Y-23.317
X115.062Y-23.825
X115.062Y-32.969
X115.062Y-33.731
X115.062Y-34.493
X115.214Y-53.188
X115.316Y-22.301
X115.519Y-46.99
X115.57Y-22.809
X115.57Y-23.317
X115.57Y-23.825
X115.773Y-53.188
X115.773Y-57.437
X115.824Y-22.301
X115.824Y-32.969
X115.824Y-33.731
X115.824Y-34.493
X115.976Y-50.546
X116.078Y-22.809
X116.078Y-23.317
X116.078Y-23.825
X116.18Y-47.346
X116.332Y-22.301
X116.586Y-22.809
X116.586Y-23.317
X116.586Y-23.825
X116.586Y-32.969
X116.586Y-33.731
X116.586Y-34.493
X117.221Y-36.017
X117.221Y-36.525
X117.246Y-35.509
X117.348Y-44.907
X117.5Y-54.864
X117.729Y-36.017
X117.729Y-36.525
X117.754Y-35.509
X117.754Y-55.22
X118.008Y-55.575
X121.514Y-54.254
X121.615Y-35.509
X121.666Y-36.017
X121.666Y-36.525
X122.174Y-35.509
X122.174Y-36.017
X122.174Y-36.525
X122.174Y-48.209
X125.222Y-39.319
X125.222Y-39.827
X125.222Y-40.335
X125.476Y-51.829
X125.73Y-39.319
X125.73Y-39.827
X125.73Y-40.335
X126.238Y-39.827
X126.238Y-40.335
X126.238Y-47.828
X126.746Y-39.827
X126.746Y-40.335
X126.873Y-47.828
X127.254Y-39.827
X127.254Y-40.335
X127.508Y-47.828
X127.762Y-39.827
X127.762Y-40.335
X128.143Y-47.828
X128.143Y-48.463
X128.143Y-49.098
X128.143Y-49.733
X129.032Y-34.747
X129.032Y-35.255
X129.032Y-35.763
X129.032Y-36.271
X129.032Y-36.779
X129.54Y-34.747
X129.54Y-35.255
X129.54Y-35.763
X129.54Y-36.271
X129.54Y-36.779
X130.099Y-34.747
X130.099Y-35.255
X130.099Y-35.763
X130.099Y-36.322
X130.099Y-36.83
X131.953Y-56.02
T2
X117.605Y-48.154
X118.745Y-48.209
T3
X49.022Y-55.067
X62.357Y-48.59
X64.77Y-18.327
X67.31Y-18.327
X69.85Y-18.327
T4
X77.724Y-56.591
X80.224Y-56.591
X82.724Y-56.591
X85.224Y-56.591
X87.724Y-56.591
X90.224Y-56.591
X96.393Y-56.591
X98.893Y-56.591
X101.393Y-56.591
X59.055Y-56.591
X61.555Y-56.591
X64.055Y-56.591
X66.555Y-56.591
X69.055Y-56.591
X71.555Y-56.591
X114.249Y-56.591
X116.749Y-56.591
X119.249Y-56.591
X121.749Y-56.591
X124.249Y-56.591
X126.749Y-56.591
T5
X74.549Y-18.11
X74.549Y-20.65
X74.549Y-23.19
X74.549Y-25.73
X55.372Y-25.857
X57.912Y-25.857
T6
X64.77Y-15.697
X69.85Y-15.697
T7
X9.97Y-55.258
X15.05Y-55.258
T8
X92.71Y-4.877
X99.06Y-4.877
X105.41Y-4.877
X111.76Y-4.877
X118.11Y-4.877
X124.46Y-4.877
X130.81Y-4.877
X137.287Y-4.877
X11.176Y-4.877
X17.526Y-4.877
X23.876Y-4.877
X30.226Y-4.877
X36.576Y-4.877
X42.926Y-4.877
X49.276Y-4.877
X55.753Y-4.877
X131.953Y-54.051
X138.43Y-54.051
T9
X3.81Y-10.871
X135.636Y-44.653
X53.975Y-44.59
X144.653Y-10.935
X13.018Y-44.653
X94.678Y-44.653
T0
M30
